<svg width="1300" height="146" viewBox="0 0 1300 146" fill="none" xmlns="http://www.w3.org/2000/svg">
    <path d="M283.182 124.773V93.4091H288.091C289.727 92.4091 291.205 91 292.523 89.1818C293.864 87.3636 295 84.7614 295.932 81.375C296.886 77.9886 297.591 73.4545 298.045 67.7727L300.364 38.1818H349.727V93.4091H357.091V124.773H338.818V108H301.455V124.773H283.182ZM309.773 93.4091H331.455V53.4545H317.409L316.318 67.7727C316 72.0455 315.511 75.7841 314.852 78.9886C314.216 82.1705 313.455 84.9432 312.568 87.3068C311.705 89.6477 310.773 91.6818 309.773 93.4091ZM436.864 108.955C431.273 108.955 426.455 107.886 422.409 105.75C418.386 103.591 415.284 100.5 413.102 96.4773C410.943 92.4318 409.864 87.5909 409.864 81.9545C409.864 76.5455 410.955 71.8182 413.136 67.7727C415.318 63.7273 418.398 60.5795 422.375 58.3295C426.352 56.0795 431.045 54.9545 436.455 54.9545C440.409 54.9545 443.989 55.5682 447.193 56.7955C450.398 58.0227 453.136 59.8068 455.409 62.1477C457.682 64.4659 459.432 67.2841 460.659 70.6023C461.886 73.9205 462.5 77.6591 462.5 81.8182V86.1818H415.727V75.8182H445.182C445.159 74.3182 444.773 73 444.023 71.8636C443.295 70.7045 442.307 69.8068 441.057 69.1705C439.83 68.5114 438.432 68.1818 436.864 68.1818C435.341 68.1818 433.943 68.5114 432.67 69.1705C431.398 69.8068 430.375 70.6932 429.602 71.8295C428.852 72.9659 428.455 74.2955 428.409 75.8182V87C428.409 88.6818 428.761 90.1818 429.466 91.5C430.17 92.8182 431.182 93.8523 432.5 94.6023C433.818 95.3523 435.409 95.7273 437.273 95.7273C438.568 95.7273 439.75 95.5455 440.818 95.1818C441.909 94.8182 442.841 94.2955 443.614 93.6136C444.386 92.9091 444.955 92.0682 445.318 91.0909H462.5C461.909 94.7273 460.511 97.8864 458.307 100.568C456.102 103.227 453.182 105.295 449.545 106.773C445.932 108.227 441.705 108.955 436.864 108.955ZM543.406 108.955C537.724 108.955 532.861 107.83 528.815 105.58C524.77 103.307 521.668 100.148 519.509 96.1023C517.349 92.0341 516.27 87.3182 516.27 81.9545C516.27 76.5909 517.349 71.8864 519.509 67.8409C521.668 63.7727 524.77 60.6136 528.815 58.3636C532.861 56.0909 537.724 54.9545 543.406 54.9545C548.543 54.9545 552.986 55.8864 556.736 57.75C560.509 59.5909 563.429 62.2045 565.497 65.5909C567.565 68.9545 568.611 72.9091 568.634 77.4545H551.179C550.929 74.7045 550.134 72.6136 548.793 71.1818C547.474 69.7273 545.77 69 543.679 69C542.043 69 540.611 69.4773 539.384 70.4318C538.156 71.3636 537.202 72.7841 536.52 74.6932C535.838 76.5795 535.497 78.9545 535.497 81.8182C535.497 84.6818 535.838 87.0682 536.52 88.9773C537.202 90.8636 538.156 92.2841 539.384 93.2386C540.611 94.1705 542.043 94.6364 543.679 94.6364C545.065 94.6364 546.293 94.3182 547.361 93.6818C548.429 93.0227 549.293 92.0682 549.952 90.8182C550.634 89.5455 551.043 88 551.179 86.1818H568.634C568.565 90.7955 567.509 94.8182 565.463 98.25C563.418 101.659 560.52 104.295 556.77 106.159C553.043 108.023 548.588 108.955 543.406 108.955ZM688.216 38.1818V108H669.534V53.1818H645.943V108H627.261V38.1818H688.216ZM773.707 108.955C768.116 108.955 763.298 107.886 759.253 105.75C755.23 103.591 752.128 100.5 749.946 96.4773C747.787 92.4318 746.707 87.5909 746.707 81.9545C746.707 76.5455 747.798 71.8182 749.98 67.7727C752.162 63.7273 755.241 60.5795 759.219 58.3295C763.196 56.0795 767.889 54.9545 773.298 54.9545C777.253 54.9545 780.832 55.5682 784.037 56.7955C787.241 58.0227 789.98 59.8068 792.253 62.1477C794.526 64.4659 796.276 67.2841 797.503 70.6023C798.73 73.9205 799.344 77.6591 799.344 81.8182V86.1818H752.571V75.8182H782.026C782.003 74.3182 781.616 73 780.866 71.8636C780.139 70.7045 779.151 69.8068 777.901 69.1705C776.673 68.5114 775.276 68.1818 773.707 68.1818C772.185 68.1818 770.787 68.5114 769.514 69.1705C768.241 69.8068 767.219 70.6932 766.446 71.8295C765.696 72.9659 765.298 74.2955 765.253 75.8182V87C765.253 88.6818 765.605 90.1818 766.31 91.5C767.014 92.8182 768.026 93.8523 769.344 94.6023C770.662 95.3523 772.253 95.7273 774.116 95.7273C775.412 95.7273 776.594 95.5455 777.662 95.1818C778.753 94.8182 779.685 94.2955 780.457 93.6136C781.23 92.9091 781.798 92.0682 782.162 91.0909H799.344C798.753 94.7273 797.355 97.8864 795.151 100.568C792.946 103.227 790.026 105.295 786.389 106.773C782.776 108.227 778.548 108.955 773.707 108.955ZM855.023 127.636V55.6364H873.705V64.7727H874.114C874.795 63 875.795 61.375 877.114 59.8977C878.432 58.3977 880.068 57.2045 882.023 56.3182C883.977 55.4091 886.25 54.9545 888.841 54.9545C892.295 54.9545 895.58 55.875 898.693 57.7159C901.83 59.5568 904.375 62.4545 906.33 66.4091C908.307 70.3636 909.295 75.5 909.295 81.8182C909.295 87.8636 908.352 92.875 906.466 96.8523C904.602 100.83 902.102 103.795 898.966 105.75C895.852 107.705 892.432 108.682 888.705 108.682C886.25 108.682 884.057 108.284 882.125 107.489C880.216 106.67 878.58 105.568 877.216 104.182C875.875 102.773 874.841 101.182 874.114 99.4091H873.841V127.636H855.023ZM873.432 81.8182C873.432 84.3636 873.761 86.5682 874.42 88.4318C875.102 90.2727 876.057 91.7045 877.284 92.7273C878.534 93.7273 880.023 94.2273 881.75 94.2273C883.477 94.2273 884.943 93.7386 886.148 92.7614C887.375 91.7614 888.307 90.3409 888.943 88.5C889.602 86.6364 889.932 84.4091 889.932 81.8182C889.932 79.2273 889.602 77.0114 888.943 75.1705C888.307 73.3068 887.375 71.8864 886.148 70.9091C884.943 69.9091 883.477 69.4091 881.75 69.4091C880.023 69.4091 878.534 69.9091 877.284 70.9091C876.057 71.8864 875.102 73.3068 874.42 75.1705C873.761 77.0114 873.432 79.2273 873.432 81.8182ZM990.406 108.955C984.724 108.955 979.861 107.83 975.815 105.58C971.77 103.307 968.668 100.148 966.509 96.1023C964.349 92.0341 963.27 87.3182 963.27 81.9545C963.27 76.5909 964.349 71.8864 966.509 67.8409C968.668 63.7727 971.77 60.6136 975.815 58.3636C979.861 56.0909 984.724 54.9545 990.406 54.9545C995.543 54.9545 999.986 55.8864 1003.74 57.75C1007.51 59.5909 1010.43 62.2045 1012.5 65.5909C1014.57 68.9545 1015.61 72.9091 1015.63 77.4545H998.179C997.929 74.7045 997.134 72.6136 995.793 71.1818C994.474 69.7273 992.77 69 990.679 69C989.043 69 987.611 69.4773 986.384 70.4318C985.156 71.3636 984.202 72.7841 983.52 74.6932C982.838 76.5795 982.497 78.9545 982.497 81.8182C982.497 84.6818 982.838 87.0682 983.52 88.9773C984.202 90.8636 985.156 92.2841 986.384 93.2386C987.611 94.1705 989.043 94.6364 990.679 94.6364C992.065 94.6364 993.293 94.3182 994.361 93.6818C995.429 93.0227 996.293 92.0682 996.952 90.8182C997.634 89.5455 998.043 88 998.179 86.1818H1015.63C1015.57 90.7955 1014.51 94.8182 1012.46 98.25C1010.42 101.659 1007.52 104.295 1003.77 106.159C1000.04 108.023 995.588 108.955 990.406 108.955Z" fill="white"/>
    <path d="M283.182 124.773H282.182V125.773H283.182V124.773ZM283.182 93.4091V92.4091H282.182V93.4091H283.182ZM288.091 93.4091V94.4091H288.372L288.612 94.2624L288.091 93.4091ZM292.523 89.1818L291.718 88.5883L291.713 88.5948L292.523 89.1818ZM295.932 81.375L294.969 81.1037L294.968 81.1097L295.932 81.375ZM298.045 67.7727L299.042 67.8525L299.042 67.8508L298.045 67.7727ZM300.364 38.1818V37.1818H299.439L299.367 38.1037L300.364 38.1818ZM349.727 38.1818H350.727V37.1818H349.727V38.1818ZM349.727 93.4091H348.727V94.4091H349.727V93.4091ZM357.091 93.4091H358.091V92.4091H357.091V93.4091ZM357.091 124.773V125.773H358.091V124.773H357.091ZM338.818 124.773H337.818V125.773H338.818V124.773ZM338.818 108H339.818V107H338.818V108ZM301.455 108V107H300.455V108H301.455ZM301.455 124.773V125.773H302.455V124.773H301.455ZM309.773 93.4091L308.907 92.9081L308.038 94.4091H309.773V93.4091ZM331.455 93.4091V94.4091H332.455V93.4091H331.455ZM331.455 53.4545H332.455V52.4545H331.455V53.4545ZM317.409 53.4545V52.4545H316.482L316.412 53.3786L317.409 53.4545ZM316.318 67.7727L315.321 67.6968L315.321 67.6985L316.318 67.7727ZM314.852 78.9886L313.873 78.7872L313.872 78.7925L314.852 78.9886ZM312.568 87.3068L311.632 86.9557L311.63 86.9607L312.568 87.3068ZM284.182 124.773V93.4091H282.182V124.773H284.182ZM283.182 94.4091H288.091V92.4091H283.182V94.4091ZM288.612 94.2624C290.379 93.1828 291.95 91.6759 293.332 89.7688L291.713 88.5948C290.459 90.3241 289.076 91.6354 287.569 92.5558L288.612 94.2624ZM293.328 89.7754C294.77 87.8193 295.948 85.0866 296.896 81.6403L294.968 81.1097C294.052 84.4361 292.957 86.908 291.718 88.5883L293.328 89.7754ZM296.894 81.6463C297.874 78.1711 298.585 73.5646 299.042 67.8525L297.049 67.693C296.597 73.3445 295.899 77.8062 294.969 81.1037L296.894 81.6463ZM299.042 67.8508L301.361 38.2599L299.367 38.1037L297.049 67.6946L299.042 67.8508ZM300.364 39.1818H349.727V37.1818H300.364V39.1818ZM348.727 38.1818V93.4091H350.727V38.1818H348.727ZM349.727 94.4091H357.091V92.4091H349.727V94.4091ZM356.091 93.4091V124.773H358.091V93.4091H356.091ZM357.091 123.773H338.818V125.773H357.091V123.773ZM339.818 124.773V108H337.818V124.773H339.818ZM338.818 107H301.455V109H338.818V107ZM300.455 108V124.773H302.455V108H300.455ZM301.455 123.773H283.182V125.773H301.455V123.773ZM309.773 94.4091H331.455V92.4091H309.773V94.4091ZM332.455 93.4091V53.4545H330.455V93.4091H332.455ZM331.455 52.4545H317.409V54.4545H331.455V52.4545ZM316.412 53.3786L315.321 67.6968L317.315 67.8487L318.406 53.5305L316.412 53.3786ZM315.321 67.6985C315.005 71.9407 314.521 75.6351 313.873 78.7872L315.832 79.1901C316.502 75.933 316.995 72.1502 317.315 67.847L315.321 67.6985ZM313.872 78.7925C313.243 81.9356 312.495 84.6543 311.632 86.9557L313.505 87.6579C314.414 85.2321 315.189 82.4053 315.833 79.1848L313.872 78.7925ZM311.63 86.9607C310.781 89.2606 309.873 91.2407 308.907 92.9081L310.638 93.9101C311.673 92.1229 312.628 90.0348 313.506 87.6529L311.63 86.9607ZM422.409 105.75L421.936 106.631L421.942 106.634L422.409 105.75ZM413.102 96.4773L412.22 96.9481L412.223 96.954L413.102 96.4773ZM413.136 67.7727L414.017 68.2474L414.017 68.2474L413.136 67.7727ZM422.375 58.3295L422.867 59.1999L422.867 59.1999L422.375 58.3295ZM447.193 56.7955L447.551 55.8616L447.551 55.8616L447.193 56.7955ZM455.409 62.1477L454.692 62.8443L454.695 62.8478L455.409 62.1477ZM460.659 70.6023L459.721 70.9492L459.721 70.9492L460.659 70.6023ZM462.5 86.1818V87.1818H463.5V86.1818H462.5ZM415.727 86.1818H414.727V87.1818H415.727V86.1818ZM415.727 75.8182V74.8182H414.727V75.8182H415.727ZM445.182 75.8182V76.8182H446.197L446.182 75.803L445.182 75.8182ZM444.023 71.8636L443.176 72.3951L443.182 72.4049L443.188 72.4145L444.023 71.8636ZM441.057 69.1705L440.584 70.0514L440.593 70.0566L440.603 70.0616L441.057 69.1705ZM432.67 69.1705L433.118 70.0649L433.124 70.0617L433.13 70.0584L432.67 69.1705ZM429.602 71.8295L428.775 71.2672L428.768 71.2787L429.602 71.8295ZM428.409 75.8182L427.41 75.7883L427.409 75.8033V75.8182H428.409ZM429.466 91.5L428.584 91.9714L428.584 91.9714L429.466 91.5ZM432.5 94.6023L432.005 95.4714L432.005 95.4714L432.5 94.6023ZM440.818 95.1818L440.502 94.2331L440.496 94.2352L440.818 95.1818ZM443.614 93.6136L444.275 94.3635L444.281 94.3581L444.287 94.3526L443.614 93.6136ZM445.318 91.0909V90.0909H444.623L444.381 90.7422L445.318 91.0909ZM462.5 91.0909L463.487 91.2513L463.676 90.0909H462.5V91.0909ZM458.307 100.568L459.077 101.206L459.079 101.203L458.307 100.568ZM449.545 106.773L449.919 107.7L449.922 107.699L449.545 106.773ZM436.864 107.955C431.4 107.955 426.749 106.911 422.876 104.866L421.942 106.634C426.16 108.862 431.146 109.955 436.864 109.955V107.955ZM422.882 104.869C419.032 102.802 416.07 99.8522 413.981 96.0005L412.223 96.954C414.498 101.148 417.741 104.38 421.936 106.631L422.882 104.869ZM413.984 96.0064C411.919 92.1354 410.864 87.4638 410.864 81.9545H408.864C408.864 87.718 409.968 92.7282 412.22 96.9481L413.984 96.0064ZM410.864 81.9545C410.864 76.6818 411.926 72.1232 414.017 68.2474L412.256 67.298C409.983 71.5132 408.864 76.4091 408.864 81.9545H410.864ZM414.017 68.2474C416.109 64.3667 419.055 61.3566 422.867 59.1999L421.883 57.4592C417.74 59.8025 414.527 63.0878 412.256 67.298L414.017 68.2474ZM422.867 59.1999C426.669 57.0493 431.186 55.9545 436.455 55.9545V53.9545C430.905 53.9545 426.036 55.1098 421.883 57.4592L422.867 59.1999ZM436.455 55.9545C440.305 55.9545 443.761 56.5519 446.836 57.7293L447.551 55.8616C444.216 54.5845 440.513 53.9545 436.455 53.9545V55.9545ZM446.836 57.7293C449.912 58.9073 452.525 60.6131 454.692 62.8443L456.127 61.4511C453.747 59.0005 450.884 57.1381 447.551 55.8616L446.836 57.7293ZM454.695 62.8478C456.861 65.0566 458.538 67.7512 459.721 70.9492L461.597 70.2554C460.325 66.817 458.503 63.8752 456.123 61.4477L454.695 62.8478ZM459.721 70.9492C460.901 74.1387 461.5 77.7571 461.5 81.8182H463.5C463.5 77.5611 462.872 73.7022 461.597 70.2554L459.721 70.9492ZM461.5 81.8182V86.1818H463.5V81.8182H461.5ZM462.5 85.1818H415.727V87.1818H462.5V85.1818ZM416.727 86.1818V75.8182H414.727V86.1818H416.727ZM415.727 76.8182H445.182V74.8182H415.727V76.8182ZM446.182 75.803C446.156 74.1325 445.723 72.6243 444.857 71.3128L443.188 72.4145C443.823 73.3757 444.162 74.5039 444.182 75.8333L446.182 75.803ZM444.87 71.3321C444.044 70.0158 442.918 68.9956 441.511 68.2793L440.603 70.0616C441.696 70.6181 442.547 71.3933 443.176 72.3951L444.87 71.3321ZM441.53 68.2895C440.14 67.5429 438.576 67.1818 436.864 67.1818V69.1818C438.288 69.1818 439.519 69.4799 440.584 70.0514L441.53 68.2895ZM436.864 67.1818C435.191 67.1818 433.634 67.5452 432.211 68.2825L433.13 70.0584C434.252 69.4775 435.491 69.1818 436.864 69.1818V67.1818ZM432.223 68.276C430.803 68.986 429.648 69.9844 428.775 71.2672L430.429 72.3919C431.102 71.402 431.992 70.6276 433.118 70.0649L432.223 68.276ZM428.768 71.2787C427.904 72.588 427.46 74.1027 427.41 75.7883L429.409 75.848C429.449 74.4882 429.801 73.3438 430.437 72.3804L428.768 71.2787ZM427.409 75.8182V87H429.409V75.8182H427.409ZM427.409 87C427.409 88.8254 427.793 90.4908 428.584 91.9714L430.348 91.0286C429.73 89.8728 429.409 88.5383 429.409 87H427.409ZM428.584 91.9714C429.379 93.4586 430.526 94.6295 432.005 95.4714L432.995 93.7331C431.838 93.075 430.962 92.1777 430.348 91.0286L428.584 91.9714ZM432.005 95.4714C433.505 96.3248 435.275 96.7273 437.273 96.7273V94.7273C435.543 94.7273 434.131 94.3798 432.995 93.7331L432.005 95.4714ZM437.273 96.7273C438.662 96.7273 439.954 96.5322 441.14 96.1285L440.496 94.2352C439.546 94.5587 438.475 94.7273 437.273 94.7273V96.7273ZM441.134 96.1305C442.338 95.7294 443.391 95.1438 444.275 94.3635L442.952 92.8638C442.291 93.4471 441.48 93.907 440.502 94.2331L441.134 96.1305ZM444.287 94.3526C445.177 93.5411 445.836 92.5665 446.255 91.4396L444.381 90.7422C444.073 91.5698 443.595 92.2771 442.94 92.8747L444.287 94.3526ZM445.318 92.0909H462.5V90.0909H445.318V92.0909ZM461.513 90.9305C460.949 94.4036 459.62 97.3962 457.534 99.9332L459.079 101.203C461.403 98.3765 462.87 95.051 463.487 91.2513L461.513 90.9305ZM457.537 99.9299C455.451 102.446 452.674 104.423 449.169 105.846L449.922 107.699C453.69 106.168 456.753 104.009 459.077 101.206L457.537 99.9299ZM449.172 105.845C445.702 107.242 441.607 107.955 436.864 107.955V109.955C441.802 109.955 446.162 109.213 449.919 107.7L449.172 105.845ZM528.815 105.58L528.326 106.451L528.329 106.453L528.815 105.58ZM519.509 96.1023L518.625 96.5711L518.626 96.5731L519.509 96.1023ZM519.509 67.8409L520.391 68.3118L520.392 68.3097L519.509 67.8409ZM528.815 58.3636L529.301 59.2376L529.305 59.2355L528.815 58.3636ZM556.736 57.75L556.291 58.6455L556.297 58.6487L556.736 57.75ZM565.497 65.5909L564.644 66.1121L564.645 66.1147L565.497 65.5909ZM568.634 77.4545V78.4545H569.639L569.634 77.4495L568.634 77.4545ZM551.179 77.4545L550.183 77.5451L550.266 78.4545H551.179V77.4545ZM548.793 71.1818L548.052 71.8533L548.057 71.8594L548.063 71.8654L548.793 71.1818ZM539.384 70.4318L539.988 71.2283L539.997 71.2212L539.384 70.4318ZM536.52 74.6932L537.46 75.0331L537.462 75.0295L536.52 74.6932ZM536.52 88.9773L535.578 89.3136L535.579 89.3172L536.52 88.9773ZM539.384 93.2386L538.77 94.028L538.779 94.0351L539.384 93.2386ZM547.361 93.6818L547.873 94.5409L547.879 94.5369L547.886 94.5329L547.361 93.6818ZM549.952 90.8182L549.07 90.3459L549.067 90.3518L549.952 90.8182ZM551.179 86.1818V85.1818H550.251L550.182 86.107L551.179 86.1818ZM568.634 86.1818L569.633 86.1966L569.648 85.1818H568.634V86.1818ZM565.463 98.25L566.321 98.7645L566.322 98.762L565.463 98.25ZM556.77 106.159L556.325 105.264L556.323 105.265L556.77 106.159ZM543.406 107.955C537.856 107.955 533.168 106.856 529.301 104.706L528.329 106.453C532.554 108.803 537.593 109.955 543.406 109.955V107.955ZM529.305 104.708C525.424 102.527 522.459 99.5064 520.391 95.6314L518.626 96.5731C520.876 100.789 524.116 104.086 528.326 106.451L529.305 104.708ZM520.392 95.6335C518.321 91.7318 517.27 87.1817 517.27 81.9545H515.27C515.27 87.4546 516.378 92.3364 518.625 96.5711L520.392 95.6335ZM517.27 81.9545C517.27 76.7272 518.321 72.1895 520.391 68.3118L518.626 67.3701C516.378 71.5832 515.27 76.4546 515.27 81.9545H517.27ZM520.392 68.3097C522.46 64.413 525.424 61.3942 529.301 59.2376L528.329 57.4897C524.116 59.8331 520.875 63.1324 518.625 67.3721L520.392 68.3097ZM529.305 59.2355C533.171 57.0637 537.858 55.9545 543.406 55.9545V53.9545C537.591 53.9545 532.551 55.1181 528.326 57.4918L529.305 59.2355ZM543.406 55.9545C548.423 55.9545 552.707 56.8644 556.291 58.6455L557.181 56.8545C553.265 54.9083 548.663 53.9545 543.406 53.9545V55.9545ZM556.297 58.6487C559.909 60.411 562.681 62.8982 564.644 66.1121L566.351 65.0697C564.177 61.5109 561.108 58.7708 557.174 56.8513L556.297 58.6487ZM564.645 66.1147C566.604 69.2998 567.612 73.0691 567.634 77.4595L569.634 77.4495C569.61 72.7491 568.527 68.6093 566.349 65.0671L564.645 66.1147ZM568.634 76.4545H551.179V78.4545H568.634V76.4545ZM552.175 77.364C551.913 74.4807 551.067 72.1473 549.523 70.4983L548.063 71.8654C549.2 73.0799 549.945 74.9284 550.183 77.5451L552.175 77.364ZM549.534 70.5103C548.012 68.8317 546.031 68 543.679 68V70C545.508 70 546.936 70.6228 548.052 71.8533L549.534 70.5103ZM543.679 68C541.833 68 540.182 68.5439 538.77 69.6425L539.997 71.2212C541.04 70.4106 542.252 70 543.679 70V68ZM538.779 69.6354C537.355 70.7163 536.305 72.3216 535.578 74.3568L537.462 75.0295C538.098 73.2466 538.957 72.0109 539.988 71.2283L538.779 69.6354ZM535.579 74.3533C534.845 76.3844 534.497 78.8841 534.497 81.8182H536.497C536.497 79.025 536.831 76.7747 537.46 75.0331L535.579 74.3533ZM534.497 81.8182C534.497 84.7529 534.845 87.2621 535.578 89.3136L537.462 88.6409C536.831 86.8743 536.497 84.6107 536.497 81.8182H534.497ZM535.579 89.3172C536.307 91.3304 537.356 92.9283 538.77 94.028L539.997 92.4493C538.957 91.6399 538.096 90.3969 537.46 88.6373L535.579 89.3172ZM538.779 94.0351C540.191 95.1074 541.839 95.6364 543.679 95.6364V93.6364C542.247 93.6364 541.03 93.2335 539.988 92.4422L538.779 94.0351ZM543.679 95.6364C545.224 95.6364 546.632 95.2798 547.873 94.5409L546.849 92.8227C545.953 93.3566 544.906 93.6364 543.679 93.6364V95.6364ZM547.886 94.5329C549.125 93.7686 550.105 92.6723 550.836 91.2846L549.067 90.3518C548.481 91.4641 547.733 92.2769 546.836 92.8308L547.886 94.5329ZM550.833 91.2904C551.596 89.8669 552.032 88.1786 552.176 86.2566L550.182 86.107C550.053 87.8214 549.671 89.224 549.07 90.346L550.833 91.2904ZM551.179 87.1818H568.634V85.1818H551.179V87.1818ZM567.634 86.167C567.568 90.6329 566.547 94.4787 564.604 97.738L566.322 98.762C568.47 95.1577 569.563 90.958 569.633 86.1966L567.634 86.167ZM564.606 97.7355C562.664 100.972 559.913 103.48 556.325 105.264L557.215 107.055C561.126 105.111 564.171 102.346 566.321 98.7645L564.606 97.7355ZM556.323 105.265C552.764 107.044 548.47 107.955 543.406 107.955V109.955C548.706 109.955 553.321 109.001 557.217 107.054L556.323 105.265ZM688.216 38.1818H689.216V37.1818H688.216V38.1818ZM688.216 108V109H689.216V108H688.216ZM669.534 108H668.534V109H669.534V108ZM669.534 53.1818H670.534V52.1818H669.534V53.1818ZM645.943 53.1818V52.1818H644.943V53.1818H645.943ZM645.943 108V109H646.943V108H645.943ZM627.261 108H626.261V109H627.261V108ZM627.261 38.1818V37.1818H626.261V38.1818H627.261ZM687.216 38.1818V108H689.216V38.1818H687.216ZM688.216 107H669.534V109H688.216V107ZM670.534 108V53.1818H668.534V108H670.534ZM669.534 52.1818H645.943V54.1818H669.534V52.1818ZM644.943 53.1818V108H646.943V53.1818H644.943ZM645.943 107H627.261V109H645.943V107ZM628.261 108V38.1818H626.261V108H628.261ZM627.261 39.1818H688.216V37.1818H627.261V39.1818ZM759.253 105.75L758.78 106.631L758.786 106.634L759.253 105.75ZM749.946 96.4773L749.064 96.9481L749.067 96.954L749.946 96.4773ZM749.98 67.7727L750.86 68.2474L750.86 68.2474L749.98 67.7727ZM759.219 58.3295L759.711 59.1999L759.711 59.1999L759.219 58.3295ZM784.037 56.7955L784.395 55.8616L784.395 55.8616L784.037 56.7955ZM792.253 62.1477L791.535 62.8443L791.539 62.8478L792.253 62.1477ZM797.503 70.6023L796.565 70.9492L796.565 70.9492L797.503 70.6023ZM799.344 86.1818V87.1818H800.344V86.1818H799.344ZM752.571 86.1818H751.571V87.1818H752.571V86.1818ZM752.571 75.8182V74.8182H751.571V75.8182H752.571ZM782.026 75.8182V76.8182H783.041L783.025 75.803L782.026 75.8182ZM780.866 71.8636L780.019 72.3951L780.026 72.4049L780.032 72.4145L780.866 71.8636ZM777.901 69.1705L777.427 70.0514L777.437 70.0566L777.447 70.0616L777.901 69.1705ZM769.514 69.1705L769.961 70.0649L769.968 70.0617L769.974 70.0584L769.514 69.1705ZM766.446 71.8295L765.619 71.2672L765.611 71.2787L766.446 71.8295ZM765.253 75.8182L764.253 75.7883L764.253 75.8033V75.8182H765.253ZM766.31 91.5L765.428 91.9714L765.428 91.9714L766.31 91.5ZM769.344 94.6023L768.849 95.4714L768.849 95.4714L769.344 94.6023ZM777.662 95.1818L777.346 94.2331L777.34 94.2352L777.662 95.1818ZM780.457 93.6136L781.119 94.3635L781.125 94.3581L781.131 94.3526L780.457 93.6136ZM782.162 91.0909V90.0909H781.467L781.225 90.7422L782.162 91.0909ZM799.344 91.0909L800.331 91.2513L800.519 90.0909H799.344V91.0909ZM795.151 100.568L795.92 101.206L795.923 101.203L795.151 100.568ZM786.389 106.773L786.763 107.7L786.766 107.699L786.389 106.773ZM773.707 107.955C768.244 107.955 763.593 106.911 759.72 104.866L758.786 106.634C763.004 108.862 767.989 109.955 773.707 109.955V107.955ZM759.726 104.869C755.875 102.802 752.914 99.8522 750.825 96.0005L749.067 96.954C751.342 101.148 754.585 104.38 758.78 106.631L759.726 104.869ZM750.828 96.0064C748.762 92.1354 747.707 87.4638 747.707 81.9545H745.707C745.707 87.718 746.812 92.7282 749.064 96.9481L750.828 96.0064ZM747.707 81.9545C747.707 76.6818 748.77 72.1232 750.86 68.2474L749.1 67.298C746.827 71.5132 745.707 76.4091 745.707 81.9545H747.707ZM750.86 68.2474C752.953 64.3667 755.899 61.3566 759.711 59.1999L758.726 57.4592C754.584 59.8025 751.371 63.0878 749.1 67.298L750.86 68.2474ZM759.711 59.1999C763.513 57.0493 768.03 55.9545 773.298 55.9545V53.9545C767.748 53.9545 762.879 55.1098 758.726 57.4592L759.711 59.1999ZM773.298 55.9545C777.149 55.9545 780.605 56.5519 783.679 57.7293L784.395 55.8616C781.06 54.5845 777.357 53.9545 773.298 53.9545V55.9545ZM783.679 57.7293C786.755 58.9073 789.369 60.6131 791.535 62.8443L792.97 61.4511C790.591 59.0005 787.728 57.1381 784.395 55.8616L783.679 57.7293ZM791.539 62.8478C793.704 65.0566 795.382 67.7512 796.565 70.9492L798.441 70.2554C797.169 66.817 795.347 63.8752 792.967 61.4477L791.539 62.8478ZM796.565 70.9492C797.745 74.1387 798.344 77.7571 798.344 81.8182H800.344C800.344 77.5611 799.716 73.7022 798.441 70.2554L796.565 70.9492ZM798.344 81.8182V86.1818H800.344V81.8182H798.344ZM799.344 85.1818H752.571V87.1818H799.344V85.1818ZM753.571 86.1818V75.8182H751.571V86.1818H753.571ZM752.571 76.8182H782.026V74.8182H752.571V76.8182ZM783.025 75.803C783 74.1325 782.567 72.6243 781.701 71.3128L780.032 72.4145C780.666 73.3757 781.006 74.5039 781.026 75.8333L783.025 75.803ZM781.714 71.3321C780.888 70.0158 779.761 68.9956 778.354 68.2793L777.447 70.0616C778.54 70.6181 779.391 71.3933 780.019 72.3951L781.714 71.3321ZM778.374 68.2895C776.983 67.5429 775.42 67.1818 773.707 67.1818V69.1818C775.132 69.1818 776.363 69.4799 777.427 70.0514L778.374 68.2895ZM773.707 67.1818C772.035 67.1818 770.478 67.5452 769.054 68.2825L769.974 70.0584C771.096 69.4775 772.334 69.1818 773.707 69.1818V67.1818ZM769.067 68.276C767.647 68.986 766.491 69.9844 765.619 71.2672L767.273 72.3919C767.946 71.402 768.836 70.6276 769.961 70.0649L769.067 68.276ZM765.611 71.2787C764.747 72.588 764.304 74.1027 764.253 75.7883L766.252 75.848C766.293 74.4882 766.645 73.3438 767.281 72.3804L765.611 71.2787ZM764.253 75.8182V87H766.253V75.8182H764.253ZM764.253 87C764.253 88.8254 764.636 90.4908 765.428 91.9714L767.192 91.0286C766.574 89.8728 766.253 88.5383 766.253 87H764.253ZM765.428 91.9714C766.223 93.4586 767.369 94.6295 768.849 95.4714L769.838 93.7331C768.682 93.075 767.806 92.1777 767.192 91.0286L765.428 91.9714ZM768.849 95.4714C770.349 96.3248 772.119 96.7273 774.116 96.7273V94.7273C772.387 94.7273 770.975 94.3798 769.838 93.7331L768.849 95.4714ZM774.116 96.7273C775.506 96.7273 776.798 96.5322 777.984 96.1285L777.34 94.2352C776.389 94.5587 775.318 94.7273 774.116 94.7273V96.7273ZM777.978 96.1305C779.182 95.7294 780.235 95.1438 781.119 94.3635L779.796 92.8638C779.135 93.4471 778.324 93.907 777.346 94.2331L777.978 96.1305ZM781.131 94.3526C782.021 93.5411 782.68 92.5665 783.099 91.4396L781.225 90.7422C780.917 91.5698 780.439 92.2771 779.784 92.8747L781.131 94.3526ZM782.162 92.0909H799.344V90.0909H782.162V92.0909ZM798.357 90.9305C797.792 94.4036 796.464 97.3962 794.378 99.9332L795.923 101.203C798.247 98.3765 799.713 95.051 800.331 91.2513L798.357 90.9305ZM794.381 99.9299C792.295 102.446 789.517 104.423 786.013 105.846L786.766 107.699C790.534 106.168 793.597 104.009 795.92 101.206L794.381 99.9299ZM786.016 105.845C782.546 107.242 778.45 107.955 773.707 107.955V109.955C778.646 109.955 783.005 109.213 786.763 107.7L786.016 105.845ZM855.023 127.636H854.023V128.636H855.023V127.636ZM855.023 55.6364V54.6364H854.023V55.6364H855.023ZM873.705 55.6364H874.705V54.6364H873.705V55.6364ZM873.705 64.7727H872.705V65.7727H873.705V64.7727ZM874.114 64.7727V65.7727H874.8L875.047 65.1317L874.114 64.7727ZM877.114 59.8977L877.86 60.5635L877.865 60.5578L877.114 59.8977ZM882.023 56.3182L882.436 57.2289L882.444 57.2249L882.023 56.3182ZM898.693 57.7159L898.184 58.5767L898.187 58.5783L898.693 57.7159ZM906.33 66.4091L905.433 66.8522L905.435 66.8563L906.33 66.4091ZM906.466 96.8523L905.562 96.4237L905.56 96.428L906.466 96.8523ZM898.966 105.75L898.437 104.901L898.434 104.903L898.966 105.75ZM882.125 107.489L881.731 108.408L881.738 108.411L881.744 108.413L882.125 107.489ZM877.216 104.182L876.491 104.871L876.497 104.877L876.503 104.883L877.216 104.182ZM874.114 99.4091L875.039 99.0295L874.784 98.4091H874.114V99.4091ZM873.841 99.4091V98.4091H872.841V99.4091H873.841ZM873.841 127.636V128.636H874.841V127.636H873.841ZM874.42 88.4318L873.478 88.7652L873.48 88.7722L873.483 88.7791L874.42 88.4318ZM877.284 92.7273L876.644 93.4955L876.652 93.5019L876.659 93.5081L877.284 92.7273ZM886.148 92.7614L886.778 93.5379L886.779 93.5366L886.148 92.7614ZM888.943 88.5L888 88.1666L887.998 88.1733L888.943 88.5ZM888.943 75.1705L887.997 75.4936L887.999 75.5006L888.002 75.5075L888.943 75.1705ZM886.148 70.9091L885.509 71.6785L885.517 71.685L885.525 71.6914L886.148 70.9091ZM877.284 70.9091L877.907 71.6914L877.909 71.69L877.284 70.9091ZM874.42 75.1705L873.481 74.8269L873.479 74.8334L874.42 75.1705ZM856.023 127.636V55.6364H854.023V127.636H856.023ZM855.023 56.6364H873.705V54.6364H855.023V56.6364ZM872.705 55.6364V64.7727H874.705V55.6364H872.705ZM873.705 65.7727H874.114V63.7727H873.705V65.7727ZM875.047 65.1317C875.684 63.4765 876.619 61.9545 877.86 60.5635L876.367 59.2319C874.972 60.7955 873.907 62.5235 873.18 64.4137L875.047 65.1317ZM877.865 60.5578C879.082 59.1722 880.601 58.0611 882.436 57.2289L881.61 55.4074C879.536 56.348 877.781 57.6232 876.362 59.2376L877.865 60.5578ZM882.444 57.2249C884.243 56.3884 886.367 55.9545 888.841 55.9545V53.9545C886.133 53.9545 883.712 54.4298 881.601 55.4115L882.444 57.2249ZM888.841 55.9545C892.108 55.9545 895.217 56.8225 898.184 58.5767L899.202 56.8551C895.942 54.9275 892.483 53.9545 888.841 53.9545V55.9545ZM898.187 58.5783C901.122 60.3012 903.546 63.0349 905.433 66.8522L907.226 65.966C905.204 61.8742 902.537 58.8124 899.199 56.8535L898.187 58.5783ZM905.435 66.8563C907.32 70.6255 908.295 75.5931 908.295 81.8182H910.295C910.295 75.4069 909.294 70.1018 907.224 65.9619L905.435 66.8563ZM908.295 81.8182C908.295 87.7676 907.366 92.6207 905.562 96.4237L907.369 97.2808C909.338 93.1293 910.295 87.9597 910.295 81.8182H908.295ZM905.56 96.428C903.763 100.264 901.381 103.067 898.437 104.901L899.495 106.599C902.824 104.524 905.442 101.395 907.371 97.2766L905.56 96.428ZM898.434 104.903C895.482 106.756 892.246 107.682 888.705 107.682V109.682C892.617 109.682 896.222 108.653 899.498 106.597L898.434 104.903ZM888.705 107.682C886.358 107.682 884.298 107.302 882.506 106.564L881.744 108.413C883.816 109.266 886.142 109.682 888.705 109.682V107.682ZM882.519 106.569C880.721 105.799 879.195 104.768 877.929 103.481L876.503 104.883C877.964 106.368 879.711 107.542 881.731 108.408L882.519 106.569ZM877.94 103.492C876.684 102.172 875.718 100.686 875.039 99.0295L873.188 99.7886C873.964 101.678 875.066 103.374 876.491 104.871L877.94 103.492ZM874.114 98.4091H873.841V100.409H874.114V98.4091ZM872.841 99.4091V127.636H874.841V99.4091H872.841ZM873.841 126.636H855.023V128.636H873.841V126.636ZM872.432 81.8182C872.432 84.4462 872.772 86.7687 873.478 88.7652L875.363 88.0984C874.751 86.3676 874.432 84.2811 874.432 81.8182H872.432ZM873.483 88.7791C874.211 90.7467 875.255 92.3379 876.644 93.4955L877.924 91.9591C876.859 91.0712 875.993 89.7988 875.358 88.0845L873.483 88.7791ZM876.659 93.5081C878.101 94.6615 879.815 95.2273 881.75 95.2273V93.2273C880.231 93.2273 878.967 92.793 877.909 91.9464L876.659 93.5081ZM881.75 95.2273C883.679 95.2273 885.375 94.6763 886.778 93.5379L885.518 91.9848C884.512 92.801 883.276 93.2273 881.75 93.2273V95.2273ZM886.779 93.5366C888.181 92.3948 889.205 90.8029 889.888 88.8267L887.998 88.1733C887.408 89.8789 886.569 91.128 885.516 91.9861L886.779 93.5366ZM889.886 88.8334C890.593 86.8353 890.932 84.4894 890.932 81.8182H888.932C888.932 84.3288 888.612 86.4375 888 88.1666L889.886 88.8334ZM890.932 81.8182C890.932 79.1475 890.593 76.8112 889.885 74.8334L888.002 75.5075C888.612 77.2115 888.932 79.307 888.932 81.8182H890.932ZM889.89 74.8473C889.207 72.8488 888.181 71.2501 886.771 70.1268L885.525 71.6914C886.569 72.5226 887.407 73.7648 887.997 75.4936L889.89 74.8473ZM886.786 70.1397C885.384 68.975 883.685 68.4091 881.75 68.4091V70.4091C883.27 70.4091 884.503 70.8432 885.509 71.6785L886.786 70.1397ZM881.75 68.4091C879.815 68.4091 878.101 68.9748 876.659 70.1282L877.909 71.69C878.967 70.8434 880.231 70.4091 881.75 70.4091V68.4091ZM876.661 70.1268C875.257 71.2452 874.21 72.8359 873.481 74.8269L875.36 75.514C875.995 73.7777 876.857 72.5276 877.907 71.6914L876.661 70.1268ZM873.479 74.8334C872.771 76.8112 872.432 79.1475 872.432 81.8182H874.432C874.432 79.307 874.752 77.2115 875.362 75.5075L873.479 74.8334ZM975.815 105.58L975.326 106.451L975.329 106.453L975.815 105.58ZM966.509 96.1023L965.625 96.5711L965.626 96.5731L966.509 96.1023ZM966.509 67.8409L967.391 68.3118L967.392 68.3097L966.509 67.8409ZM975.815 58.3636L976.301 59.2376L976.305 59.2355L975.815 58.3636ZM1003.74 57.75L1003.29 58.6455L1003.3 58.6487L1003.74 57.75ZM1012.5 65.5909L1011.64 66.1121L1011.65 66.1147L1012.5 65.5909ZM1015.63 77.4545V78.4545H1016.64L1016.63 77.4495L1015.63 77.4545ZM998.179 77.4545L997.183 77.5451L997.266 78.4545H998.179V77.4545ZM995.793 71.1818L995.052 71.8533L995.057 71.8594L995.063 71.8654L995.793 71.1818ZM986.384 70.4318L986.988 71.2283L986.997 71.2212L986.384 70.4318ZM983.52 74.6932L984.46 75.0331L984.462 75.0295L983.52 74.6932ZM983.52 88.9773L982.578 89.3136L982.579 89.3172L983.52 88.9773ZM986.384 93.2386L985.77 94.028L985.779 94.0351L986.384 93.2386ZM994.361 93.6818L994.873 94.5409L994.879 94.5369L994.886 94.5329L994.361 93.6818ZM996.952 90.8182L996.07 90.3459L996.067 90.3518L996.952 90.8182ZM998.179 86.1818V85.1818H997.251L997.182 86.107L998.179 86.1818ZM1015.63 86.1818L1016.63 86.1966L1016.65 85.1818H1015.63V86.1818ZM1012.46 98.25L1013.32 98.7645L1013.32 98.762L1012.46 98.25ZM1003.77 106.159L1003.32 105.264L1003.32 105.265L1003.77 106.159ZM990.406 107.955C984.856 107.955 980.168 106.856 976.301 104.706L975.329 106.453C979.554 108.803 984.593 109.955 990.406 109.955V107.955ZM976.305 104.708C972.424 102.527 969.459 99.5064 967.391 95.6314L965.626 96.5731C967.876 100.789 971.116 104.086 975.326 106.451L976.305 104.708ZM967.392 95.6335C965.321 91.7318 964.27 87.1817 964.27 81.9545H962.27C962.27 87.4546 963.378 92.3364 965.625 96.5711L967.392 95.6335ZM964.27 81.9545C964.27 76.7272 965.321 72.1895 967.391 68.3118L965.626 67.3701C963.378 71.5832 962.27 76.4546 962.27 81.9545H964.27ZM967.392 68.3097C969.46 64.413 972.424 61.3942 976.301 59.2376L975.329 57.4897C971.116 59.8331 967.875 63.1324 965.625 67.3721L967.392 68.3097ZM976.305 59.2355C980.171 57.0637 984.858 55.9545 990.406 55.9545V53.9545C984.591 53.9545 979.551 55.1181 975.326 57.4918L976.305 59.2355ZM990.406 55.9545C995.423 55.9545 999.707 56.8644 1003.29 58.6455L1004.18 56.8545C1000.26 54.9083 995.663 53.9545 990.406 53.9545V55.9545ZM1003.3 58.6487C1006.91 60.411 1009.68 62.8982 1011.64 66.1121L1013.35 65.0697C1011.18 61.5109 1008.11 58.7708 1004.17 56.8513L1003.3 58.6487ZM1011.65 66.1147C1013.6 69.2998 1014.61 73.0691 1014.63 77.4595L1016.63 77.4495C1016.61 72.7491 1015.53 68.6093 1013.35 65.0671L1011.65 66.1147ZM1015.63 76.4545H998.179V78.4545H1015.63V76.4545ZM999.175 77.364C998.913 74.4807 998.067 72.1473 996.523 70.4983L995.063 71.8654C996.2 73.0799 996.945 74.9284 997.183 77.5451L999.175 77.364ZM996.534 70.5103C995.012 68.8317 993.031 68 990.679 68V70C992.508 70 993.936 70.6228 995.052 71.8533L996.534 70.5103ZM990.679 68C988.833 68 987.182 68.5439 985.77 69.6425L986.997 71.2212C988.04 70.4106 989.252 70 990.679 70V68ZM985.779 69.6354C984.355 70.7163 983.305 72.3216 982.578 74.3568L984.462 75.0295C985.098 73.2466 985.957 72.0109 986.988 71.2283L985.779 69.6354ZM982.579 74.3533C981.845 76.3844 981.497 78.8841 981.497 81.8182H983.497C983.497 79.025 983.831 76.7747 984.46 75.0331L982.579 74.3533ZM981.497 81.8182C981.497 84.7529 981.845 87.2621 982.578 89.3136L984.462 88.6409C983.831 86.8743 983.497 84.6107 983.497 81.8182H981.497ZM982.579 89.3172C983.307 91.3304 984.356 92.9283 985.77 94.028L986.997 92.4493C985.957 91.6399 985.096 90.3969 984.46 88.6373L982.579 89.3172ZM985.779 94.0351C987.191 95.1074 988.839 95.6364 990.679 95.6364V93.6364C989.247 93.6364 988.03 93.2335 986.988 92.4422L985.779 94.0351ZM990.679 95.6364C992.224 95.6364 993.632 95.2798 994.873 94.5409L993.849 92.8227C992.953 93.3566 991.906 93.6364 990.679 93.6364V95.6364ZM994.886 94.5329C996.125 93.7686 997.105 92.6723 997.836 91.2846L996.067 90.3518C995.481 91.4641 994.733 92.2769 993.836 92.8308L994.886 94.5329ZM997.833 91.2904C998.596 89.8669 999.032 88.1786 999.176 86.2566L997.182 86.107C997.053 87.8214 996.671 89.224 996.07 90.346L997.833 91.2904ZM998.179 87.1818H1015.63V85.1818H998.179V87.1818ZM1014.63 86.167C1014.57 90.6329 1013.55 94.4787 1011.6 97.738L1013.32 98.762C1015.47 95.1577 1016.56 90.958 1016.63 86.1966L1014.63 86.167ZM1011.61 97.7355C1009.66 100.972 1006.91 103.48 1003.32 105.264L1004.21 107.055C1008.13 105.111 1011.17 102.346 1013.32 98.7645L1011.61 97.7355ZM1003.32 105.265C999.764 107.044 995.47 107.955 990.406 107.955V109.955C995.706 109.955 1000.32 109.001 1004.22 107.054L1003.32 105.265Z" fill="white"/>
    <line y1="70.5" x2="200" y2="70.5" stroke="white" stroke-width="5"/>
    <line x1="1100" y1="70.5" x2="1300" y2="70.5" stroke="white" stroke-width="5"/>
</svg>
