<svg width="756" height="78" viewBox="0 0 756 78" fill="none" xmlns="http://www.w3.org/2000/svg">
    <path d="M45.832 7.8L32.68 33.048L19.528 7.8H0.904L24.424 47.736V75H40.936V47.64L64.456 7.8H45.832ZM57.8845 52.92C57.8845 57.528 58.9725 61.56 61.1485 65.016C63.3245 68.472 66.3325 71.16 70.1725 73.08C74.0125 75 78.3325 75.96 83.1325 75.96C87.9325 75.96 92.2205 75 95.9965 73.08C99.8365 71.16 102.845 68.472 105.021 65.016C107.261 61.56 108.381 57.528 108.381 52.92C108.381 48.248 107.261 44.184 105.021 40.728C102.845 37.272 99.8365 34.584 95.9965 32.664C92.2205 30.744 87.9325 29.784 83.1325 29.784C78.3325 29.784 74.0125 30.744 70.1725 32.664C66.3325 34.584 63.3245 37.272 61.1485 40.728C58.9725 44.184 57.8845 48.248 57.8845 52.92ZM72.7645 52.92C72.7645 50.616 73.2445 48.632 74.2045 46.968C75.1645 45.304 76.4125 44.024 77.9485 43.128C79.4845 42.232 81.2125 41.784 83.1325 41.784C84.9885 41.784 86.6845 42.232 88.2205 43.128C89.8205 44.024 91.0685 45.304 91.9645 46.968C92.9245 48.632 93.4045 50.616 93.4045 52.92C93.4045 55.224 92.9245 57.208 91.9645 58.872C91.0685 60.472 89.8205 61.72 88.2205 62.616C86.6845 63.512 84.9885 63.96 83.1325 63.96C81.2125 63.96 79.4845 63.512 77.9485 62.616C76.4125 61.72 75.1645 60.472 74.2045 58.872C73.2445 57.208 72.7645 55.224 72.7645 52.92ZM132.27 57.72V30.84H117.102V59.256C117.102 64.504 118.35 68.632 120.846 71.64C123.406 74.584 127.438 76.056 132.942 76.056C136.206 76.056 138.926 75.384 141.102 74.04C143.278 72.632 145.038 70.744 146.382 68.376V75H160.878V30.84H146.382V57.72C146.382 59.448 146.062 60.92 145.422 62.136C144.782 63.352 143.886 64.28 142.734 64.92C141.646 65.56 140.302 65.88 138.702 65.88C136.334 65.88 134.67 65.176 133.71 63.768C132.75 62.296 132.27 60.28 132.27 57.72ZM362.09 51.384L350.762 59.544C352.298 62.744 354.442 65.688 357.194 68.376C359.946 71.064 363.178 73.208 366.89 74.808C370.666 76.344 374.73 77.112 379.082 77.112C382.218 77.112 385.258 76.632 388.202 75.672C391.21 74.776 393.866 73.432 396.17 71.64C398.538 69.848 400.394 67.64 401.738 65.016C403.146 62.328 403.85 59.288 403.85 55.896C403.85 53.08 403.402 50.584 402.506 48.408C401.61 46.232 400.362 44.312 398.762 42.648C397.226 40.984 395.434 39.576 393.386 38.424C391.338 37.208 389.13 36.152 386.762 35.256C383.626 34.168 380.938 33.144 378.698 32.184C376.522 31.224 374.826 30.168 373.61 29.016C372.458 27.864 371.882 26.52 371.882 24.984C371.882 23.512 372.49 22.296 373.706 21.336C374.922 20.312 376.682 19.8 378.986 19.8C380.714 19.8 382.314 20.152 383.786 20.856C385.322 21.496 386.698 22.424 387.914 23.64C389.194 24.792 390.314 26.168 391.274 27.768L403.658 20.856C402.506 18.552 400.842 16.28 398.666 14.04C396.49 11.8 393.738 9.944 390.41 8.472C387.146 7 383.274 6.264 378.794 6.264C374.442 6.264 370.474 7.032 366.89 8.568C363.37 10.04 360.554 12.216 358.442 15.096C356.394 17.976 355.37 21.4 355.37 25.368C355.37 28.696 355.978 31.544 357.194 33.912C358.41 36.216 359.946 38.2 361.802 39.864C363.658 41.464 365.61 42.776 367.658 43.8C369.77 44.824 371.626 45.624 373.226 46.2C376.49 47.416 379.114 48.504 381.098 49.464C383.082 50.424 384.522 51.448 385.418 52.536C386.314 53.56 386.762 54.936 386.762 56.664C386.762 58.712 385.994 60.344 384.458 61.56C382.922 62.712 380.97 63.288 378.602 63.288C376.362 63.288 374.218 62.808 372.17 61.848C370.186 60.888 368.33 59.512 366.602 57.72C364.938 55.928 363.434 53.816 362.09 51.384ZM410.666 52.92C410.666 57.528 411.754 61.56 413.93 65.016C416.106 68.472 419.114 71.16 422.954 73.08C426.794 75 431.114 75.96 435.914 75.96C440.714 75.96 445.002 75 448.778 73.08C452.618 71.16 455.626 68.472 457.802 65.016C460.042 61.56 461.162 57.528 461.162 52.92C461.162 48.248 460.042 44.184 457.802 40.728C455.626 37.272 452.618 34.584 448.778 32.664C445.002 30.744 440.714 29.784 435.914 29.784C431.114 29.784 426.794 30.744 422.954 32.664C419.114 34.584 416.106 37.272 413.93 40.728C411.754 44.184 410.666 48.248 410.666 52.92ZM425.546 52.92C425.546 50.616 426.026 48.632 426.986 46.968C427.946 45.304 429.194 44.024 430.73 43.128C432.266 42.232 433.994 41.784 435.914 41.784C437.77 41.784 439.466 42.232 441.002 43.128C442.602 44.024 443.85 45.304 444.746 46.968C445.706 48.632 446.186 50.616 446.186 52.92C446.186 55.224 445.706 57.208 444.746 58.872C443.85 60.472 442.602 61.72 441.002 62.616C439.466 63.512 437.77 63.96 435.914 63.96C433.994 63.96 432.266 63.512 430.73 62.616C429.194 61.72 427.946 60.472 426.986 58.872C426.026 57.208 425.546 55.224 425.546 52.92ZM469.883 0.119997V75H484.475V0.119997H469.883ZM510.926 57.72V30.84H495.758V59.256C495.758 64.504 497.006 68.632 499.502 71.64C502.062 74.584 506.094 76.056 511.598 76.056C514.862 76.056 517.582 75.384 519.758 74.04C521.934 72.632 523.694 70.744 525.038 68.376V75H539.534V30.84H525.038V57.72C525.038 59.448 524.718 60.92 524.078 62.136C523.438 63.352 522.542 64.28 521.39 64.92C520.302 65.56 518.958 65.88 517.358 65.88C514.99 65.88 513.326 65.176 512.366 63.768C511.406 62.296 510.926 60.28 510.926 57.72ZM545.793 30.84V42.84H575.361V30.84H545.793ZM553.569 15.48V75H567.489V15.48H553.569ZM580.675 14.232C580.675 16.536 581.507 18.424 583.171 19.896C584.835 21.368 586.819 22.104 589.123 22.104C591.491 22.104 593.475 21.368 595.075 19.896C596.739 18.424 597.571 16.536 597.571 14.232C597.571 11.928 596.739 10.072 595.075 8.664C593.475 7.192 591.491 6.456 589.123 6.456C586.819 6.456 584.835 7.192 583.171 8.664C581.507 10.072 580.675 11.928 580.675 14.232ZM582.115 30.84V75H596.131V30.84H582.115ZM605.478 52.92C605.478 57.528 606.566 61.56 608.742 65.016C610.918 68.472 613.926 71.16 617.766 73.08C621.606 75 625.926 75.96 630.726 75.96C635.526 75.96 639.814 75 643.59 73.08C647.43 71.16 650.438 68.472 652.614 65.016C654.854 61.56 655.974 57.528 655.974 52.92C655.974 48.248 654.854 44.184 652.614 40.728C650.438 37.272 647.43 34.584 643.59 32.664C639.814 30.744 635.526 29.784 630.726 29.784C625.926 29.784 621.606 30.744 617.766 32.664C613.926 34.584 610.918 37.272 608.742 40.728C606.566 44.184 605.478 48.248 605.478 52.92ZM620.358 52.92C620.358 50.616 620.838 48.632 621.798 46.968C622.758 45.304 624.006 44.024 625.542 43.128C627.078 42.232 628.806 41.784 630.726 41.784C632.582 41.784 634.278 42.232 635.814 43.128C637.414 44.024 638.662 45.304 639.558 46.968C640.518 48.632 640.998 50.616 640.998 52.92C640.998 55.224 640.518 57.208 639.558 58.872C638.662 60.472 637.414 61.72 635.814 62.616C634.278 63.512 632.582 63.96 630.726 63.96C628.806 63.96 627.078 63.512 625.542 62.616C624.006 61.72 622.758 60.472 621.798 58.872C620.838 57.208 620.358 55.224 620.358 52.92ZM693.399 48.12V75H708.471V46.584C708.471 41.272 707.223 37.144 704.727 34.2C702.231 31.256 698.231 29.784 692.727 29.784C689.463 29.784 686.711 30.456 684.471 31.8C682.295 33.144 680.567 35.032 679.287 37.464V30.84H664.695V75H679.287V48.12C679.287 46.392 679.607 44.92 680.247 43.704C680.887 42.488 681.783 41.56 682.935 40.92C684.087 40.28 685.431 39.96 686.967 39.96C689.271 39.96 690.903 40.664 691.863 42.072C692.887 43.48 693.399 45.496 693.399 48.12ZM722.314 58.968L716.266 68.568C718.25 70.104 720.394 71.512 722.698 72.792C725.002 74.008 727.498 74.968 730.186 75.672C732.938 76.44 735.914 76.824 739.114 76.824C744.362 76.824 748.426 75.64 751.306 73.272C754.25 70.84 755.722 67.256 755.722 62.52C755.722 59.768 755.114 57.56 753.898 55.896C752.746 54.232 751.178 52.856 749.194 51.768C747.274 50.68 745.162 49.72 742.858 48.888C740.682 48.056 738.826 47.384 737.29 46.872C735.818 46.296 734.666 45.688 733.834 45.048C733.066 44.408 732.682 43.608 732.682 42.648C732.682 41.816 733.002 41.144 733.642 40.632C734.346 40.12 735.37 39.864 736.714 39.864C738.698 39.864 740.874 40.44 743.242 41.592C745.61 42.68 747.722 44.088 749.578 45.816L754.762 36.408C753.034 35.128 751.178 34.008 749.194 33.048C747.274 32.088 745.194 31.32 742.954 30.744C740.778 30.168 738.41 29.88 735.85 29.88C732.65 29.88 729.802 30.36 727.306 31.32C724.874 32.28 722.922 33.688 721.45 35.544C720.042 37.4 719.338 39.672 719.338 42.36C719.338 45.176 719.946 47.48 721.162 49.272C722.378 51.064 723.914 52.504 725.77 53.592C727.69 54.616 729.706 55.512 731.818 56.28C734.186 56.984 736.042 57.656 737.386 58.296C738.794 58.936 739.786 59.608 740.362 60.312C740.938 60.952 741.226 61.752 741.226 62.712C741.226 63.736 740.874 64.568 740.17 65.208C739.466 65.848 738.378 66.168 736.906 66.168C735.882 66.168 734.666 65.976 733.258 65.592C731.85 65.144 730.218 64.408 728.362 63.384C726.57 62.296 724.554 60.824 722.314 58.968Z" fill="black"/>
    <path d="M240.27 7.8L227.118 33.048L213.966 7.8H195.341L218.862 47.736V75H235.374V47.64L258.894 7.8H240.27ZM273.309 51.384L261.98 59.544C263.517 62.744 265.661 65.688 268.413 68.376C271.165 71.064 274.397 73.208 278.109 74.808C281.885 76.344 285.949 77.112 290.301 77.112C293.437 77.112 296.477 76.632 299.421 75.672C302.429 74.776 305.085 73.432 307.389 71.64C309.757 69.848 311.613 67.64 312.957 65.016C314.365 62.328 315.069 59.288 315.069 55.896C315.069 53.08 314.621 50.584 313.725 48.408C312.829 46.232 311.581 44.312 309.981 42.648C308.445 40.984 306.653 39.576 304.605 38.424C302.557 37.208 300.349 36.152 297.981 35.256C294.845 34.168 292.157 33.144 289.917 32.184C287.741 31.224 286.045 30.168 284.829 29.016C283.677 27.864 283.101 26.52 283.101 24.984C283.101 23.512 283.709 22.296 284.925 21.336C286.141 20.312 287.901 19.8 290.205 19.8C291.933 19.8 293.533 20.152 295.005 20.856C296.541 21.496 297.917 22.424 299.133 23.64C300.413 24.792 301.533 26.168 302.493 27.768L314.877 20.856C313.725 18.552 312.061 16.28 309.885 14.04C307.709 11.8 304.957 9.944 301.629 8.472C298.365 7 294.493 6.264 290.013 6.264C285.661 6.264 281.693 7.032 278.109 8.568C274.589 10.04 271.773 12.216 269.661 15.096C267.613 17.976 266.589 21.4 266.589 25.368C266.589 28.696 267.197 31.544 268.413 33.912C269.629 36.216 271.165 38.2 273.021 39.864C274.877 41.464 276.829 42.776 278.877 43.8C280.989 44.824 282.845 45.624 284.445 46.2C287.709 47.416 290.333 48.504 292.317 49.464C294.301 50.424 295.741 51.448 296.637 52.536C297.533 53.56 297.981 54.936 297.981 56.664C297.981 58.712 297.213 60.344 295.677 61.56C294.141 62.712 292.189 63.288 289.821 63.288C287.581 63.288 285.437 62.808 283.389 61.848C281.405 60.888 279.549 59.512 277.821 57.72C276.157 55.928 274.653 53.816 273.309 51.384Z" fill="#1AAEC4"/>
</svg>
