<svg viewBox="0 0 1173 127" fill="none" xmlns="http://www.w3.org/2000/svg"><path d="m611.621 7.012-31.914 25.932c-5.308 4.3-6.33 12.04-2.308 17.563 4.253 5.888 12.528 7.045 18.232 2.58l32.738-25.535a5.284 5.284 0 0 1 7.418.927c1.813 2.315 1.385 5.623-.923 7.442l-6.891 5.358L673.8 83.616V21.17h-.231l-1.286-.827-23.935-15.38A31.384 31.384 0 0 0 631.402 0a31.49 31.49 0 0 0-19.781 7.012zm7.517 41.147-17.045 13.296c-10.385 8.137-25.452 6.02-33.233-4.696-7.319-10.089-5.472-24.179 4.187-32.018l27.431-22.26A31.069 31.069 0 0 0 588.345.033c-6.198-.033-12.231 1.82-17.407 5.26L547.2 21.168v74.09h9.297l30.134 27.586c6.462 5.92 16.451 5.457 22.352-1.026a16.179 16.179 0 0 0 3.66-6.813l5.605 5.159c6.429 5.921 16.451 5.491 22.352-.959a16.02 16.02 0 0 0 3.264-5.457 15.769 15.769 0 0 0 20.474-2.481c5.901-6.45 5.473-16.505-.956-22.426L619.138 48.16zm-82.488-26.99H505v74.09c0 5.855 4.715 10.585 10.55 10.585h10.55c5.835 0 10.55-4.73 10.55-10.585V21.17zm-15.825 74.09c-2.901 0-5.275-2.381-5.275-5.292 0-2.91 2.374-5.292 5.275-5.292 2.901 0 5.275 2.381 5.275 5.292 0 2.91-2.374 5.292-5.275 5.292zM684.35 21.17v74.09c0 5.855 4.715 10.585 10.55 10.585h10.55c5.835 0 10.55-4.73 10.55-10.585V21.17h-31.65zm21.1 68.798c0 2.91-2.374 5.292-5.275 5.292-2.901 0-5.275-2.381-5.275-5.292 0-2.91 2.374-5.292 5.275-5.292 2.901 0 5.275 2.381 5.275 5.292z" fill="#f5a74e"/><path d="M2.284 114.841V86.239h4.739c1.613-1.16 3.09-2.796 4.431-4.91 1.341-2.136 2.49-5.079 3.444-8.829.954-3.773 1.636-8.705 2.045-14.795l1.977-29.523h46.194v58.057h7.636v28.534H58.568V98H16.466v16.841H2.284zm21.784-28.602h26.864V40.352H32.216l-1.091 17.353c-.296 4.613-.784 8.704-1.466 12.272-.659 3.569-1.466 6.694-2.42 9.375-.932 2.66-1.989 4.955-3.17 6.887zM81.724 98V28.182h47.046v12.17H96.486V56.99h29.863v12.17H96.486v16.67h32.42V98H81.724zm54.998 0V86.136l1.977-.17c2.545-.205 4.602-1.17 6.17-2.898 1.569-1.75 2.739-4.534 3.512-8.352.795-3.841 1.307-9 1.534-15.477l1.159-31.057h47.386V98h-14.352V40.011h-19.33l-1.09 24.307c-.364 7.818-1.296 14.205-2.796 19.16-1.477 4.954-3.841 8.613-7.091 10.977C150.574 96.817 146.153 98 140.54 98h-3.818zM274.79 63.09c0 7.614-1.443 14.092-4.33 19.433-2.863 5.34-6.772 9.42-11.727 12.238-4.932 2.796-10.477 4.194-16.636 4.194-6.205 0-11.773-1.41-16.705-4.228-4.932-2.818-8.829-6.898-11.693-12.238-2.864-5.341-4.296-11.807-4.296-19.398 0-7.614 1.432-14.091 4.296-19.432 2.864-5.34 6.761-9.409 11.693-12.204 4.932-2.819 10.5-4.228 16.705-4.228 6.159 0 11.704 1.41 16.636 4.227 4.955 2.796 8.864 6.864 11.727 12.205 2.887 5.341 4.33 11.818 4.33 19.432zm-14.966 0c0-4.93-.739-9.09-2.216-12.476-1.455-3.387-3.511-5.955-6.17-7.705-2.66-1.75-5.773-2.625-9.341-2.625-3.569 0-6.682.875-9.341 2.625-2.659 1.75-4.728 4.318-6.205 7.705-1.454 3.386-2.182 7.545-2.182 12.477s.728 9.09 2.182 12.477c1.477 3.386 3.546 5.955 6.205 7.705 2.659 1.75 5.772 2.625 9.341 2.625 3.568 0 6.681-.875 9.341-2.625 2.659-1.75 4.715-4.319 6.17-7.705 1.477-3.386 2.216-7.545 2.216-12.477zm25.9 34.91V28.182h27.955c5.136 0 9.42.761 12.852 2.284 3.432 1.523 6.012 3.636 7.739 6.34 1.727 2.683 2.591 5.774 2.591 9.274 0 2.727-.546 5.125-1.637 7.193a14.106 14.106 0 0 1-4.5 5.045c-1.886 1.296-4.045 2.216-6.477 2.762v.681c2.659.114 5.148.864 7.466 2.25 2.341 1.387 4.239 3.33 5.693 5.83 1.455 2.477 2.182 5.432 2.182 8.864 0 3.704-.92 7.01-2.761 9.92-1.818 2.886-4.512 5.17-8.08 6.852C325.179 97.16 320.781 98 315.554 98h-29.83zm14.762-12.068h12.034c4.114 0 7.114-.784 9-2.353 1.886-1.59 2.829-3.704 2.829-6.34 0-1.932-.465-3.637-1.397-5.114-.932-1.477-2.262-2.636-3.989-3.477-1.704-.841-3.739-1.262-6.102-1.262h-12.375v18.546zm0-28.534h10.943c2.023 0 3.818-.353 5.386-1.057 1.591-.727 2.841-1.75 3.75-3.068.932-1.319 1.398-2.898 1.398-4.739 0-2.523-.898-4.557-2.693-6.102-1.773-1.546-4.296-2.318-7.568-2.318h-11.216v17.284zm112.866 5.693c0 7.613-1.443 14.09-4.329 19.432-2.864 5.34-6.773 9.42-11.728 12.238-4.931 2.796-10.477 4.194-16.636 4.194-6.204 0-11.773-1.41-16.704-4.228-4.932-2.818-8.83-6.898-11.694-12.238-2.863-5.341-4.295-11.807-4.295-19.398 0-7.614 1.432-14.091 4.295-19.432 2.864-5.34 6.762-9.409 11.694-12.204 4.931-2.819 10.5-4.228 16.704-4.228 6.159 0 11.705 1.41 16.636 4.227 4.955 2.796 8.864 6.864 11.728 12.205 2.886 5.341 4.329 11.818 4.329 19.432zm-14.966 0c0-4.932-.738-9.091-2.216-12.477-1.454-3.387-3.511-5.955-6.17-7.705s-5.773-2.625-9.341-2.625c-3.568 0-6.682.875-9.341 2.625-2.659 1.75-4.727 4.318-6.204 7.705-1.455 3.386-2.182 7.545-2.182 12.477s.727 9.09 2.182 12.477c1.477 3.386 3.545 5.955 6.204 7.705s5.773 2.625 9.341 2.625c3.568 0 6.682-.875 9.341-2.625 2.659-1.75 4.716-4.319 6.17-7.705 1.478-3.386 2.216-7.545 2.216-12.477zm25.901-34.91h14.727v43.91h.58l30.17-43.91h12.921V98h-14.762V54.057h-.511L437.071 98h-12.784V28.182zm36-18.272h10.125c-.023 4.136-1.557 7.466-4.602 9.989-3.023 2.523-7.114 3.784-12.273 3.784-5.182 0-9.284-1.261-12.307-3.784-3.023-2.523-4.534-5.852-4.534-9.989h10.057c-.023 1.568.477 2.977 1.5 4.227 1.045 1.25 2.807 1.875 5.284 1.875 2.409 0 4.136-.613 5.182-1.84 1.045-1.228 1.568-2.648 1.568-4.262zM797.42 23.182V93h-14.59V35.182h-28.228V93h-14.591V23.182h57.409zm78.214 34.909c0 7.613-1.444 14.09-4.33 19.432-2.864 5.34-6.773 9.42-11.727 12.238-4.932 2.796-10.478 4.194-16.637 4.194-6.204 0-11.772-1.41-16.704-4.228-4.932-2.818-8.83-6.898-11.693-12.238-2.864-5.341-4.296-11.807-4.296-19.398 0-7.614 1.432-14.091 4.296-19.432 2.863-5.34 6.761-9.409 11.693-12.204 4.932-2.819 10.5-4.228 16.704-4.228 6.159 0 11.705 1.41 16.637 4.227 4.954 2.796 8.863 6.864 11.727 12.205 2.886 5.341 4.33 11.818 4.33 19.432zm-14.966 0c0-4.932-.739-9.091-2.216-12.477-1.455-3.387-3.512-5.955-6.171-7.705-2.659-1.75-5.772-2.625-9.341-2.625-3.568 0-6.681.875-9.341 2.625-2.659 1.75-4.727 4.318-6.204 7.705-1.455 3.386-2.182 7.545-2.182 12.477s.727 9.09 2.182 12.477c1.477 3.386 3.545 5.955 6.204 7.705 2.66 1.75 5.773 2.625 9.341 2.625 3.569 0 6.682-.875 9.341-2.625 2.659-1.75 4.716-4.319 6.171-7.705 1.477-3.386 2.216-7.545 2.216-12.477zm22.116 51.75V81.239h4.739c1.613-1.16 3.091-2.796 4.432-4.91 1.34-2.136 2.488-5.079 3.443-8.829.954-3.773 1.636-8.705 2.045-14.795l1.977-29.523h46.194v58.057h7.636v28.534h-14.182V93h-42.102v16.841h-14.182zm21.784-28.602h26.864V35.352h-18.716l-1.091 17.353c-.295 4.613-.784 8.704-1.466 12.272-.659 3.569-1.466 6.694-2.42 9.375-.932 2.66-1.989 4.955-3.171 6.887zm71.497-58.057 14.08 23.795h.545l14.15-23.795h16.67L1000.2 58.09 1021.99 93h-16.98l-14.32-23.83h-.545L975.827 93h-16.909l21.852-34.91-21.443-34.908h16.738zM1091.73 58.09c0 7.613-1.45 14.09-4.33 19.432-2.87 5.34-6.77 9.42-11.73 12.238-4.93 2.796-10.48 4.194-16.64 4.194-6.2 0-11.77-1.41-16.7-4.228-4.93-2.818-8.83-6.898-11.69-12.238-2.87-5.341-4.3-11.807-4.3-19.398 0-7.614 1.43-14.091 4.3-19.432 2.86-5.34 6.76-9.409 11.69-12.204 4.93-2.819 10.5-4.228 16.7-4.228 6.16 0 11.71 1.41 16.64 4.227 4.96 2.796 8.86 6.864 11.73 12.205 2.88 5.341 4.33 11.818 4.33 19.432zm-14.97 0c0-4.932-.74-9.091-2.21-12.477-1.46-3.387-3.52-5.955-6.17-7.705-2.66-1.75-5.78-2.625-9.35-2.625-3.56 0-6.68.875-9.34 2.625s-4.72 4.318-6.2 7.705c-1.46 3.386-2.18 7.545-2.18 12.477s.72 9.09 2.18 12.477c1.48 3.386 3.54 5.955 6.2 7.705s5.78 2.625 9.34 2.625c3.57 0 6.69-.875 9.35-2.625 2.65-1.75 4.71-4.319 6.17-7.705 1.47-3.386 2.21-7.545 2.21-12.477zm22.12 51.75V81.239h4.74c1.61-1.16 3.09-2.796 4.43-4.91 1.34-2.136 2.49-5.079 3.44-8.829.96-3.773 1.64-8.705 2.05-14.795l1.97-29.523h46.2v58.057h7.63v28.534h-14.18V93h-42.1v16.841h-14.18zm21.78-28.602h26.87V35.352h-18.72l-1.09 17.353c-.3 4.613-.79 8.704-1.47 12.272-.66 3.569-1.46 6.694-2.42 9.375-.93 2.66-1.99 4.955-3.17 6.887z" fill="#fff"/></svg>
