<svg width="2322" height="146" viewBox="0 0 2322 146" fill="none" xmlns="http://www.w3.org/2000/svg">
    <path d="M349.591 38.1818V108H330.909V53.1818H307.318V108H288.636V38.1818H349.591ZM435.082 108.955C429.491 108.955 424.673 107.886 420.628 105.75C416.605 103.591 413.503 100.5 411.321 96.4773C409.162 92.4318 408.082 87.5909 408.082 81.9545C408.082 76.5455 409.173 71.8182 411.355 67.7727C413.537 63.7273 416.616 60.5795 420.594 58.3295C424.571 56.0795 429.264 54.9545 434.673 54.9545C438.628 54.9545 442.207 55.5682 445.412 56.7955C448.616 58.0227 451.355 59.8068 453.628 62.1477C455.901 64.4659 457.651 67.2841 458.878 70.6023C460.105 73.9205 460.719 77.6591 460.719 81.8182V86.1818H413.946V75.8182H443.401C443.378 74.3182 442.991 73 442.241 71.8636C441.514 70.7045 440.526 69.8068 439.276 69.1705C438.048 68.5114 436.651 68.1818 435.082 68.1818C433.56 68.1818 432.162 68.5114 430.889 69.1705C429.616 69.8068 428.594 70.6932 427.821 71.8295C427.071 72.9659 426.673 74.2955 426.628 75.8182V87C426.628 88.6818 426.98 90.1818 427.685 91.5C428.389 92.8182 429.401 93.8523 430.719 94.6023C432.037 95.3523 433.628 95.7273 435.491 95.7273C436.787 95.7273 437.969 95.5455 439.037 95.1818C440.128 94.8182 441.06 94.2955 441.832 93.6136C442.605 92.9091 443.173 92.0682 443.537 91.0909H460.719C460.128 94.7273 458.73 97.8864 456.526 100.568C454.321 103.227 451.401 105.295 447.764 106.773C444.151 108.227 439.923 108.955 435.082 108.955ZM516.398 127.636V55.6364H535.08V64.7727H535.489C536.17 63 537.17 61.375 538.489 59.8977C539.807 58.3977 541.443 57.2045 543.398 56.3182C545.352 55.4091 547.625 54.9545 550.216 54.9545C553.67 54.9545 556.955 55.875 560.068 57.7159C563.205 59.5568 565.75 62.4545 567.705 66.4091C569.682 70.3636 570.67 75.5 570.67 81.8182C570.67 87.8636 569.727 92.875 567.841 96.8523C565.977 100.83 563.477 103.795 560.341 105.75C557.227 107.705 553.807 108.682 550.08 108.682C547.625 108.682 545.432 108.284 543.5 107.489C541.591 106.67 539.955 105.568 538.591 104.182C537.25 102.773 536.216 101.182 535.489 99.4091H535.216V127.636H516.398ZM534.807 81.8182C534.807 84.3636 535.136 86.5682 535.795 88.4318C536.477 90.2727 537.432 91.7045 538.659 92.7273C539.909 93.7273 541.398 94.2273 543.125 94.2273C544.852 94.2273 546.318 93.7386 547.523 92.7614C548.75 91.7614 549.682 90.3409 550.318 88.5C550.977 86.6364 551.307 84.4091 551.307 81.8182C551.307 79.2273 550.977 77.0114 550.318 75.1705C549.682 73.3068 548.75 71.8864 547.523 70.9091C546.318 69.9091 544.852 69.4091 543.125 69.4091C541.398 69.4091 539.909 69.9091 538.659 70.9091C537.432 71.8864 536.477 73.3068 535.795 75.1705C535.136 77.0114 534.807 79.2273 534.807 81.8182ZM651.781 108.955C646.099 108.955 641.236 107.83 637.19 105.58C633.145 103.307 630.043 100.148 627.884 96.1023C625.724 92.0341 624.645 87.3182 624.645 81.9545C624.645 76.5909 625.724 71.8864 627.884 67.8409C630.043 63.7727 633.145 60.6136 637.19 58.3636C641.236 56.0909 646.099 54.9545 651.781 54.9545C656.918 54.9545 661.361 55.8864 665.111 57.75C668.884 59.5909 671.804 62.2045 673.872 65.5909C675.94 68.9545 676.986 72.9091 677.009 77.4545H659.554C659.304 74.7045 658.509 72.6136 657.168 71.1818C655.849 69.7273 654.145 69 652.054 69C650.418 69 648.986 69.4773 647.759 70.4318C646.531 71.3636 645.577 72.7841 644.895 74.6932C644.213 76.5795 643.872 78.9545 643.872 81.8182C643.872 84.6818 644.213 87.0682 644.895 88.9773C645.577 90.8636 646.531 92.2841 647.759 93.2386C648.986 94.1705 650.418 94.6364 652.054 94.6364C653.44 94.6364 654.668 94.3182 655.736 93.6818C656.804 93.0227 657.668 92.0682 658.327 90.8182C659.009 89.5455 659.418 88 659.554 86.1818H677.009C676.94 90.7955 675.884 94.8182 673.838 98.25C671.793 101.659 668.895 104.295 665.145 106.159C661.418 108.023 656.963 108.955 651.781 108.955ZM758 108.955C752.318 108.955 747.455 107.83 743.409 105.58C739.364 103.307 736.261 100.148 734.102 96.1023C731.943 92.0341 730.864 87.3182 730.864 81.9545C730.864 76.5909 731.943 71.8864 734.102 67.8409C736.261 63.7727 739.364 60.6136 743.409 58.3636C747.455 56.0909 752.318 54.9545 758 54.9545C763.682 54.9545 768.545 56.0909 772.591 58.3636C776.636 60.6136 779.739 63.7727 781.898 67.8409C784.057 71.8864 785.136 76.5909 785.136 81.9545C785.136 87.3182 784.057 92.0341 781.898 96.1023C779.739 100.148 776.636 103.307 772.591 105.58C768.545 107.83 763.682 108.955 758 108.955ZM758.136 95.0455C759.727 95.0455 761.102 94.5114 762.261 93.4432C763.42 92.375 764.318 90.8523 764.955 88.875C765.591 86.8977 765.909 84.5455 765.909 81.8182C765.909 79.0682 765.591 76.7159 764.955 74.7614C764.318 72.7841 763.42 71.2614 762.261 70.1932C761.102 69.125 759.727 68.5909 758.136 68.5909C756.455 68.5909 755.011 69.125 753.807 70.1932C752.602 71.2614 751.682 72.7841 751.045 74.7614C750.409 76.7159 750.091 79.0682 750.091 81.8182C750.091 84.5455 750.409 86.8977 751.045 88.875C751.682 90.8523 752.602 92.375 753.807 93.4432C755.011 94.5114 756.455 95.0455 758.136 95.0455ZM878.136 74.5909V88.6364H851.818V74.5909H878.136ZM858.5 55.6364V108H840.773V55.6364H858.5ZM889.182 55.6364V108H871.591V55.6364H889.182ZM960.739 108.818C957.398 108.818 954.443 108.273 951.875 107.182C949.33 106.068 947.33 104.386 945.875 102.136C944.42 99.8864 943.693 97.0227 943.693 93.5455C943.693 90.6818 944.182 88.2386 945.159 86.2159C946.136 84.1705 947.5 82.5 949.25 81.2045C951 79.9091 953.034 78.9205 955.352 78.2386C957.693 77.5568 960.216 77.1136 962.92 76.9091C965.852 76.6818 968.205 76.4091 969.977 76.0909C971.773 75.75 973.068 75.2841 973.864 74.6932C974.659 74.0795 975.057 73.2727 975.057 72.2727V72.1364C975.057 70.7727 974.534 69.7273 973.489 69C972.443 68.2727 971.102 67.9091 969.466 67.9091C967.67 67.9091 966.205 68.3068 965.068 69.1023C963.955 69.875 963.284 71.0682 963.057 72.6818H945.739C945.966 69.5 946.977 66.5682 948.773 63.8864C950.591 61.1818 953.239 59.0227 956.716 57.4091C960.193 55.7727 964.534 54.9545 969.739 54.9545C973.489 54.9545 976.852 55.3977 979.83 56.2841C982.807 57.1477 985.341 58.3636 987.432 59.9318C989.523 61.4773 991.114 63.2955 992.205 65.3864C993.318 67.4545 993.875 69.7045 993.875 72.1364V108H976.284V100.636H975.875C974.83 102.591 973.557 104.17 972.057 105.375C970.58 106.58 968.886 107.455 966.977 108C965.091 108.545 963.011 108.818 960.739 108.818ZM966.875 96.9545C968.307 96.9545 969.648 96.6591 970.898 96.0682C972.17 95.4773 973.205 94.625 974 93.5114C974.795 92.3977 975.193 91.0455 975.193 89.4545V85.0909C974.693 85.2955 974.159 85.4886 973.591 85.6705C973.045 85.8523 972.455 86.0227 971.818 86.1818C971.205 86.3409 970.545 86.4886 969.841 86.625C969.159 86.7614 968.443 86.8864 967.693 87C966.239 87.2273 965.045 87.6023 964.114 88.125C963.205 88.625 962.523 89.25 962.068 90C961.636 90.7273 961.42 91.5455 961.42 92.4545C961.42 93.9091 961.932 95.0227 962.955 95.7955C963.977 96.5682 965.284 96.9545 966.875 96.9545ZM1048.82 108L1048.68 93.8182H1050.32C1051.34 93.8182 1052.24 93.5227 1053.01 92.9318C1053.81 92.3409 1054.48 91.4318 1055.03 90.2045C1055.59 88.9773 1056.04 87.4205 1056.36 85.5341C1056.7 83.6477 1056.91 81.4091 1057 78.8182L1057.82 55.6364H1100.91V108H1083.18V69.6818H1074.46L1073.64 83.8636C1073.41 88.3182 1072.78 92.0909 1071.73 95.1818C1070.71 98.2727 1069.34 100.761 1067.64 102.648C1065.93 104.511 1063.96 105.875 1061.71 106.739C1059.46 107.58 1056.98 108 1054.28 108H1048.82ZM1279.19 66.4091V81.1364H1248.24V66.4091H1279.19ZM1224.64 84.4091H1243.33C1243.24 87.8182 1244.2 90.3295 1246.22 91.9432C1248.27 93.5568 1251.08 94.3636 1254.64 94.3636C1257.96 94.3636 1260.49 93.7159 1262.21 92.4205C1263.96 91.1023 1265.16 89.0455 1265.79 86.25C1266.45 83.4318 1266.78 79.7727 1266.78 75.2727V71.0455C1266.78 66.6364 1266.41 63.0341 1265.66 60.2386C1264.91 57.4432 1263.68 55.3864 1261.97 54.0682C1260.27 52.75 1257.96 52.0909 1255.05 52.0909C1251.87 52.0909 1249.43 52.5114 1247.72 53.3523C1246.02 54.1932 1244.85 55.3977 1244.21 56.9659C1243.58 58.5341 1243.24 60.4091 1243.19 62.5909H1224.51C1224.96 57.9091 1226.36 53.6477 1228.7 49.8068C1231.04 45.9659 1234.39 42.9091 1238.76 40.6364C1243.12 38.3636 1248.55 37.2273 1255.05 37.2273C1261.14 37.2273 1266.44 38.6023 1270.94 41.3523C1275.46 44.0795 1278.96 47.9886 1281.44 53.0795C1283.94 58.1477 1285.19 64.1818 1285.19 71.1818V75.2727C1285.19 82.2727 1283.99 88.2955 1281.58 93.3409C1279.17 98.3636 1275.69 102.227 1271.14 104.932C1266.6 107.614 1261.1 108.955 1254.64 108.955C1248.78 108.955 1243.63 107.955 1239.2 105.955C1234.79 103.932 1231.32 101.091 1228.77 97.4318C1226.25 93.75 1224.87 89.4091 1224.64 84.4091ZM1342.15 108V55.6364H1360.97V74.3182H1364.24L1375.42 55.6364H1396.97L1380.19 82.0909L1397.1 108H1375.28L1365.19 91.7727H1360.97V108H1342.15ZM1472.56 108.955C1466.88 108.955 1462.02 107.83 1457.97 105.58C1453.93 103.307 1450.82 100.148 1448.66 96.1023C1446.51 92.0341 1445.43 87.3182 1445.43 81.9545C1445.43 76.5909 1446.51 71.8864 1448.66 67.8409C1450.82 63.7727 1453.93 60.6136 1457.97 58.3636C1462.02 56.0909 1466.88 54.9545 1472.56 54.9545C1477.7 54.9545 1482.14 55.8864 1485.89 57.75C1489.66 59.5909 1492.59 62.2045 1494.65 65.5909C1496.72 68.9545 1497.77 72.9091 1497.79 77.4545H1480.34C1480.09 74.7045 1479.29 72.6136 1477.95 71.1818C1476.63 69.7273 1474.93 69 1472.84 69C1471.2 69 1469.77 69.4773 1468.54 70.4318C1467.31 71.3636 1466.36 72.7841 1465.68 74.6932C1464.99 76.5795 1464.65 78.9545 1464.65 81.8182C1464.65 84.6818 1464.99 87.0682 1465.68 88.9773C1466.36 90.8636 1467.31 92.2841 1468.54 93.2386C1469.77 94.1705 1471.2 94.6364 1472.84 94.6364C1474.22 94.6364 1475.45 94.3182 1476.52 93.6818C1477.59 93.0227 1478.45 92.0682 1479.11 90.8182C1479.79 89.5455 1480.2 88 1480.34 86.1818H1497.79C1497.72 90.7955 1496.66 94.8182 1494.62 98.25C1492.57 101.659 1489.68 104.295 1485.93 106.159C1482.2 108.023 1477.74 108.955 1472.56 108.955ZM1553.55 108V55.6364H1602.37V108H1584.64V69.6818H1571.01V108H1553.55ZM1659.96 127.636V55.6364H1678.64V64.7727H1679.05C1679.73 63 1680.73 61.375 1682.05 59.8977C1683.37 58.3977 1685.01 57.2045 1686.96 56.3182C1688.91 55.4091 1691.19 54.9545 1693.78 54.9545C1697.23 54.9545 1700.52 55.875 1703.63 57.7159C1706.77 59.5568 1709.31 62.4545 1711.27 66.4091C1713.24 70.3636 1714.23 75.5 1714.23 81.8182C1714.23 87.8636 1713.29 92.875 1711.4 96.8523C1709.54 100.83 1707.04 103.795 1703.9 105.75C1700.79 107.705 1697.37 108.682 1693.64 108.682C1691.19 108.682 1688.99 108.284 1687.06 107.489C1685.15 106.67 1683.52 105.568 1682.15 104.182C1680.81 102.773 1679.78 101.182 1679.05 99.4091H1678.78V127.636H1659.96ZM1678.37 81.8182C1678.37 84.3636 1678.7 86.5682 1679.36 88.4318C1680.04 90.2727 1680.99 91.7045 1682.22 92.7273C1683.47 93.7273 1684.96 94.2273 1686.69 94.2273C1688.41 94.2273 1689.88 93.7386 1691.09 92.7614C1692.31 91.7614 1693.24 90.3409 1693.88 88.5C1694.54 86.6364 1694.87 84.4091 1694.87 81.8182C1694.87 79.2273 1694.54 77.0114 1693.88 75.1705C1693.24 73.3068 1692.31 71.8864 1691.09 70.9091C1689.88 69.9091 1688.41 69.4091 1686.69 69.4091C1684.96 69.4091 1683.47 69.9091 1682.22 70.9091C1680.99 71.8864 1680.04 73.3068 1679.36 75.1705C1678.7 77.0114 1678.37 79.2273 1678.37 81.8182ZM1795.21 108.955C1789.62 108.955 1784.8 107.886 1780.75 105.75C1776.73 103.591 1773.63 100.5 1771.45 96.4773C1769.29 92.4318 1768.21 87.5909 1768.21 81.9545C1768.21 76.5455 1769.3 71.8182 1771.48 67.7727C1773.66 63.7273 1776.74 60.5795 1780.72 58.3295C1784.7 56.0795 1789.39 54.9545 1794.8 54.9545C1798.75 54.9545 1802.33 55.5682 1805.54 56.7955C1808.74 58.0227 1811.48 59.8068 1813.75 62.1477C1816.03 64.4659 1817.78 67.2841 1819 70.6023C1820.23 73.9205 1820.84 77.6591 1820.84 81.8182V86.1818H1774.07V75.8182H1803.53C1803.5 74.3182 1803.12 73 1802.37 71.8636C1801.64 70.7045 1800.65 69.8068 1799.4 69.1705C1798.17 68.5114 1796.78 68.1818 1795.21 68.1818C1793.68 68.1818 1792.29 68.5114 1791.01 69.1705C1789.74 69.8068 1788.72 70.6932 1787.95 71.8295C1787.2 72.9659 1786.8 74.2955 1786.75 75.8182V87C1786.75 88.6818 1787.11 90.1818 1787.81 91.5C1788.51 92.8182 1789.53 93.8523 1790.84 94.6023C1792.16 95.3523 1793.75 95.7273 1795.62 95.7273C1796.91 95.7273 1798.09 95.5455 1799.16 95.1818C1800.25 94.8182 1801.18 94.2955 1801.96 93.6136C1802.73 92.9091 1803.3 92.0682 1803.66 91.0909H1820.84C1820.25 94.7273 1818.86 97.8864 1816.65 100.568C1814.45 103.227 1811.53 105.295 1807.89 106.773C1804.28 108.227 1800.05 108.955 1795.21 108.955ZM1901.75 108.955C1896.07 108.955 1891.2 107.83 1887.16 105.58C1883.11 103.307 1880.01 100.148 1877.85 96.1023C1875.69 92.0341 1874.61 87.3182 1874.61 81.9545C1874.61 76.5909 1875.69 71.8864 1877.85 67.8409C1880.01 63.7727 1883.11 60.6136 1887.16 58.3636C1891.2 56.0909 1896.07 54.9545 1901.75 54.9545C1906.89 54.9545 1911.33 55.8864 1915.08 57.75C1918.85 59.5909 1921.77 62.2045 1923.84 65.5909C1925.91 68.9545 1926.95 72.9091 1926.98 77.4545H1909.52C1909.27 74.7045 1908.48 72.6136 1907.14 71.1818C1905.82 69.7273 1904.11 69 1902.02 69C1900.39 69 1898.95 69.4773 1897.73 70.4318C1896.5 71.3636 1895.55 72.7841 1894.86 74.6932C1894.18 76.5795 1893.84 78.9545 1893.84 81.8182C1893.84 84.6818 1894.18 87.0682 1894.86 88.9773C1895.55 90.8636 1896.5 92.2841 1897.73 93.2386C1898.95 94.1705 1900.39 94.6364 1902.02 94.6364C1903.41 94.6364 1904.64 94.3182 1905.7 93.6818C1906.77 93.0227 1907.64 92.0682 1908.3 90.8182C1908.98 89.5455 1909.39 88 1909.52 86.1818H1926.98C1926.91 90.7955 1925.85 94.8182 1923.81 98.25C1921.76 101.659 1918.86 104.295 1915.11 106.159C1911.39 108.023 1906.93 108.955 1901.75 108.955ZM2007.97 108.955C2002.29 108.955 1997.42 107.83 1993.38 105.58C1989.33 103.307 1986.23 100.148 1984.07 96.1023C1981.91 92.0341 1980.83 87.3182 1980.83 81.9545C1980.83 76.5909 1981.91 71.8864 1984.07 67.8409C1986.23 63.7727 1989.33 60.6136 1993.38 58.3636C1997.42 56.0909 2002.29 54.9545 2007.97 54.9545C2013.11 54.9545 2017.55 55.8864 2021.3 57.75C2025.07 59.5909 2027.99 62.2045 2030.06 65.5909C2032.13 68.9545 2033.17 72.9091 2033.2 77.4545H2015.74C2015.49 74.7045 2014.7 72.6136 2013.36 71.1818C2012.04 69.7273 2010.33 69 2008.24 69C2006.61 69 2005.17 69.4773 2003.95 70.4318C2002.72 71.3636 2001.76 72.7841 2001.08 74.6932C2000.4 76.5795 2000.06 78.9545 2000.06 81.8182C2000.06 84.6818 2000.4 87.0682 2001.08 88.9773C2001.76 90.8636 2002.72 92.2841 2003.95 93.2386C2005.17 94.1705 2006.61 94.6364 2008.24 94.6364C2009.63 94.6364 2010.86 94.3182 2011.92 93.6818C2012.99 93.0227 2013.86 92.0682 2014.51 90.8182C2015.2 89.5455 2015.61 88 2015.74 86.1818H2033.2C2033.13 90.7955 2032.07 94.8182 2030.03 98.25C2027.98 101.659 2025.08 104.295 2021.33 106.159C2017.61 108.023 2013.15 108.955 2007.97 108.955Z" fill="white"/>
    <path d="M349.591 38.1818H350.591V37.1818H349.591V38.1818ZM349.591 108V109H350.591V108H349.591ZM330.909 108H329.909V109H330.909V108ZM330.909 53.1818H331.909V52.1818H330.909V53.1818ZM307.318 53.1818V52.1818H306.318V53.1818H307.318ZM307.318 108V109H308.318V108H307.318ZM288.636 108H287.636V109H288.636V108ZM288.636 38.1818V37.1818H287.636V38.1818H288.636ZM348.591 38.1818V108H350.591V38.1818H348.591ZM349.591 107H330.909V109H349.591V107ZM331.909 108V53.1818H329.909V108H331.909ZM330.909 52.1818H307.318V54.1818H330.909V52.1818ZM306.318 53.1818V108H308.318V53.1818H306.318ZM307.318 107H288.636V109H307.318V107ZM289.636 108V38.1818H287.636V108H289.636ZM288.636 39.1818H349.591V37.1818H288.636V39.1818ZM420.628 105.75L420.155 106.631L420.161 106.634L420.628 105.75ZM411.321 96.4773L410.439 96.9481L410.442 96.954L411.321 96.4773ZM411.355 67.7727L412.235 68.2474L412.235 68.2474L411.355 67.7727ZM420.594 58.3295L421.086 59.1999L421.086 59.1999L420.594 58.3295ZM445.412 56.7955L445.77 55.8616L445.77 55.8616L445.412 56.7955ZM453.628 62.1477L452.91 62.8443L452.914 62.8478L453.628 62.1477ZM458.878 70.6023L457.94 70.9492L457.94 70.9492L458.878 70.6023ZM460.719 86.1818V87.1818H461.719V86.1818H460.719ZM413.946 86.1818H412.946V87.1818H413.946V86.1818ZM413.946 75.8182V74.8182H412.946V75.8182H413.946ZM443.401 75.8182V76.8182H444.416L444.4 75.803L443.401 75.8182ZM442.241 71.8636L441.394 72.3951L441.401 72.4049L441.407 72.4145L442.241 71.8636ZM439.276 69.1705L438.802 70.0514L438.812 70.0566L438.822 70.0616L439.276 69.1705ZM430.889 69.1705L431.336 70.0649L431.343 70.0617L431.349 70.0584L430.889 69.1705ZM427.821 71.8295L426.994 71.2672L426.986 71.2787L427.821 71.8295ZM426.628 75.8182L425.628 75.7883L425.628 75.8033V75.8182H426.628ZM427.685 91.5L426.803 91.9714L426.803 91.9714L427.685 91.5ZM430.719 94.6023L430.224 95.4714L430.224 95.4714L430.719 94.6023ZM439.037 95.1818L438.721 94.2331L438.715 94.2352L439.037 95.1818ZM441.832 93.6136L442.494 94.3635L442.5 94.3581L442.506 94.3526L441.832 93.6136ZM443.537 91.0909V90.0909H442.842L442.6 90.7422L443.537 91.0909ZM460.719 91.0909L461.706 91.2513L461.894 90.0909H460.719V91.0909ZM456.526 100.568L457.295 101.206L457.298 101.203L456.526 100.568ZM447.764 106.773L448.138 107.7L448.141 107.699L447.764 106.773ZM435.082 107.955C429.619 107.955 424.968 106.911 421.095 104.866L420.161 106.634C424.379 108.862 429.364 109.955 435.082 109.955V107.955ZM421.101 104.869C417.25 102.802 414.289 99.8522 412.2 96.0005L410.442 96.954C412.717 101.148 415.96 104.38 420.155 106.631L421.101 104.869ZM412.203 96.0064C410.137 92.1354 409.082 87.4638 409.082 81.9545H407.082C407.082 87.718 408.187 92.7282 410.439 96.9481L412.203 96.0064ZM409.082 81.9545C409.082 76.6818 410.145 72.1232 412.235 68.2474L410.475 67.298C408.202 71.5132 407.082 76.4091 407.082 81.9545H409.082ZM412.235 68.2474C414.328 64.3667 417.274 61.3566 421.086 59.1999L420.101 57.4592C415.959 59.8025 412.746 63.0878 410.475 67.298L412.235 68.2474ZM421.086 59.1999C424.888 57.0493 429.405 55.9545 434.673 55.9545V53.9545C429.123 53.9545 424.254 55.1098 420.101 57.4592L421.086 59.1999ZM434.673 55.9545C438.524 55.9545 441.98 56.5519 445.054 57.7293L445.77 55.8616C442.435 54.5845 438.732 53.9545 434.673 53.9545V55.9545ZM445.054 57.7293C448.13 58.9073 450.744 60.6131 452.91 62.8443L454.345 61.4511C451.966 59.0005 449.103 57.1381 445.77 55.8616L445.054 57.7293ZM452.914 62.8478C455.079 65.0566 456.757 67.7512 457.94 70.9492L459.816 70.2554C458.544 66.817 456.722 63.8752 454.342 61.4477L452.914 62.8478ZM457.94 70.9492C459.12 74.1387 459.719 77.7571 459.719 81.8182H461.719C461.719 77.5611 461.091 73.7022 459.816 70.2554L457.94 70.9492ZM459.719 81.8182V86.1818H461.719V81.8182H459.719ZM460.719 85.1818H413.946V87.1818H460.719V85.1818ZM414.946 86.1818V75.8182H412.946V86.1818H414.946ZM413.946 76.8182H443.401V74.8182H413.946V76.8182ZM444.4 75.803C444.375 74.1325 443.942 72.6243 443.076 71.3128L441.407 72.4145C442.041 73.3757 442.381 74.5039 442.401 75.8333L444.4 75.803ZM443.089 71.3321C442.263 70.0158 441.136 68.9956 439.729 68.2793L438.822 70.0616C439.915 70.6181 440.766 71.3933 441.394 72.3951L443.089 71.3321ZM439.749 68.2895C438.358 67.5429 436.795 67.1818 435.082 67.1818V69.1818C436.507 69.1818 437.738 69.4799 438.802 70.0514L439.749 68.2895ZM435.082 67.1818C433.41 67.1818 431.853 67.5452 430.429 68.2825L431.349 70.0584C432.471 69.4775 433.709 69.1818 435.082 69.1818V67.1818ZM430.442 68.276C429.022 68.986 427.866 69.9844 426.994 71.2672L428.648 72.3919C429.321 71.402 430.211 70.6276 431.336 70.0649L430.442 68.276ZM426.986 71.2787C426.122 72.588 425.679 74.1027 425.628 75.7883L427.627 75.848C427.668 74.4882 428.02 73.3438 428.656 72.3804L426.986 71.2787ZM425.628 75.8182V87H427.628V75.8182H425.628ZM425.628 87C425.628 88.8254 426.011 90.4908 426.803 91.9714L428.567 91.0286C427.949 89.8728 427.628 88.5383 427.628 87H425.628ZM426.803 91.9714C427.598 93.4586 428.744 94.6295 430.224 95.4714L431.213 93.7331C430.057 93.075 429.181 92.1777 428.567 91.0286L426.803 91.9714ZM430.224 95.4714C431.724 96.3248 433.494 96.7273 435.491 96.7273V94.7273C433.762 94.7273 432.35 94.3798 431.213 93.7331L430.224 95.4714ZM435.491 96.7273C436.881 96.7273 438.173 96.5322 439.359 96.1285L438.715 94.2352C437.764 94.5587 436.693 94.7273 435.491 94.7273V96.7273ZM439.353 96.1305C440.557 95.7294 441.61 95.1438 442.494 94.3635L441.171 92.8638C440.51 93.4471 439.699 93.907 438.721 94.2331L439.353 96.1305ZM442.506 94.3526C443.396 93.5411 444.055 92.5665 444.474 91.4396L442.6 90.7422C442.292 91.5698 441.814 92.2771 441.159 92.8747L442.506 94.3526ZM443.537 92.0909H460.719V90.0909H443.537V92.0909ZM459.732 90.9305C459.167 94.4036 457.839 97.3962 455.753 99.9332L457.298 101.203C459.622 98.3765 461.088 95.051 461.706 91.2513L459.732 90.9305ZM455.756 99.9299C453.67 102.446 450.892 104.423 447.388 105.846L448.141 107.699C451.909 106.168 454.972 104.009 457.295 101.206L455.756 99.9299ZM447.391 105.845C443.921 107.242 439.825 107.955 435.082 107.955V109.955C440.021 109.955 444.38 109.213 448.138 107.7L447.391 105.845ZM516.398 127.636H515.398V128.636H516.398V127.636ZM516.398 55.6364V54.6364H515.398V55.6364H516.398ZM535.08 55.6364H536.08V54.6364H535.08V55.6364ZM535.08 64.7727H534.08V65.7727H535.08V64.7727ZM535.489 64.7727V65.7727H536.175L536.422 65.1317L535.489 64.7727ZM538.489 59.8977L539.235 60.5635L539.24 60.5578L538.489 59.8977ZM543.398 56.3182L543.811 57.2289L543.819 57.2249L543.398 56.3182ZM560.068 57.7159L559.559 58.5767L559.562 58.5783L560.068 57.7159ZM567.705 66.4091L566.808 66.8522L566.81 66.8563L567.705 66.4091ZM567.841 96.8523L566.937 96.4237L566.935 96.428L567.841 96.8523ZM560.341 105.75L559.812 104.901L559.809 104.903L560.341 105.75ZM543.5 107.489L543.106 108.408L543.113 108.411L543.119 108.413L543.5 107.489ZM538.591 104.182L537.866 104.871L537.872 104.877L537.878 104.883L538.591 104.182ZM535.489 99.4091L536.414 99.0295L536.159 98.4091H535.489V99.4091ZM535.216 99.4091V98.4091H534.216V99.4091H535.216ZM535.216 127.636V128.636H536.216V127.636H535.216ZM535.795 88.4318L534.853 88.7652L534.855 88.7722L534.858 88.7791L535.795 88.4318ZM538.659 92.7273L538.019 93.4955L538.027 93.5019L538.034 93.5081L538.659 92.7273ZM547.523 92.7614L548.153 93.5379L548.154 93.5366L547.523 92.7614ZM550.318 88.5L549.375 88.1666L549.373 88.1733L550.318 88.5ZM550.318 75.1705L549.372 75.4936L549.374 75.5006L549.377 75.5075L550.318 75.1705ZM547.523 70.9091L546.884 71.6785L546.892 71.685L546.9 71.6914L547.523 70.9091ZM538.659 70.9091L539.282 71.6914L539.284 71.69L538.659 70.9091ZM535.795 75.1705L534.856 74.8269L534.854 74.8334L535.795 75.1705ZM517.398 127.636V55.6364H515.398V127.636H517.398ZM516.398 56.6364H535.08V54.6364H516.398V56.6364ZM534.08 55.6364V64.7727H536.08V55.6364H534.08ZM535.08 65.7727H535.489V63.7727H535.08V65.7727ZM536.422 65.1317C537.059 63.4765 537.994 61.9545 539.235 60.5635L537.742 59.2319C536.347 60.7955 535.282 62.5235 534.555 64.4137L536.422 65.1317ZM539.24 60.5578C540.457 59.1722 541.976 58.0611 543.811 57.2289L542.985 55.4074C540.911 56.348 539.156 57.6232 537.737 59.2376L539.24 60.5578ZM543.819 57.2249C545.618 56.3884 547.742 55.9545 550.216 55.9545V53.9545C547.508 53.9545 545.087 54.4298 542.976 55.4115L543.819 57.2249ZM550.216 55.9545C553.483 55.9545 556.592 56.8225 559.559 58.5767L560.577 56.8551C557.317 54.9275 553.858 53.9545 550.216 53.9545V55.9545ZM559.562 58.5783C562.497 60.3012 564.921 63.0349 566.808 66.8522L568.601 65.966C566.579 61.8742 563.912 58.8124 560.574 56.8535L559.562 58.5783ZM566.81 66.8563C568.695 70.6255 569.67 75.5931 569.67 81.8182H571.67C571.67 75.4069 570.669 70.1018 568.599 65.9619L566.81 66.8563ZM569.67 81.8182C569.67 87.7676 568.741 92.6207 566.937 96.4237L568.744 97.2808C570.713 93.1293 571.67 87.9597 571.67 81.8182H569.67ZM566.935 96.428C565.138 100.264 562.756 103.067 559.812 104.901L560.87 106.599C564.199 104.524 566.817 101.395 568.746 97.2766L566.935 96.428ZM559.809 104.903C556.857 106.756 553.621 107.682 550.08 107.682V109.682C553.992 109.682 557.597 108.653 560.873 106.597L559.809 104.903ZM550.08 107.682C547.733 107.682 545.673 107.302 543.881 106.564L543.119 108.413C545.191 109.266 547.517 109.682 550.08 109.682V107.682ZM543.894 106.569C542.096 105.799 540.57 104.768 539.304 103.481L537.878 104.883C539.339 106.368 541.086 107.542 543.106 108.408L543.894 106.569ZM539.315 103.492C538.059 102.172 537.093 100.686 536.414 99.0295L534.563 99.7886C535.339 101.678 536.441 103.374 537.866 104.871L539.315 103.492ZM535.489 98.4091H535.216V100.409H535.489V98.4091ZM534.216 99.4091V127.636H536.216V99.4091H534.216ZM535.216 126.636H516.398V128.636H535.216V126.636ZM533.807 81.8182C533.807 84.4462 534.147 86.7687 534.853 88.7652L536.738 88.0984C536.126 86.3676 535.807 84.2811 535.807 81.8182H533.807ZM534.858 88.7791C535.586 90.7467 536.63 92.3379 538.019 93.4955L539.299 91.9591C538.234 91.0712 537.368 89.7988 536.733 88.0845L534.858 88.7791ZM538.034 93.5081C539.476 94.6615 541.19 95.2273 543.125 95.2273V93.2273C541.606 93.2273 540.342 92.793 539.284 91.9464L538.034 93.5081ZM543.125 95.2273C545.054 95.2273 546.75 94.6763 548.153 93.5379L546.893 91.9848C545.887 92.801 544.651 93.2273 543.125 93.2273V95.2273ZM548.154 93.5366C549.556 92.3948 550.58 90.8029 551.263 88.8267L549.373 88.1733C548.783 89.8789 547.944 91.128 546.891 91.9861L548.154 93.5366ZM551.261 88.8334C551.968 86.8353 552.307 84.4894 552.307 81.8182H550.307C550.307 84.3288 549.987 86.4375 549.375 88.1666L551.261 88.8334ZM552.307 81.8182C552.307 79.1475 551.968 76.8112 551.26 74.8334L549.377 75.5075C549.987 77.2115 550.307 79.307 550.307 81.8182H552.307ZM551.265 74.8473C550.582 72.8488 549.556 71.2501 548.146 70.1268L546.9 71.6914C547.944 72.5226 548.782 73.7648 549.372 75.4936L551.265 74.8473ZM548.161 70.1397C546.759 68.975 545.06 68.4091 543.125 68.4091V70.4091C544.645 70.4091 545.878 70.8432 546.884 71.6785L548.161 70.1397ZM543.125 68.4091C541.19 68.4091 539.476 68.9748 538.034 70.1282L539.284 71.69C540.342 70.8434 541.606 70.4091 543.125 70.4091V68.4091ZM538.036 70.1268C536.632 71.2452 535.585 72.8359 534.856 74.8269L536.735 75.514C537.37 73.7777 538.232 72.5276 539.282 71.6914L538.036 70.1268ZM534.854 74.8334C534.146 76.8112 533.807 79.1475 533.807 81.8182H535.807C535.807 79.307 536.127 77.2115 536.737 75.5075L534.854 74.8334ZM637.19 105.58L636.701 106.451L636.704 106.453L637.19 105.58ZM627.884 96.1023L627 96.5711L627.001 96.5731L627.884 96.1023ZM627.884 67.8409L628.766 68.3118L628.767 68.3097L627.884 67.8409ZM637.19 58.3636L637.676 59.2376L637.68 59.2355L637.19 58.3636ZM665.111 57.75L664.666 58.6455L664.672 58.6487L665.111 57.75ZM673.872 65.5909L673.019 66.1121L673.02 66.1147L673.872 65.5909ZM677.009 77.4545V78.4545H678.014L678.009 77.4495L677.009 77.4545ZM659.554 77.4545L658.558 77.5451L658.641 78.4545H659.554V77.4545ZM657.168 71.1818L656.427 71.8533L656.432 71.8594L656.438 71.8654L657.168 71.1818ZM647.759 70.4318L648.363 71.2283L648.372 71.2212L647.759 70.4318ZM644.895 74.6932L645.835 75.0331L645.837 75.0295L644.895 74.6932ZM644.895 88.9773L643.953 89.3136L643.954 89.3172L644.895 88.9773ZM647.759 93.2386L647.145 94.028L647.154 94.0351L647.759 93.2386ZM655.736 93.6818L656.248 94.5409L656.254 94.5369L656.261 94.5329L655.736 93.6818ZM658.327 90.8182L657.445 90.3459L657.442 90.3518L658.327 90.8182ZM659.554 86.1818V85.1818H658.626L658.557 86.107L659.554 86.1818ZM677.009 86.1818L678.008 86.1966L678.023 85.1818H677.009V86.1818ZM673.838 98.25L674.696 98.7645L674.697 98.762L673.838 98.25ZM665.145 106.159L664.7 105.264L664.698 105.265L665.145 106.159ZM651.781 107.955C646.231 107.955 641.543 106.856 637.676 104.706L636.704 106.453C640.929 108.803 645.968 109.955 651.781 109.955V107.955ZM637.68 104.708C633.799 102.527 630.834 99.5064 628.766 95.6314L627.001 96.5731C629.251 100.789 632.491 104.086 636.701 106.451L637.68 104.708ZM628.767 95.6335C626.696 91.7318 625.645 87.1817 625.645 81.9545H623.645C623.645 87.4546 624.753 92.3364 627 96.5711L628.767 95.6335ZM625.645 81.9545C625.645 76.7272 626.696 72.1895 628.766 68.3118L627.001 67.3701C624.753 71.5832 623.645 76.4546 623.645 81.9545H625.645ZM628.767 68.3097C630.835 64.413 633.799 61.3942 637.676 59.2376L636.704 57.4897C632.491 59.8331 629.25 63.1324 627 67.3721L628.767 68.3097ZM637.68 59.2355C641.546 57.0637 646.233 55.9545 651.781 55.9545V53.9545C645.966 53.9545 640.926 55.1181 636.701 57.4918L637.68 59.2355ZM651.781 55.9545C656.798 55.9545 661.082 56.8644 664.666 58.6455L665.556 56.8545C661.64 54.9083 657.038 53.9545 651.781 53.9545V55.9545ZM664.672 58.6487C668.284 60.411 671.056 62.8982 673.019 66.1121L674.726 65.0697C672.552 61.5109 669.483 58.7708 665.549 56.8513L664.672 58.6487ZM673.02 66.1147C674.979 69.2998 675.987 73.0691 676.009 77.4595L678.009 77.4495C677.985 72.7491 676.902 68.6093 674.724 65.0671L673.02 66.1147ZM677.009 76.4545H659.554V78.4545H677.009V76.4545ZM660.55 77.364C660.288 74.4807 659.442 72.1473 657.898 70.4983L656.438 71.8654C657.575 73.0799 658.32 74.9284 658.558 77.5451L660.55 77.364ZM657.909 70.5103C656.387 68.8317 654.406 68 652.054 68V70C653.883 70 655.311 70.6228 656.427 71.8533L657.909 70.5103ZM652.054 68C650.208 68 648.557 68.5439 647.145 69.6425L648.372 71.2212C649.415 70.4106 650.627 70 652.054 70V68ZM647.154 69.6354C645.73 70.7163 644.68 72.3216 643.953 74.3568L645.837 75.0295C646.473 73.2466 647.332 72.0109 648.363 71.2283L647.154 69.6354ZM643.954 74.3533C643.22 76.3844 642.872 78.8841 642.872 81.8182H644.872C644.872 79.025 645.206 76.7747 645.835 75.0331L643.954 74.3533ZM642.872 81.8182C642.872 84.7529 643.22 87.2621 643.953 89.3136L645.837 88.6409C645.206 86.8743 644.872 84.6107 644.872 81.8182H642.872ZM643.954 89.3172C644.682 91.3304 645.731 92.9283 647.145 94.028L648.372 92.4493C647.332 91.6399 646.471 90.3969 645.835 88.6373L643.954 89.3172ZM647.154 94.0351C648.566 95.1074 650.214 95.6364 652.054 95.6364V93.6364C650.622 93.6364 649.405 93.2335 648.363 92.4422L647.154 94.0351ZM652.054 95.6364C653.599 95.6364 655.007 95.2798 656.248 94.5409L655.224 92.8227C654.328 93.3566 653.281 93.6364 652.054 93.6364V95.6364ZM656.261 94.5329C657.5 93.7686 658.48 92.6723 659.211 91.2846L657.442 90.3518C656.856 91.4641 656.108 92.2769 655.211 92.8308L656.261 94.5329ZM659.208 91.2904C659.971 89.8669 660.407 88.1786 660.551 86.2566L658.557 86.107C658.428 87.8214 658.046 89.224 657.445 90.346L659.208 91.2904ZM659.554 87.1818H677.009V85.1818H659.554V87.1818ZM676.009 86.167C675.943 90.6329 674.922 94.4787 672.979 97.738L674.697 98.762C676.845 95.1577 677.938 90.958 678.008 86.1966L676.009 86.167ZM672.981 97.7355C671.039 100.972 668.288 103.48 664.7 105.264L665.59 107.055C669.501 105.111 672.546 102.346 674.696 98.7645L672.981 97.7355ZM664.698 105.265C661.139 107.044 656.845 107.955 651.781 107.955V109.955C657.081 109.955 661.696 109.001 665.592 107.054L664.698 105.265ZM743.409 105.58L742.919 106.451L742.923 106.453L743.409 105.58ZM734.102 96.1023L733.219 96.5711L733.22 96.5731L734.102 96.1023ZM734.102 67.8409L734.984 68.3118L734.986 68.3097L734.102 67.8409ZM743.409 58.3636L743.895 59.2376L743.899 59.2355L743.409 58.3636ZM772.591 58.3636L772.101 59.2355L772.105 59.2376L772.591 58.3636ZM781.898 67.8409L781.014 68.3097L781.016 68.3118L781.898 67.8409ZM781.898 96.1023L782.78 96.5731L782.781 96.5711L781.898 96.1023ZM772.591 105.58L773.077 106.453L773.081 106.451L772.591 105.58ZM762.261 93.4432L762.939 94.1785L762.939 94.1785L762.261 93.4432ZM764.955 88.875L765.906 89.1814L765.906 89.1814L764.955 88.875ZM764.955 74.7614L764.003 75.0677L764.004 75.0709L764.955 74.7614ZM762.261 70.1932L762.939 69.4578L762.939 69.4578L762.261 70.1932ZM751.045 74.7614L751.996 75.0709L751.997 75.0677L751.045 74.7614ZM751.045 88.875L751.997 88.5686L751.997 88.5686L751.045 88.875ZM758 107.955C752.45 107.955 747.762 106.856 743.895 104.706L742.923 106.453C747.147 108.803 752.186 109.955 758 109.955V107.955ZM743.899 104.708C740.018 102.527 737.053 99.5064 734.984 95.6314L733.22 96.5731C735.47 100.789 738.71 104.086 742.919 106.451L743.899 104.708ZM734.986 95.6335C732.915 91.7318 731.864 87.1817 731.864 81.9545H729.864C729.864 87.4546 730.972 92.3364 733.219 96.5711L734.986 95.6335ZM731.864 81.9545C731.864 76.7272 732.915 72.1895 734.984 68.3118L733.22 67.3701C730.971 71.5832 729.864 76.4546 729.864 81.9545H731.864ZM734.986 68.3097C737.054 64.413 740.018 61.3942 743.895 59.2376L742.923 57.4897C738.71 59.8331 735.469 63.1324 733.219 67.3721L734.986 68.3097ZM743.899 59.2355C747.765 57.0637 752.452 55.9545 758 55.9545V53.9545C752.185 53.9545 747.144 55.1181 742.919 57.4918L743.899 59.2355ZM758 55.9545C763.548 55.9545 768.235 57.0637 772.101 59.2355L773.081 57.4918C768.856 55.1181 763.815 53.9545 758 53.9545V55.9545ZM772.105 59.2376C775.982 61.3942 778.946 64.413 781.014 68.3097L782.781 67.3721C780.531 63.1324 777.29 59.8331 773.077 57.4897L772.105 59.2376ZM781.016 68.3118C783.085 72.1895 784.136 76.7272 784.136 81.9545H786.136C786.136 76.4546 785.029 71.5832 782.78 67.3701L781.016 68.3118ZM784.136 81.9545C784.136 87.1817 783.085 91.7318 781.014 95.6335L782.781 96.5711C785.028 92.3364 786.136 87.4546 786.136 81.9545H784.136ZM781.016 95.6314C778.947 99.5064 775.982 102.527 772.101 104.708L773.081 106.451C777.29 104.086 780.53 100.789 782.78 96.5731L781.016 95.6314ZM772.105 104.706C768.238 106.856 763.55 107.955 758 107.955V109.955C763.814 109.955 768.853 108.803 773.077 106.453L772.105 104.706ZM758.136 96.0455C759.976 96.0455 761.593 95.4186 762.939 94.1785L761.584 92.7078C760.611 93.6041 759.479 94.0455 758.136 94.0455V96.0455ZM762.939 94.1785C764.259 92.962 765.234 91.2723 765.906 89.1814L764.003 88.5686C763.403 90.4322 762.582 91.788 761.584 92.7078L762.939 94.1785ZM765.906 89.1814C766.583 87.0797 766.909 84.6189 766.909 81.8182H764.909C764.909 84.4721 764.599 86.7158 764.003 88.5686L765.906 89.1814ZM766.909 81.8182C766.909 78.9962 766.583 76.5336 765.905 74.4518L764.004 75.0709C764.599 76.8982 764.909 79.1401 764.909 81.8182H766.909ZM765.906 74.455C765.234 72.3641 764.259 70.6743 762.939 69.4578L761.584 70.9285C762.582 71.8484 763.403 73.2041 764.003 75.0677L765.906 74.455ZM762.939 69.4578C761.593 68.2177 759.976 67.5909 758.136 67.5909V69.5909C759.479 69.5909 760.611 70.0323 761.584 70.9285L762.939 69.4578ZM758.136 67.5909C756.222 67.5909 754.54 68.2068 753.143 69.445L754.47 70.9414C755.483 70.0432 756.687 69.5909 758.136 69.5909V67.5909ZM753.143 69.445C751.771 70.6617 750.769 72.3557 750.094 74.455L751.997 75.0677C752.594 73.2124 753.433 71.861 754.47 70.9414L753.143 69.445ZM750.095 74.4518C749.417 76.5336 749.091 78.9962 749.091 81.8182H751.091C751.091 79.1401 751.401 76.8982 751.996 75.0709L750.095 74.4518ZM749.091 81.8182C749.091 84.6189 749.417 87.0797 750.094 89.1814L751.997 88.5686C751.401 86.7158 751.091 84.4721 751.091 81.8182H749.091ZM750.094 89.1814C750.769 91.2806 751.771 92.9746 753.143 94.1914L754.47 92.695C753.433 91.7754 752.594 90.4239 751.997 88.5686L750.094 89.1814ZM753.143 94.1914C754.54 95.4295 756.222 96.0455 758.136 96.0455V94.0455C756.687 94.0455 755.483 93.5932 754.47 92.695L753.143 94.1914ZM878.136 74.5909H879.136V73.5909H878.136V74.5909ZM878.136 88.6364V89.6364H879.136V88.6364H878.136ZM851.818 88.6364H850.818V89.6364H851.818V88.6364ZM851.818 74.5909V73.5909H850.818V74.5909H851.818ZM858.5 55.6364H859.5V54.6364H858.5V55.6364ZM858.5 108V109H859.5V108H858.5ZM840.773 108H839.773V109H840.773V108ZM840.773 55.6364V54.6364H839.773V55.6364H840.773ZM889.182 55.6364H890.182V54.6364H889.182V55.6364ZM889.182 108V109H890.182V108H889.182ZM871.591 108H870.591V109H871.591V108ZM871.591 55.6364V54.6364H870.591V55.6364H871.591ZM877.136 74.5909V88.6364H879.136V74.5909H877.136ZM878.136 87.6364H851.818V89.6364H878.136V87.6364ZM852.818 88.6364V74.5909H850.818V88.6364H852.818ZM851.818 75.5909H878.136V73.5909H851.818V75.5909ZM857.5 55.6364V108H859.5V55.6364H857.5ZM858.5 107H840.773V109H858.5V107ZM841.773 108V55.6364H839.773V108H841.773ZM840.773 56.6364H858.5V54.6364H840.773V56.6364ZM888.182 55.6364V108H890.182V55.6364H888.182ZM889.182 107H871.591V109H889.182V107ZM872.591 108V55.6364H870.591V108H872.591ZM871.591 56.6364H889.182V54.6364H871.591V56.6364ZM951.875 107.182L951.474 108.098L951.484 108.102L951.875 107.182ZM945.875 102.136L945.035 102.679L945.035 102.679L945.875 102.136ZM945.159 86.2159L946.06 86.6509L946.061 86.647L945.159 86.2159ZM949.25 81.2045L949.845 82.0083L949.845 82.0083L949.25 81.2045ZM955.352 78.2386L955.073 77.2785L955.07 77.2793L955.352 78.2386ZM962.92 76.9091L962.996 77.9062L962.998 77.9061L962.92 76.9091ZM969.977 76.0909L970.154 77.0752L970.164 77.0734L969.977 76.0909ZM973.864 74.6932L974.46 75.4959L974.467 75.4905L974.474 75.485L973.864 74.6932ZM973.489 69L972.918 69.8209L972.918 69.8209L973.489 69ZM965.068 69.1023L965.638 69.9239L965.642 69.9215L965.068 69.1023ZM963.057 72.6818V73.6818H963.926L964.047 72.8213L963.057 72.6818ZM945.739 72.6818L944.741 72.6106L944.665 73.6818H945.739V72.6818ZM948.773 63.8864L947.943 63.3284L947.942 63.33L948.773 63.8864ZM956.716 57.4091L957.137 58.3162L957.142 58.3139L956.716 57.4091ZM979.83 56.2841L979.544 57.2425L979.551 57.2445L979.83 56.2841ZM987.432 59.9318L986.832 60.7318L986.837 60.736L987.432 59.9318ZM992.205 65.3864L991.318 65.849L991.324 65.8605L992.205 65.3864ZM993.875 108V109H994.875V108H993.875ZM976.284 108H975.284V109H976.284V108ZM976.284 100.636H977.284V99.6364H976.284V100.636ZM975.875 100.636V99.6364H975.276L974.993 100.165L975.875 100.636ZM972.057 105.375L971.431 104.595L971.425 104.6L972.057 105.375ZM966.977 108L966.703 107.038L966.699 107.039L966.977 108ZM970.898 96.0682L970.477 95.1612L970.47 95.1641L970.898 96.0682ZM974 93.5114L973.186 92.9301L973.186 92.9301L974 93.5114ZM975.193 85.0909H976.193V83.6014L974.815 84.1654L975.193 85.0909ZM973.591 85.6705L973.286 84.718L973.275 84.7218L973.591 85.6705ZM971.818 86.1818L971.576 85.2116L971.567 85.2138L971.818 86.1818ZM969.841 86.625L969.651 85.6432L969.645 85.6444L969.841 86.625ZM967.693 87L967.543 86.0113L967.539 86.012L967.693 87ZM964.114 88.125L964.596 89.0012L964.603 88.9971L964.114 88.125ZM962.068 90L961.213 89.4817L961.208 89.4895L962.068 90ZM962.955 95.7955L963.557 94.9976L963.557 94.9976L962.955 95.7955ZM960.739 107.818C957.506 107.818 954.689 107.291 952.266 106.261L951.484 108.102C954.198 109.255 957.289 109.818 960.739 109.818V107.818ZM952.276 106.266C949.903 105.228 948.059 103.672 946.715 101.593L945.035 102.679C946.6 105.1 948.756 106.909 951.474 108.098L952.276 106.266ZM946.715 101.593C945.392 99.547 944.693 96.8867 944.693 93.5455H942.693C942.693 97.1588 943.449 100.226 945.035 102.679L946.715 101.593ZM944.693 93.5455C944.693 90.7924 945.163 88.506 946.06 86.6509L944.259 85.7809C943.2 87.9712 942.693 90.5712 942.693 93.5455H944.693ZM946.061 86.647C946.971 84.7427 948.232 83.2024 949.845 82.0083L948.655 80.4008C946.768 81.7976 945.302 83.5982 944.257 85.7848L946.061 86.647ZM949.845 82.0083C951.491 80.7899 953.417 79.8503 955.634 79.198L955.07 77.2793C952.652 77.9906 950.509 79.0283 948.655 80.4008L949.845 82.0083ZM955.632 79.1987C957.899 78.5383 960.353 78.1061 962.996 77.9062L962.845 75.9119C960.079 76.1211 957.487 76.5753 955.073 77.2785L955.632 79.1987ZM962.998 77.9061C965.945 77.6776 968.334 77.4018 970.154 77.0752L969.801 75.1066C968.075 75.4164 965.76 75.686 962.843 75.9121L962.998 77.9061ZM970.164 77.0734C972.003 76.7242 973.48 76.2242 974.46 75.4959L973.267 73.8904C972.657 74.344 971.543 74.7758 969.791 75.1085L970.164 77.0734ZM974.474 75.485C975.514 74.683 976.057 73.5844 976.057 72.2727H974.057C974.057 72.9611 973.804 73.4761 973.253 73.9014L974.474 75.485ZM976.057 72.2727V72.1364H974.057V72.2727H976.057ZM976.057 72.1364C976.057 70.4727 975.396 69.1084 974.06 68.1791L972.918 69.8209C973.673 70.3462 974.057 71.0728 974.057 72.1364H976.057ZM974.06 68.1791C972.805 67.306 971.248 66.9091 969.466 66.9091V68.9091C970.956 68.9091 972.082 69.2395 972.918 69.8209L974.06 68.1791ZM969.466 66.9091C967.525 66.9091 965.842 67.3396 964.495 68.283L965.642 69.9215C966.567 69.274 967.816 68.9091 969.466 68.9091V66.9091ZM964.498 68.2807C963.11 69.244 962.324 70.7132 962.067 72.5423L964.047 72.8213C964.244 71.4232 964.799 70.506 965.638 69.9239L964.498 68.2807ZM963.057 71.6818H945.739V73.6818H963.057V71.6818ZM946.736 72.7531C946.951 69.7468 947.904 66.9818 949.604 64.4427L947.942 63.33C946.051 66.1545 944.981 69.2532 944.741 72.6106L946.736 72.7531ZM949.603 64.4443C951.302 61.9162 953.796 59.8667 957.137 58.3162L956.295 56.502C952.682 58.1788 949.88 60.4474 947.943 63.3284L949.603 64.4443ZM957.142 58.3139C960.447 56.7583 964.632 55.9545 969.739 55.9545V53.9545C964.436 53.9545 959.939 54.7871 956.29 56.5043L957.142 58.3139ZM969.739 55.9545C973.411 55.9545 976.676 56.3887 979.544 57.2425L980.115 55.3257C977.028 54.4067 973.566 53.9545 969.739 53.9545V55.9545ZM979.551 57.2445C982.433 58.0806 984.854 59.2482 986.832 60.7318L988.032 59.1318C985.828 57.4791 983.18 56.2148 980.108 55.3237L979.551 57.2445ZM986.837 60.736C988.819 62.2006 990.304 63.9059 991.318 65.8489L993.091 64.9238C991.923 62.685 990.227 60.7539 988.026 59.1276L986.837 60.736ZM991.324 65.8605C992.356 67.7777 992.875 69.864 992.875 72.1364H994.875C994.875 69.5451 994.28 67.1314 993.085 64.9123L991.324 65.8605ZM992.875 72.1364V108H994.875V72.1364H992.875ZM993.875 107H976.284V109H993.875V107ZM977.284 108V100.636H975.284V108H977.284ZM976.284 99.6364H975.875V101.636H976.284V99.6364ZM974.993 100.165C974.002 102.018 972.811 103.487 971.431 104.595L972.683 106.155C974.303 104.854 975.657 103.163 976.757 101.108L974.993 100.165ZM971.425 104.6C970.057 105.715 968.487 106.529 966.703 107.038L967.252 108.962C969.286 108.38 971.102 107.444 972.689 106.15L971.425 104.6ZM966.699 107.039C964.916 107.555 962.932 107.818 960.739 107.818V109.818C963.091 109.818 965.266 109.536 967.255 108.961L966.699 107.039ZM966.875 97.9545C968.449 97.9545 969.937 97.6286 971.325 96.9723L970.47 95.1641C969.359 95.6896 968.164 95.9545 966.875 95.9545V97.9545ZM971.319 96.9752C972.744 96.3134 973.915 95.3506 974.814 94.0926L973.186 92.9301C972.494 93.8994 971.597 94.6412 970.477 95.1612L971.319 96.9752ZM974.814 94.0926C975.749 92.783 976.193 91.2189 976.193 89.4545H974.193C974.193 90.872 973.842 92.0125 973.186 92.9301L974.814 94.0926ZM976.193 89.4545V85.0909H974.193V89.4545H976.193ZM974.815 84.1654C974.341 84.359 973.832 84.5434 973.286 84.718L973.896 86.6229C974.486 86.4339 975.045 86.2319 975.572 86.0165L974.815 84.1654ZM973.275 84.7218C972.757 84.8945 972.191 85.0579 971.576 85.2117L972.061 87.152C972.719 86.9875 973.334 86.8101 973.907 86.6191L973.275 84.7218ZM971.567 85.2138C970.976 85.3671 970.338 85.5103 969.651 85.6432L970.031 87.6068C970.753 87.467 971.433 87.3148 972.069 87.1498L971.567 85.2138ZM969.645 85.6444C968.98 85.7774 968.279 85.8998 967.543 86.0113L967.843 87.9887C968.607 87.8729 969.339 87.7453 970.037 87.6056L969.645 85.6444ZM967.539 86.012C966.008 86.2512 964.691 86.6544 963.624 87.2529L964.603 88.9971C965.4 88.5501 966.469 88.2034 967.848 87.988L967.539 86.012ZM963.632 87.2488C962.597 87.8177 961.774 88.5564 961.213 89.4817L962.923 90.5183C963.272 89.9436 963.812 89.4323 964.596 89.0012L963.632 87.2488ZM961.208 89.4895C960.678 90.3828 960.42 91.3797 960.42 92.4545H962.42C962.42 91.7112 962.595 91.0718 962.928 90.5105L961.208 89.4895ZM960.42 92.4545C960.42 94.1744 961.043 95.6043 962.352 96.5933L963.557 94.9976C962.821 94.4412 962.42 93.6438 962.42 92.4545H960.42ZM962.352 96.5933C963.586 97.5261 965.12 97.9545 966.875 97.9545V95.9545C965.448 95.9545 964.368 95.6102 963.557 94.9976L962.352 96.5933ZM1048.82 108L1047.82 108.01L1047.83 109H1048.82V108ZM1048.68 93.8182V92.8182H1047.67L1047.68 93.8278L1048.68 93.8182ZM1053.01 92.9318L1052.42 92.129L1052.41 92.1375L1053.01 92.9318ZM1055.03 90.2045L1054.12 89.7844L1054.11 89.7914L1054.11 89.7984L1055.03 90.2045ZM1056.36 85.5341L1055.37 85.3562L1055.37 85.3678L1056.36 85.5341ZM1057 78.8182L1056 78.7829L1056 78.7831L1057 78.8182ZM1057.82 55.6364V54.6364H1056.86L1056.82 55.6011L1057.82 55.6364ZM1100.91 55.6364H1101.91V54.6364H1100.91V55.6364ZM1100.91 108V109H1101.91V108H1100.91ZM1083.18 108H1082.18V109H1083.18V108ZM1083.18 69.6818H1084.18V68.6818H1083.18V69.6818ZM1074.46 69.6818V68.6818H1073.51L1073.46 69.6242L1074.46 69.6818ZM1073.64 83.8636L1072.64 83.806L1072.64 83.8127L1073.64 83.8636ZM1071.73 95.1818L1070.78 94.8614L1070.78 94.8677L1071.73 95.1818ZM1067.64 102.648L1068.38 103.323L1068.38 103.318L1067.64 102.648ZM1061.71 106.739L1062.06 107.675L1062.07 107.672L1061.71 106.739ZM1049.82 107.99L1049.68 93.8086L1047.68 93.8278L1047.82 108.01L1049.82 107.99ZM1048.68 94.8182H1050.32V92.8182H1048.68V94.8182ZM1050.32 94.8182C1051.55 94.8182 1052.67 94.4576 1053.62 93.7262L1052.41 92.1375C1051.82 92.5878 1051.14 92.8182 1050.32 92.8182V94.8182ZM1053.61 93.7346C1054.58 93.0109 1055.35 91.9417 1055.94 90.6107L1054.11 89.7984C1053.61 90.922 1053.03 91.6709 1052.42 92.1291L1053.61 93.7346ZM1055.93 90.6247C1056.55 89.291 1057.01 87.6414 1057.34 85.7004L1055.37 85.3678C1055.06 87.1995 1054.64 88.6635 1054.12 89.7844L1055.93 90.6247ZM1057.34 85.7119C1057.69 83.7653 1057.91 81.4766 1058 78.8532L1056 78.7831C1055.91 81.3416 1055.7 83.5302 1055.37 85.3562L1057.34 85.7119ZM1058 78.8535L1058.82 55.6716L1056.82 55.6011L1056 78.7829L1058 78.8535ZM1057.82 56.6364H1100.91V54.6364H1057.82V56.6364ZM1099.91 55.6364V108H1101.91V55.6364H1099.91ZM1100.91 107H1083.18V109H1100.91V107ZM1084.18 108V69.6818H1082.18V108H1084.18ZM1083.18 68.6818H1074.46V70.6818H1083.18V68.6818ZM1073.46 69.6242L1072.64 83.806L1074.64 83.9212L1075.46 69.7394L1073.46 69.6242ZM1072.64 83.8127C1072.42 88.2066 1071.79 91.8828 1070.78 94.8614L1072.68 95.5022C1073.76 92.299 1074.41 88.4298 1074.64 83.9146L1072.64 83.8127ZM1070.78 94.8677C1069.79 97.8623 1068.49 100.219 1066.9 101.977L1068.38 103.318C1070.2 101.304 1071.62 98.6832 1072.68 95.496L1070.78 94.8677ZM1066.9 101.973C1065.3 103.728 1063.45 105 1061.35 105.805L1062.07 107.672C1064.47 106.75 1066.57 105.295 1068.38 103.323L1066.9 101.973ZM1061.36 105.802C1059.23 106.596 1056.88 107 1054.28 107V109C1057.08 109 1059.68 108.563 1062.06 107.675L1061.36 105.802ZM1054.28 107H1048.82V109H1054.28V107ZM1279.19 66.4091H1280.19V65.4091H1279.19V66.4091ZM1279.19 81.1364V82.1364H1280.19V81.1364H1279.19ZM1248.24 81.1364H1247.24V82.1364H1248.24V81.1364ZM1248.24 66.4091V65.4091H1247.24V66.4091H1248.24ZM1224.64 84.4091V83.4091H1223.6L1223.65 84.4545L1224.64 84.4091ZM1243.33 84.4091L1244.33 84.4357L1244.35 83.4091H1243.33V84.4091ZM1246.22 91.9432L1245.6 92.7249L1245.61 92.7283L1246.22 91.9432ZM1262.21 92.4205L1262.81 93.2205L1262.81 93.2192L1262.21 92.4205ZM1265.79 86.25L1264.82 86.0223L1264.82 86.028L1265.79 86.25ZM1261.97 54.0682L1262.59 53.2771L1262.59 53.2771L1261.97 54.0682ZM1247.72 53.3523L1248.17 54.2491L1248.17 54.2491L1247.72 53.3523ZM1244.21 56.9659L1245.14 57.3419L1245.14 57.3419L1244.21 56.9659ZM1243.19 62.5909V63.5909H1244.17L1244.19 62.6117L1243.19 62.5909ZM1224.51 62.5909L1223.51 62.4943L1223.41 63.5909H1224.51V62.5909ZM1238.76 40.6364L1239.22 41.5233L1239.22 41.5233L1238.76 40.6364ZM1270.94 41.3523L1270.42 42.2056L1270.42 42.2086L1270.94 41.3523ZM1281.44 53.0795L1280.54 53.5171L1280.54 53.5219L1281.44 53.0795ZM1281.58 93.3409L1282.48 93.7734L1282.48 93.7718L1281.58 93.3409ZM1271.14 104.932L1271.65 105.793L1271.66 105.791L1271.14 104.932ZM1239.2 105.955L1238.78 106.863L1238.79 106.866L1239.2 105.955ZM1228.77 97.4318L1227.94 97.9971L1227.95 98.0029L1228.77 97.4318ZM1278.19 66.4091V81.1364H1280.19V66.4091H1278.19ZM1279.19 80.1364H1248.24V82.1364H1279.19V80.1364ZM1249.24 81.1364V66.4091H1247.24V81.1364H1249.24ZM1248.24 67.4091H1279.19V65.4091H1248.24V67.4091ZM1224.64 85.4091H1243.33V83.4091H1224.64V85.4091ZM1242.33 84.3824C1242.23 87.9966 1243.26 90.8567 1245.6 92.7249L1246.85 91.1615C1245.14 89.8024 1244.24 87.6398 1244.33 84.4357L1242.33 84.3824ZM1245.61 92.7283C1247.88 94.5247 1250.93 95.3636 1254.64 95.3636V93.3636C1251.22 93.3636 1248.66 92.589 1246.84 91.1581L1245.61 92.7283ZM1254.64 95.3636C1258.07 95.3636 1260.84 94.6988 1262.81 93.2205L1261.61 91.6205C1260.13 92.733 1257.86 93.3636 1254.64 93.3636V95.3636ZM1262.81 93.2192C1264.81 91.72 1266.1 89.4256 1266.77 86.472L1264.82 86.028C1264.22 88.6653 1263.12 90.4846 1261.61 91.6217L1262.81 93.2192ZM1266.77 86.4777C1267.45 83.5557 1267.78 79.8121 1267.78 75.2727H1265.78C1265.78 79.7333 1265.45 83.3079 1264.82 86.0223L1266.77 86.4777ZM1267.78 75.2727V71.0455H1265.78V75.2727H1267.78ZM1267.78 71.0455C1267.78 66.5894 1267.4 62.8913 1266.62 59.9795L1264.69 60.4978C1265.41 63.1769 1265.78 66.6833 1265.78 71.0455H1267.78ZM1266.62 59.9795C1265.83 57.0447 1264.51 54.7685 1262.59 53.2771L1261.36 54.8592C1262.84 56.0043 1263.98 57.8416 1264.69 60.4978L1266.62 59.9795ZM1262.59 53.2771C1260.65 51.783 1258.11 51.0909 1255.05 51.0909V53.0909C1257.82 53.0909 1259.89 53.717 1261.36 54.8592L1262.59 53.2771ZM1255.05 51.0909C1251.81 51.0909 1249.19 51.5156 1247.28 52.4555L1248.17 54.2491C1249.67 53.5071 1251.94 53.0909 1255.05 53.0909V51.0909ZM1247.28 52.4555C1245.39 53.3905 1244.03 54.7664 1243.29 56.5899L1245.14 57.3419C1245.67 56.0291 1246.65 54.9959 1248.17 54.2491L1247.28 52.4555ZM1243.29 56.5899C1242.59 58.2984 1242.24 60.3 1242.19 62.5701L1244.19 62.6117C1244.23 60.5182 1244.56 58.7697 1245.14 57.3419L1243.29 56.5899ZM1243.19 61.5909H1224.51V63.5909H1243.19V61.5909ZM1225.5 62.6875C1225.94 58.1488 1227.3 54.0334 1229.56 50.3272L1227.85 49.2864C1225.42 53.262 1223.98 57.6694 1223.51 62.4943L1225.5 62.6875ZM1229.56 50.3272C1231.79 46.6563 1235 43.72 1239.22 41.5233L1238.3 39.7494C1233.79 42.0982 1230.29 45.2755 1227.85 49.2864L1229.56 50.3272ZM1239.22 41.5233C1243.4 39.3448 1248.67 38.2273 1255.05 38.2273V36.2273C1248.44 36.2273 1242.84 37.3824 1238.3 39.7494L1239.22 41.5233ZM1255.05 38.2273C1260.99 38.2273 1266.1 39.5656 1270.42 42.2056L1271.46 40.499C1266.78 37.639 1261.3 36.2273 1255.05 36.2273V38.2273ZM1270.42 42.2086C1274.77 44.8289 1278.14 48.5867 1280.54 53.5171L1282.34 52.642C1279.78 47.3905 1276.16 43.3302 1271.46 40.4959L1270.42 42.2086ZM1280.54 53.5219C1282.96 58.4236 1284.19 64.2994 1284.19 71.1818H1286.19C1286.19 64.0642 1284.92 57.8718 1282.34 52.6372L1280.54 53.5219ZM1284.19 71.1818V75.2727H1286.19V71.1818H1284.19ZM1284.19 75.2727C1284.19 82.1602 1283.01 88.0286 1280.67 92.91L1282.48 93.7718C1284.97 88.5623 1286.19 82.3853 1286.19 75.2727H1284.19ZM1280.68 92.9084C1278.35 97.7635 1275 101.474 1270.63 104.072L1271.66 105.791C1276.38 102.98 1279.99 98.9638 1282.48 93.7734L1280.68 92.9084ZM1270.64 104.071C1266.28 106.643 1260.96 107.955 1254.64 107.955V109.955C1261.24 109.955 1266.92 108.584 1271.65 105.793L1270.64 104.071ZM1254.64 107.955C1248.89 107.955 1243.89 106.974 1239.61 105.043L1238.79 106.866C1243.38 108.935 1248.67 109.955 1254.64 109.955V107.955ZM1239.62 105.046C1235.36 103.091 1232.03 100.36 1229.59 96.8608L1227.95 98.0029C1230.61 101.821 1234.23 104.773 1238.78 106.863L1239.62 105.046ZM1229.59 96.8666C1227.19 93.3566 1225.86 89.2008 1225.64 84.3637L1223.65 84.4545C1223.88 89.6174 1225.3 94.1434 1227.94 97.997L1229.59 96.8666ZM1342.15 108H1341.15V109H1342.15V108ZM1342.15 55.6364V54.6364H1341.15V55.6364H1342.15ZM1360.97 55.6364H1361.97V54.6364H1360.97V55.6364ZM1360.97 74.3182H1359.97V75.3182H1360.97V74.3182ZM1364.24 74.3182V75.3182H1364.81L1365.1 74.8318L1364.24 74.3182ZM1375.42 55.6364V54.6364H1374.85L1374.56 55.1228L1375.42 55.6364ZM1396.97 55.6364L1397.81 56.1718L1398.78 54.6364H1396.97V55.6364ZM1380.19 82.0909L1379.35 81.5554L1379 82.0987L1379.36 82.6374L1380.19 82.0909ZM1397.1 108V109H1398.95L1397.94 107.453L1397.1 108ZM1375.28 108L1374.43 108.528L1374.73 109H1375.28V108ZM1365.19 91.7727L1366.04 91.2447L1365.75 90.7727H1365.19V91.7727ZM1360.97 91.7727V90.7727H1359.97V91.7727H1360.97ZM1360.97 108V109H1361.97V108H1360.97ZM1343.15 108V55.6364H1341.15V108H1343.15ZM1342.15 56.6364H1360.97V54.6364H1342.15V56.6364ZM1359.97 55.6364V74.3182H1361.97V55.6364H1359.97ZM1360.97 75.3182H1364.24V73.3182H1360.97V75.3182ZM1365.1 74.8318L1376.28 56.1499L1374.56 55.1228L1363.38 73.8046L1365.1 74.8318ZM1375.42 56.6364H1396.97V54.6364H1375.42V56.6364ZM1396.12 55.1009L1379.35 81.5554L1381.04 82.6264L1397.81 56.1718L1396.12 55.1009ZM1379.36 82.6374L1396.26 108.547L1397.94 107.453L1381.03 81.5444L1379.36 82.6374ZM1397.1 107H1375.28V109H1397.1V107ZM1376.13 107.472L1366.04 91.2447L1364.34 92.3008L1374.43 108.528L1376.13 107.472ZM1365.19 90.7727H1360.97V92.7727H1365.19V90.7727ZM1359.97 91.7727V108H1361.97V91.7727H1359.97ZM1360.97 107H1342.15V109H1360.97V107ZM1457.97 105.58L1457.48 106.451L1457.49 106.453L1457.97 105.58ZM1448.66 96.1023L1447.78 96.5711L1447.78 96.5731L1448.66 96.1023ZM1448.66 67.8409L1449.55 68.3118L1449.55 68.3097L1448.66 67.8409ZM1457.97 58.3636L1458.46 59.2376L1458.46 59.2355L1457.97 58.3636ZM1485.89 57.75L1485.45 58.6455L1485.45 58.6487L1485.89 57.75ZM1494.65 65.5909L1493.8 66.1121L1493.8 66.1147L1494.65 65.5909ZM1497.79 77.4545V78.4545H1498.79L1498.79 77.4495L1497.79 77.4545ZM1480.34 77.4545L1479.34 77.5451L1479.42 78.4545H1480.34V77.4545ZM1477.95 71.1818L1477.21 71.8533L1477.21 71.8594L1477.22 71.8654L1477.95 71.1818ZM1468.54 70.4318L1469.14 71.2283L1469.15 71.2212L1468.54 70.4318ZM1465.68 74.6932L1466.62 75.0331L1466.62 75.0295L1465.68 74.6932ZM1465.68 88.9773L1464.73 89.3136L1464.74 89.3172L1465.68 88.9773ZM1468.54 93.2386L1467.93 94.028L1467.94 94.0351L1468.54 93.2386ZM1476.52 93.6818L1477.03 94.5409L1477.04 94.5369L1477.04 94.5329L1476.52 93.6818ZM1479.11 90.8182L1478.23 90.3459L1478.22 90.3518L1479.11 90.8182ZM1480.34 86.1818V85.1818H1479.41L1479.34 86.107L1480.34 86.1818ZM1497.79 86.1818L1498.79 86.1966L1498.8 85.1818H1497.79V86.1818ZM1494.62 98.25L1495.48 98.7645L1495.48 98.762L1494.62 98.25ZM1485.93 106.159L1485.48 105.264L1485.48 105.265L1485.93 106.159ZM1472.56 107.955C1467.01 107.955 1462.32 106.856 1458.46 104.706L1457.49 106.453C1461.71 108.803 1466.75 109.955 1472.56 109.955V107.955ZM1458.46 104.708C1454.58 102.527 1451.62 99.5064 1449.55 95.6314L1447.78 96.5731C1450.03 100.789 1453.27 104.086 1457.48 106.451L1458.46 104.708ZM1449.55 95.6335C1447.48 91.7318 1446.43 87.1817 1446.43 81.9545H1444.43C1444.43 87.4546 1445.53 92.3364 1447.78 96.5711L1449.55 95.6335ZM1446.43 81.9545C1446.43 76.7272 1447.48 72.1895 1449.55 68.3118L1447.78 67.3701C1445.53 71.5832 1444.43 76.4546 1444.43 81.9545H1446.43ZM1449.55 68.3097C1451.62 64.413 1454.58 61.3942 1458.46 59.2376L1457.49 57.4897C1453.27 59.8331 1450.03 63.1324 1447.78 67.3721L1449.55 68.3097ZM1458.46 59.2355C1462.33 57.0637 1467.01 55.9545 1472.56 55.9545V53.9545C1466.75 53.9545 1461.71 55.1181 1457.48 57.4918L1458.46 59.2355ZM1472.56 55.9545C1477.58 55.9545 1481.86 56.8644 1485.45 58.6455L1486.34 56.8545C1482.42 54.9083 1477.82 53.9545 1472.56 53.9545V55.9545ZM1485.45 58.6487C1489.07 60.411 1491.84 62.8982 1493.8 66.1121L1495.51 65.0697C1493.33 61.5109 1490.26 58.7708 1486.33 56.8513L1485.45 58.6487ZM1493.8 66.1147C1495.76 69.2998 1496.77 73.0691 1496.79 77.4595L1498.79 77.4495C1498.77 72.7491 1497.68 68.6093 1495.51 65.0671L1493.8 66.1147ZM1497.79 76.4545H1480.34V78.4545H1497.79V76.4545ZM1481.33 77.364C1481.07 74.4807 1480.22 72.1473 1478.68 70.4983L1477.22 71.8654C1478.36 73.0799 1479.1 74.9284 1479.34 77.5451L1481.33 77.364ZM1478.69 70.5103C1477.17 68.8317 1475.19 68 1472.84 68V70C1474.66 70 1476.09 70.6228 1477.21 71.8533L1478.69 70.5103ZM1472.84 68C1470.99 68 1469.34 68.5439 1467.93 69.6425L1469.15 71.2212C1470.2 70.4106 1471.41 70 1472.84 70V68ZM1467.94 69.6354C1466.51 70.7163 1465.46 72.3216 1464.73 74.3568L1466.62 75.0295C1467.25 73.2466 1468.11 72.0109 1469.14 71.2283L1467.94 69.6354ZM1464.74 74.3533C1464 76.3844 1463.65 78.8841 1463.65 81.8182H1465.65C1465.65 79.025 1465.99 76.7747 1466.62 75.0331L1464.74 74.3533ZM1463.65 81.8182C1463.65 84.7529 1464 87.2621 1464.73 89.3136L1466.62 88.6409C1465.99 86.8743 1465.65 84.6107 1465.65 81.8182H1463.65ZM1464.74 89.3172C1465.46 91.3304 1466.51 92.9283 1467.93 94.028L1469.15 92.4493C1468.11 91.6399 1467.25 90.3969 1466.62 88.6373L1464.74 89.3172ZM1467.94 94.0351C1469.35 95.1074 1470.99 95.6364 1472.84 95.6364V93.6364C1471.4 93.6364 1470.19 93.2335 1469.14 92.4422L1467.94 94.0351ZM1472.84 95.6364C1474.38 95.6364 1475.79 95.2798 1477.03 94.5409L1476.01 92.8227C1475.11 93.3566 1474.06 93.6364 1472.84 93.6364V95.6364ZM1477.04 94.5329C1478.28 93.7686 1479.26 92.6723 1479.99 91.2846L1478.22 90.3518C1477.64 91.4641 1476.89 92.2769 1475.99 92.8308L1477.04 94.5329ZM1479.99 91.2904C1480.75 89.8669 1481.19 88.1786 1481.33 86.2566L1479.34 86.107C1479.21 87.8214 1478.83 89.224 1478.23 90.346L1479.99 91.2904ZM1480.34 87.1818H1497.79V85.1818H1480.34V87.1818ZM1496.79 86.167C1496.72 90.6329 1495.7 94.4787 1493.76 97.738L1495.48 98.762C1497.63 95.1577 1498.72 90.958 1498.79 86.1966L1496.79 86.167ZM1493.76 97.7355C1491.82 100.972 1489.07 103.48 1485.48 105.264L1486.37 107.055C1490.28 105.111 1493.33 102.346 1495.48 98.7645L1493.76 97.7355ZM1485.48 105.265C1481.92 107.044 1477.63 107.955 1472.56 107.955V109.955C1477.86 109.955 1482.48 109.001 1486.37 107.054L1485.48 105.265ZM1553.55 108H1552.55V109H1553.55V108ZM1553.55 55.6364V54.6364H1552.55V55.6364H1553.55ZM1602.37 55.6364H1603.37V54.6364H1602.37V55.6364ZM1602.37 108V109H1603.37V108H1602.37ZM1584.64 108H1583.64V109H1584.64V108ZM1584.64 69.6818H1585.64V68.6818H1584.64V69.6818ZM1571.01 69.6818V68.6818H1570.01V69.6818H1571.01ZM1571.01 108V109H1572.01V108H1571.01ZM1554.55 108V55.6364H1552.55V108H1554.55ZM1553.55 56.6364H1602.37V54.6364H1553.55V56.6364ZM1601.37 55.6364V108H1603.37V55.6364H1601.37ZM1602.37 107H1584.64V109H1602.37V107ZM1585.64 108V69.6818H1583.64V108H1585.64ZM1584.64 68.6818H1571.01V70.6818H1584.64V68.6818ZM1570.01 69.6818V108H1572.01V69.6818H1570.01ZM1571.01 107H1553.55V109H1571.01V107ZM1659.96 127.636H1658.96V128.636H1659.96V127.636ZM1659.96 55.6364V54.6364H1658.96V55.6364H1659.96ZM1678.64 55.6364H1679.64V54.6364H1678.64V55.6364ZM1678.64 64.7727H1677.64V65.7727H1678.64V64.7727ZM1679.05 64.7727V65.7727H1679.74L1679.98 65.1317L1679.05 64.7727ZM1682.05 59.8977L1682.8 60.5635L1682.8 60.5578L1682.05 59.8977ZM1686.96 56.3182L1687.37 57.2289L1687.38 57.2249L1686.96 56.3182ZM1703.63 57.7159L1703.12 58.5767L1703.12 58.5783L1703.63 57.7159ZM1711.27 66.4091L1710.37 66.8522L1710.37 66.8563L1711.27 66.4091ZM1711.4 96.8523L1710.5 96.4237L1710.5 96.428L1711.4 96.8523ZM1703.9 105.75L1703.37 104.901L1703.37 104.903L1703.9 105.75ZM1687.06 107.489L1686.67 108.408L1686.68 108.411L1686.68 108.413L1687.06 107.489ZM1682.15 104.182L1681.43 104.871L1681.43 104.877L1681.44 104.883L1682.15 104.182ZM1679.05 99.4091L1679.98 99.0295L1679.72 98.4091H1679.05V99.4091ZM1678.78 99.4091V98.4091H1677.78V99.4091H1678.78ZM1678.78 127.636V128.636H1679.78V127.636H1678.78ZM1679.36 88.4318L1678.42 88.7652L1678.42 88.7722L1678.42 88.7791L1679.36 88.4318ZM1682.22 92.7273L1681.58 93.4955L1681.59 93.5019L1681.6 93.5081L1682.22 92.7273ZM1691.09 92.7614L1691.72 93.5379L1691.72 93.5366L1691.09 92.7614ZM1693.88 88.5L1692.94 88.1666L1692.94 88.1733L1693.88 88.5ZM1693.88 75.1705L1692.93 75.4936L1692.94 75.5006L1692.94 75.5075L1693.88 75.1705ZM1691.09 70.9091L1690.45 71.6785L1690.45 71.685L1690.46 71.6914L1691.09 70.9091ZM1682.22 70.9091L1682.84 71.6914L1682.85 71.69L1682.22 70.9091ZM1679.36 75.1705L1678.42 74.8269L1678.42 74.8334L1679.36 75.1705ZM1660.96 127.636V55.6364H1658.96V127.636H1660.96ZM1659.96 56.6364H1678.64V54.6364H1659.96V56.6364ZM1677.64 55.6364V64.7727H1679.64V55.6364H1677.64ZM1678.64 65.7727H1679.05V63.7727H1678.64V65.7727ZM1679.98 65.1317C1680.62 63.4765 1681.56 61.9545 1682.8 60.5635L1681.3 59.2319C1679.91 60.7955 1678.84 62.5235 1678.12 64.4137L1679.98 65.1317ZM1682.8 60.5578C1684.02 59.1722 1685.54 58.0611 1687.37 57.2289L1686.55 55.4074C1684.47 56.348 1682.72 57.6232 1681.3 59.2376L1682.8 60.5578ZM1687.38 57.2249C1689.18 56.3884 1691.3 55.9545 1693.78 55.9545V53.9545C1691.07 53.9545 1688.65 54.4298 1686.54 55.4115L1687.38 57.2249ZM1693.78 55.9545C1697.05 55.9545 1700.15 56.8225 1703.12 58.5767L1704.14 56.8551C1700.88 54.9275 1697.42 53.9545 1693.78 53.9545V55.9545ZM1703.12 58.5783C1706.06 60.3012 1708.48 63.0349 1710.37 66.8522L1712.16 65.966C1710.14 61.8742 1707.47 58.8124 1704.14 56.8535L1703.12 58.5783ZM1710.37 66.8563C1712.26 70.6255 1713.23 75.5931 1713.23 81.8182H1715.23C1715.23 75.4069 1714.23 70.1018 1712.16 65.9619L1710.37 66.8563ZM1713.23 81.8182C1713.23 87.7676 1712.3 92.6207 1710.5 96.4237L1712.31 97.2808C1714.28 93.1293 1715.23 87.9597 1715.23 81.8182H1713.23ZM1710.5 96.428C1708.7 100.264 1706.32 103.067 1703.37 104.901L1704.43 106.599C1707.76 104.524 1710.38 101.395 1712.31 97.2766L1710.5 96.428ZM1703.37 104.903C1700.42 106.756 1697.18 107.682 1693.64 107.682V109.682C1697.55 109.682 1701.16 108.653 1704.44 106.597L1703.37 104.903ZM1693.64 107.682C1691.3 107.682 1689.24 107.302 1687.44 106.564L1686.68 108.413C1688.75 109.266 1691.08 109.682 1693.64 109.682V107.682ZM1687.46 106.569C1685.66 105.799 1684.13 104.768 1682.87 103.481L1681.44 104.883C1682.9 106.368 1684.65 107.542 1686.67 108.408L1687.46 106.569ZM1682.88 103.492C1681.62 102.172 1680.66 100.686 1679.98 99.0295L1678.13 99.7886C1678.9 101.678 1680 103.374 1681.43 104.871L1682.88 103.492ZM1679.05 98.4091H1678.78V100.409H1679.05V98.4091ZM1677.78 99.4091V127.636H1679.78V99.4091H1677.78ZM1678.78 126.636H1659.96V128.636H1678.78V126.636ZM1677.37 81.8182C1677.37 84.4462 1677.71 86.7687 1678.42 88.7652L1680.3 88.0984C1679.69 86.3676 1679.37 84.2811 1679.37 81.8182H1677.37ZM1678.42 88.7791C1679.15 90.7467 1680.19 92.3379 1681.58 93.4955L1682.86 91.9591C1681.8 91.0712 1680.93 89.7988 1680.3 88.0845L1678.42 88.7791ZM1681.6 93.5081C1683.04 94.6615 1684.75 95.2273 1686.69 95.2273V93.2273C1685.17 93.2273 1683.9 92.793 1682.85 91.9464L1681.6 93.5081ZM1686.69 95.2273C1688.62 95.2273 1690.31 94.6763 1691.72 93.5379L1690.46 91.9848C1689.45 92.801 1688.21 93.2273 1686.69 93.2273V95.2273ZM1691.72 93.5366C1693.12 92.3948 1694.14 90.8029 1694.83 88.8267L1692.94 88.1733C1692.35 89.8789 1691.51 91.128 1690.45 91.9861L1691.72 93.5366ZM1694.82 88.8334C1695.53 86.8353 1695.87 84.4894 1695.87 81.8182H1693.87C1693.87 84.3288 1693.55 86.4375 1692.94 88.1666L1694.82 88.8334ZM1695.87 81.8182C1695.87 79.1475 1695.53 76.8112 1694.82 74.8334L1692.94 75.5075C1693.55 77.2115 1693.87 79.307 1693.87 81.8182H1695.87ZM1694.83 74.8473C1694.14 72.8488 1693.12 71.2501 1691.71 70.1268L1690.46 71.6914C1691.51 72.5226 1692.34 73.7648 1692.93 75.4936L1694.83 74.8473ZM1691.72 70.1397C1690.32 68.975 1688.62 68.4091 1686.69 68.4091V70.4091C1688.21 70.4091 1689.44 70.8432 1690.45 71.6785L1691.72 70.1397ZM1686.69 68.4091C1684.75 68.4091 1683.04 68.9748 1681.6 70.1282L1682.85 71.69C1683.9 70.8434 1685.17 70.4091 1686.69 70.4091V68.4091ZM1681.6 70.1268C1680.19 71.2452 1679.15 72.8359 1678.42 74.8269L1680.3 75.514C1680.93 73.7777 1681.79 72.5276 1682.84 71.6914L1681.6 70.1268ZM1678.42 74.8334C1677.71 76.8112 1677.37 79.1475 1677.37 81.8182H1679.37C1679.37 79.307 1679.69 77.2115 1680.3 75.5075L1678.42 74.8334ZM1780.75 105.75L1780.28 106.631L1780.29 106.634L1780.75 105.75ZM1771.45 96.4773L1770.56 96.9481L1770.57 96.954L1771.45 96.4773ZM1771.48 67.7727L1772.36 68.2474L1772.36 68.2474L1771.48 67.7727ZM1780.72 58.3295L1781.21 59.1999L1781.21 59.1999L1780.72 58.3295ZM1805.54 56.7955L1805.89 55.8616L1805.89 55.8616L1805.54 56.7955ZM1813.75 62.1477L1813.04 62.8443L1813.04 62.8478L1813.75 62.1477ZM1819 70.6023L1818.06 70.9492L1818.06 70.9492L1819 70.6023ZM1820.84 86.1818V87.1818H1821.84V86.1818H1820.84ZM1774.07 86.1818H1773.07V87.1818H1774.07V86.1818ZM1774.07 75.8182V74.8182H1773.07V75.8182H1774.07ZM1803.53 75.8182V76.8182H1804.54L1804.53 75.803L1803.53 75.8182ZM1802.37 71.8636L1801.52 72.3951L1801.53 72.4049L1801.53 72.4145L1802.37 71.8636ZM1799.4 69.1705L1798.93 70.0514L1798.94 70.0566L1798.95 70.0616L1799.4 69.1705ZM1791.01 69.1705L1791.46 70.0649L1791.47 70.0617L1791.47 70.0584L1791.01 69.1705ZM1787.95 71.8295L1787.12 71.2672L1787.11 71.2787L1787.95 71.8295ZM1786.75 75.8182L1785.75 75.7883L1785.75 75.8033V75.8182H1786.75ZM1787.81 91.5L1786.93 91.9714L1786.93 91.9714L1787.81 91.5ZM1790.84 94.6023L1790.35 95.4714L1790.35 95.4714L1790.84 94.6023ZM1799.16 95.1818L1798.85 94.2331L1798.84 94.2352L1799.16 95.1818ZM1801.96 93.6136L1802.62 94.3635L1802.63 94.3581L1802.63 94.3526L1801.96 93.6136ZM1803.66 91.0909V90.0909H1802.97L1802.72 90.7422L1803.66 91.0909ZM1820.84 91.0909L1821.83 91.2513L1822.02 90.0909H1820.84V91.0909ZM1816.65 100.568L1817.42 101.206L1817.42 101.203L1816.65 100.568ZM1807.89 106.773L1808.26 107.7L1808.27 107.699L1807.89 106.773ZM1795.21 107.955C1789.74 107.955 1785.09 106.911 1781.22 104.866L1780.29 106.634C1784.5 108.862 1789.49 109.955 1795.21 109.955V107.955ZM1781.23 104.869C1777.38 102.802 1774.41 99.8522 1772.33 96.0005L1770.57 96.954C1772.84 101.148 1776.08 104.38 1780.28 106.631L1781.23 104.869ZM1772.33 96.0064C1770.26 92.1354 1769.21 87.4638 1769.21 81.9545H1767.21C1767.21 87.718 1768.31 92.7282 1770.56 96.9481L1772.33 96.0064ZM1769.21 81.9545C1769.21 76.6818 1770.27 72.1232 1772.36 68.2474L1770.6 67.298C1768.33 71.5132 1767.21 76.4091 1767.21 81.9545H1769.21ZM1772.36 68.2474C1774.45 64.3667 1777.4 61.3566 1781.21 59.1999L1780.23 57.4592C1776.08 59.8025 1772.87 63.0878 1770.6 67.298L1772.36 68.2474ZM1781.21 59.1999C1785.01 57.0493 1789.53 55.9545 1794.8 55.9545V53.9545C1789.25 53.9545 1784.38 55.1098 1780.23 57.4592L1781.21 59.1999ZM1794.8 55.9545C1798.65 55.9545 1802.1 56.5519 1805.18 57.7293L1805.89 55.8616C1802.56 54.5845 1798.86 53.9545 1794.8 53.9545V55.9545ZM1805.18 57.7293C1808.26 58.9073 1810.87 60.6131 1813.04 62.8443L1814.47 61.4511C1812.09 59.0005 1809.23 57.1381 1805.89 55.8616L1805.18 57.7293ZM1813.04 62.8478C1815.2 65.0566 1816.88 67.7512 1818.06 70.9492L1819.94 70.2554C1818.67 66.817 1816.85 63.8752 1814.47 61.4477L1813.04 62.8478ZM1818.06 70.9492C1819.24 74.1387 1819.84 77.7571 1819.84 81.8182H1821.84C1821.84 77.5611 1821.22 73.7022 1819.94 70.2554L1818.06 70.9492ZM1819.84 81.8182V86.1818H1821.84V81.8182H1819.84ZM1820.84 85.1818H1774.07V87.1818H1820.84V85.1818ZM1775.07 86.1818V75.8182H1773.07V86.1818H1775.07ZM1774.07 76.8182H1803.53V74.8182H1774.07V76.8182ZM1804.53 75.803C1804.5 74.1325 1804.07 72.6243 1803.2 71.3128L1801.53 72.4145C1802.17 73.3757 1802.51 74.5039 1802.53 75.8333L1804.53 75.803ZM1803.21 71.3321C1802.39 70.0158 1801.26 68.9956 1799.85 68.2793L1798.95 70.0616C1800.04 70.6181 1800.89 71.3933 1801.52 72.3951L1803.21 71.3321ZM1799.87 68.2895C1798.48 67.5429 1796.92 67.1818 1795.21 67.1818V69.1818C1796.63 69.1818 1797.86 69.4799 1798.93 70.0514L1799.87 68.2895ZM1795.21 67.1818C1793.53 67.1818 1791.98 67.5452 1790.55 68.2825L1791.47 70.0584C1792.6 69.4775 1793.83 69.1818 1795.21 69.1818V67.1818ZM1790.57 68.276C1789.15 68.986 1787.99 69.9844 1787.12 71.2672L1788.77 72.3919C1789.45 71.402 1790.34 70.6276 1791.46 70.0649L1790.57 68.276ZM1787.11 71.2787C1786.25 72.588 1785.8 74.1027 1785.75 75.7883L1787.75 75.848C1787.79 74.4882 1788.14 73.3438 1788.78 72.3804L1787.11 71.2787ZM1785.75 75.8182V87H1787.75V75.8182H1785.75ZM1785.75 87C1785.75 88.8254 1786.14 90.4908 1786.93 91.9714L1788.69 91.0286C1788.07 89.8728 1787.75 88.5383 1787.75 87H1785.75ZM1786.93 91.9714C1787.72 93.4586 1788.87 94.6295 1790.35 95.4714L1791.34 93.7331C1790.18 93.075 1789.31 92.1777 1788.69 91.0286L1786.93 91.9714ZM1790.35 95.4714C1791.85 96.3248 1793.62 96.7273 1795.62 96.7273V94.7273C1793.89 94.7273 1792.47 94.3798 1791.34 93.7331L1790.35 95.4714ZM1795.62 96.7273C1797.01 96.7273 1798.3 96.5322 1799.48 96.1285L1798.84 94.2352C1797.89 94.5587 1796.82 94.7273 1795.62 94.7273V96.7273ZM1799.48 96.1305C1800.68 95.7294 1801.73 95.1438 1802.62 94.3635L1801.3 92.8638C1800.63 93.4471 1799.82 93.907 1798.85 94.2331L1799.48 96.1305ZM1802.63 94.3526C1803.52 93.5411 1804.18 92.5665 1804.6 91.4396L1802.72 90.7422C1802.42 91.5698 1801.94 92.2771 1801.28 92.8747L1802.63 94.3526ZM1803.66 92.0909H1820.84V90.0909H1803.66V92.0909ZM1819.86 90.9305C1819.29 94.4036 1817.96 97.3962 1815.88 99.9332L1817.42 101.203C1819.75 98.3765 1821.21 95.051 1821.83 91.2513L1819.86 90.9305ZM1815.88 99.9299C1813.8 102.446 1811.02 104.423 1807.51 105.846L1808.27 107.699C1812.03 106.168 1815.1 104.009 1817.42 101.206L1815.88 99.9299ZM1807.52 105.845C1804.05 107.242 1799.95 107.955 1795.21 107.955V109.955C1800.15 109.955 1804.51 109.213 1808.26 107.7L1807.52 105.845ZM1887.16 105.58L1886.67 106.451L1886.67 106.453L1887.16 105.58ZM1877.85 96.1023L1876.97 96.5711L1876.97 96.5731L1877.85 96.1023ZM1877.85 67.8409L1878.73 68.3118L1878.74 68.3097L1877.85 67.8409ZM1887.16 58.3636L1887.65 59.2376L1887.65 59.2355L1887.16 58.3636ZM1915.08 57.75L1914.63 58.6455L1914.64 58.6487L1915.08 57.75ZM1923.84 65.5909L1922.99 66.1121L1922.99 66.1147L1923.84 65.5909ZM1926.98 77.4545V78.4545H1927.98L1927.98 77.4495L1926.98 77.4545ZM1909.52 77.4545L1908.53 77.5451L1908.61 78.4545H1909.52V77.4545ZM1907.14 71.1818L1906.4 71.8533L1906.4 71.8594L1906.41 71.8654L1907.14 71.1818ZM1897.73 70.4318L1898.33 71.2283L1898.34 71.2212L1897.73 70.4318ZM1894.86 74.6932L1895.8 75.0331L1895.81 75.0295L1894.86 74.6932ZM1894.86 88.9773L1893.92 89.3136L1893.92 89.3172L1894.86 88.9773ZM1897.73 93.2386L1897.11 94.028L1897.12 94.0351L1897.73 93.2386ZM1905.7 93.6818L1906.22 94.5409L1906.22 94.5369L1906.23 94.5329L1905.7 93.6818ZM1908.3 90.8182L1907.41 90.3459L1907.41 90.3518L1908.3 90.8182ZM1909.52 86.1818V85.1818H1908.59L1908.53 86.107L1909.52 86.1818ZM1926.98 86.1818L1927.98 86.1966L1927.99 85.1818H1926.98V86.1818ZM1923.81 98.25L1924.66 98.7645L1924.67 98.762L1923.81 98.25ZM1915.11 106.159L1914.67 105.264L1914.67 105.265L1915.11 106.159ZM1901.75 107.955C1896.2 107.955 1891.51 106.856 1887.65 104.706L1886.67 106.453C1890.9 108.803 1895.94 109.955 1901.75 109.955V107.955ZM1887.65 104.708C1883.77 102.527 1880.8 99.5064 1878.73 95.6314L1876.97 96.5731C1879.22 100.789 1882.46 104.086 1886.67 106.451L1887.65 104.708ZM1878.74 95.6335C1876.66 91.7318 1875.61 87.1817 1875.61 81.9545H1873.61C1873.61 87.4546 1874.72 92.3364 1876.97 96.5711L1878.74 95.6335ZM1875.61 81.9545C1875.61 76.7272 1876.66 72.1895 1878.73 68.3118L1876.97 67.3701C1874.72 71.5832 1873.61 76.4546 1873.61 81.9545H1875.61ZM1878.74 68.3097C1880.8 64.413 1883.77 61.3942 1887.65 59.2376L1886.67 57.4897C1882.46 59.8331 1879.22 63.1324 1876.97 67.3721L1878.74 68.3097ZM1887.65 59.2355C1891.51 57.0637 1896.2 55.9545 1901.75 55.9545V53.9545C1895.93 53.9545 1890.89 55.1181 1886.67 57.4918L1887.65 59.2355ZM1901.75 55.9545C1906.77 55.9545 1911.05 56.8644 1914.63 58.6455L1915.52 56.8545C1911.61 54.9083 1907.01 53.9545 1901.75 53.9545V55.9545ZM1914.64 58.6487C1918.25 60.411 1921.02 62.8982 1922.99 66.1121L1924.69 65.0697C1922.52 61.5109 1919.45 58.7708 1915.52 56.8513L1914.64 58.6487ZM1922.99 66.1147C1924.95 69.2998 1925.96 73.0691 1925.98 77.4595L1927.98 77.4495C1927.95 72.7491 1926.87 68.6093 1924.69 65.0671L1922.99 66.1147ZM1926.98 76.4545H1909.52V78.4545H1926.98V76.4545ZM1910.52 77.364C1910.26 74.4807 1909.41 72.1473 1907.87 70.4983L1906.41 71.8654C1907.54 73.0799 1908.29 74.9284 1908.53 77.5451L1910.52 77.364ZM1907.88 70.5103C1906.36 68.8317 1904.38 68 1902.02 68V70C1903.85 70 1905.28 70.6228 1906.4 71.8533L1907.88 70.5103ZM1902.02 68C1900.18 68 1898.53 68.5439 1897.11 69.6425L1898.34 71.2212C1899.38 70.4106 1900.6 70 1902.02 70V68ZM1897.12 69.6354C1895.7 70.7163 1894.65 72.3216 1893.92 74.3568L1895.81 75.0295C1896.44 73.2466 1897.3 72.0109 1898.33 71.2283L1897.12 69.6354ZM1893.92 74.3533C1893.19 76.3844 1892.84 78.8841 1892.84 81.8182H1894.84C1894.84 79.025 1895.17 76.7747 1895.8 75.0331L1893.92 74.3533ZM1892.84 81.8182C1892.84 84.7529 1893.19 87.2621 1893.92 89.3136L1895.81 88.6409C1895.17 86.8743 1894.84 84.6107 1894.84 81.8182H1892.84ZM1893.92 89.3172C1894.65 91.3304 1895.7 92.9283 1897.11 94.028L1898.34 92.4493C1897.3 91.6399 1896.44 90.3969 1895.8 88.6373L1893.92 89.3172ZM1897.12 94.0351C1898.53 95.1074 1900.18 95.6364 1902.02 95.6364V93.6364C1900.59 93.6364 1899.37 93.2335 1898.33 92.4422L1897.12 94.0351ZM1902.02 95.6364C1903.57 95.6364 1904.98 95.2798 1906.22 94.5409L1905.19 92.8227C1904.3 93.3566 1903.25 93.6364 1902.02 93.6364V95.6364ZM1906.23 94.5329C1907.47 93.7686 1908.45 92.6723 1909.18 91.2846L1907.41 90.3518C1906.82 91.4641 1906.08 92.2769 1905.18 92.8308L1906.23 94.5329ZM1909.18 91.2904C1909.94 89.8669 1910.38 88.1786 1910.52 86.2566L1908.53 86.107C1908.4 87.8214 1908.02 89.224 1907.41 90.346L1909.18 91.2904ZM1909.52 87.1818H1926.98V85.1818H1909.52V87.1818ZM1925.98 86.167C1925.91 90.6329 1924.89 94.4787 1922.95 97.738L1924.67 98.762C1926.81 95.1577 1927.91 90.958 1927.98 86.1966L1925.98 86.167ZM1922.95 97.7355C1921.01 100.972 1918.26 103.48 1914.67 105.264L1915.56 107.055C1919.47 105.111 1922.52 102.346 1924.66 98.7645L1922.95 97.7355ZM1914.67 105.265C1911.11 107.044 1906.81 107.955 1901.75 107.955V109.955C1907.05 109.955 1911.67 109.001 1915.56 107.054L1914.67 105.265ZM1993.38 105.58L1992.89 106.451L1992.89 106.453L1993.38 105.58ZM1984.07 96.1023L1983.19 96.5711L1983.19 96.5731L1984.07 96.1023ZM1984.07 67.8409L1984.95 68.3118L1984.95 68.3097L1984.07 67.8409ZM1993.38 58.3636L1993.86 59.2376L1993.87 59.2355L1993.38 58.3636ZM2021.3 57.75L2020.85 58.6455L2020.86 58.6487L2021.3 57.75ZM2030.06 65.5909L2029.21 66.1121L2029.21 66.1147L2030.06 65.5909ZM2033.2 77.4545V78.4545H2034.2L2034.2 77.4495L2033.2 77.4545ZM2015.74 77.4545L2014.75 77.5451L2014.83 78.4545H2015.74V77.4545ZM2013.36 71.1818L2012.61 71.8533L2012.62 71.8594L2012.63 71.8654L2013.36 71.1818ZM2003.95 70.4318L2004.55 71.2283L2004.56 71.2212L2003.95 70.4318ZM2001.08 74.6932L2002.02 75.0331L2002.02 75.0295L2001.08 74.6932ZM2001.08 88.9773L2000.14 89.3136L2000.14 89.3172L2001.08 88.9773ZM2003.95 93.2386L2003.33 94.028L2003.34 94.0351L2003.95 93.2386ZM2011.92 93.6818L2012.44 94.5409L2012.44 94.5369L2012.45 94.5329L2011.92 93.6818ZM2014.51 90.8182L2013.63 90.3459L2013.63 90.3518L2014.51 90.8182ZM2015.74 86.1818V85.1818H2014.81L2014.74 86.107L2015.74 86.1818ZM2033.2 86.1818L2034.2 86.1966L2034.21 85.1818H2033.2V86.1818ZM2030.03 98.25L2030.88 98.7645L2030.88 98.762L2030.03 98.25ZM2021.33 106.159L2020.89 105.264L2020.89 105.265L2021.33 106.159ZM2007.97 107.955C2002.42 107.955 1997.73 106.856 1993.86 104.706L1992.89 106.453C1997.12 108.803 2002.16 109.955 2007.97 109.955V107.955ZM1993.87 104.708C1989.99 102.527 1987.02 99.5064 1984.95 95.6314L1983.19 96.5731C1985.44 100.789 1988.68 104.086 1992.89 106.451L1993.87 104.708ZM1984.95 95.6335C1982.88 91.7318 1981.83 87.1817 1981.83 81.9545H1979.83C1979.83 87.4546 1980.94 92.3364 1983.19 96.5711L1984.95 95.6335ZM1981.83 81.9545C1981.83 76.7272 1982.88 72.1895 1984.95 68.3118L1983.19 67.3701C1980.94 71.5832 1979.83 76.4546 1979.83 81.9545H1981.83ZM1984.95 68.3097C1987.02 64.413 1989.99 61.3942 1993.86 59.2376L1992.89 57.4897C1988.68 59.8331 1985.44 63.1324 1983.19 67.3721L1984.95 68.3097ZM1993.87 59.2355C1997.73 57.0637 2002.42 55.9545 2007.97 55.9545V53.9545C2002.15 53.9545 1997.11 55.1181 1992.89 57.4918L1993.87 59.2355ZM2007.97 55.9545C2012.99 55.9545 2017.27 56.8644 2020.85 58.6455L2021.74 56.8545C2017.83 54.9083 2013.23 53.9545 2007.97 53.9545V55.9545ZM2020.86 58.6487C2024.47 60.411 2027.24 62.8982 2029.21 66.1121L2030.91 65.0697C2028.74 61.5109 2025.67 58.7708 2021.74 56.8513L2020.86 58.6487ZM2029.21 66.1147C2031.17 69.2998 2032.17 73.0691 2032.2 77.4595L2034.2 77.4495C2034.17 72.7491 2033.09 68.6093 2030.91 65.0671L2029.21 66.1147ZM2033.2 76.4545H2015.74V78.4545H2033.2V76.4545ZM2016.74 77.364C2016.48 74.4807 2015.63 72.1473 2014.09 70.4983L2012.63 71.8654C2013.76 73.0799 2014.51 74.9284 2014.75 77.5451L2016.74 77.364ZM2014.1 70.5103C2012.57 68.8317 2010.59 68 2008.24 68V70C2010.07 70 2011.5 70.6228 2012.61 71.8533L2014.1 70.5103ZM2008.24 68C2006.4 68 2004.74 68.5439 2003.33 69.6425L2004.56 71.2212C2005.6 70.4106 2006.81 70 2008.24 70V68ZM2003.34 69.6354C2001.92 70.7163 2000.87 72.3216 2000.14 74.3568L2002.02 75.0295C2002.66 73.2466 2003.52 72.0109 2004.55 71.2283L2003.34 69.6354ZM2000.14 74.3533C1999.41 76.3844 1999.06 78.8841 1999.06 81.8182H2001.06C2001.06 79.025 2001.39 76.7747 2002.02 75.0331L2000.14 74.3533ZM1999.06 81.8182C1999.06 84.7529 1999.41 87.2621 2000.14 89.3136L2002.02 88.6409C2001.39 86.8743 2001.06 84.6107 2001.06 81.8182H1999.06ZM2000.14 89.3172C2000.87 91.3304 2001.92 92.9283 2003.33 94.028L2004.56 92.4493C2003.52 91.6399 2002.66 90.3969 2002.02 88.6373L2000.14 89.3172ZM2003.34 94.0351C2004.75 95.1074 2006.4 95.6364 2008.24 95.6364V93.6364C2006.81 93.6364 2005.59 93.2335 2004.55 92.4422L2003.34 94.0351ZM2008.24 95.6364C2009.79 95.6364 2011.19 95.2798 2012.44 94.5409L2011.41 92.8227C2010.52 93.3566 2009.47 93.6364 2008.24 93.6364V95.6364ZM2012.45 94.5329C2013.69 93.7686 2014.67 92.6723 2015.4 91.2846L2013.63 90.3518C2013.04 91.4641 2012.3 92.2769 2011.4 92.8308L2012.45 94.5329ZM2015.4 91.2904C2016.16 89.8669 2016.59 88.1786 2016.74 86.2566L2014.74 86.107C2014.62 87.8214 2014.23 89.224 2013.63 90.346L2015.4 91.2904ZM2015.74 87.1818H2033.2V85.1818H2015.74V87.1818ZM2032.2 86.167C2032.13 90.6329 2031.11 94.4787 2029.17 97.738L2030.88 98.762C2033.03 95.1577 2034.13 90.958 2034.2 86.1966L2032.2 86.167ZM2029.17 97.7355C2027.23 100.972 2024.48 103.48 2020.89 105.264L2021.78 107.055C2025.69 105.111 2028.73 102.346 2030.88 98.7645L2029.17 97.7355ZM2020.89 105.265C2017.33 107.044 2013.03 107.955 2007.97 107.955V109.955C2013.27 109.955 2017.88 109.001 2021.78 107.054L2020.89 105.265Z" fill="white"/>
    <line y1="70.5" x2="200" y2="70.5" stroke="white" stroke-width="5"/>
    <line x1="2122" y1="70.5" x2="2322" y2="70.5" stroke="white" stroke-width="5"/>
</svg>
