<svg width="130" height="130" viewBox="0 0 130 130" fill="none" xmlns="http://www.w3.org/2000/svg">
    <g clip-path="url(#clip0_45_10)">
        <rect width="130" height="130" rx="6" fill="#F28911"/>
        <path d="M34.576 96.344C34.512 96.344 33.456 96.28 31.408 96.152C29.424 96.088 27.12 95.832 24.496 95.384C22.32 95 20.336 94.744 18.544 94.616C16.816 94.424 15.76 94.328 15.376 94.328C15.312 89.016 15.024 82.584 14.512 75.032C15.024 74.968 15.536 74.936 16.048 74.936C16.624 74.936 17.136 74.936 17.584 74.936C18.8 80.568 20.816 84.92 23.632 87.992C26.512 91.064 30.288 92.6 34.96 92.6C39.12 92.6 42.512 91.48 45.136 89.24C47.76 86.936 49.072 83.928 49.072 80.216C49.072 77.4 48.336 75.096 46.864 73.304C45.456 71.512 43.568 70.008 41.2 68.792C38.896 67.512 36.432 66.328 33.808 65.24C30.736 63.896 27.792 62.488 24.976 61.016C22.224 59.48 19.952 57.528 18.16 55.16C16.368 52.792 15.472 49.72 15.472 45.944C15.472 41.912 16.464 38.456 18.448 35.576C20.496 32.696 23.216 30.52 26.608 29.048C30 27.512 33.744 26.744 37.84 26.744C39.12 26.744 40.432 26.808 41.776 26.936C43.184 27.064 44.624 27.256 46.096 27.512C47.952 27.768 49.36 27.928 50.32 27.992C51.344 28.056 52.016 28.088 52.336 28.088C52.528 28.088 52.88 28.088 53.392 28.088C53.904 28.024 54.32 27.96 54.64 27.896C54.768 30.712 54.896 33.624 55.024 36.632C55.152 39.64 55.344 42.776 55.6 46.04C54.32 46.232 53.264 46.296 52.432 46.232C50.96 40.664 49.136 36.664 46.96 34.232C44.784 31.736 41.68 30.488 37.648 30.488C34.128 30.488 31.12 31.448 28.624 33.368C26.128 35.224 24.88 38.008 24.88 41.72C24.88 43.704 25.328 45.464 26.224 47C27.184 48.536 28.752 50.008 30.928 51.416C33.104 52.824 36.112 54.328 39.952 55.928C42.064 56.824 44.176 57.816 46.288 58.904C48.464 59.992 50.448 61.304 52.24 62.84C54.032 64.312 55.472 66.136 56.56 68.312C57.648 70.424 58.192 72.952 58.192 75.896C58.192 80.248 57.104 83.96 54.928 87.032C52.752 90.04 49.872 92.344 46.288 93.944C42.768 95.544 38.864 96.344 34.576 96.344ZM65.38 95.096C65.252 94.136 65.252 93.112 65.38 92.024C68.452 91.704 70.66 91.416 72.004 91.16C73.348 90.84 74.18 90.2 74.5 89.24C74.82 88.28 74.98 86.648 74.98 84.344V39.704C74.98 37.016 74.82 35.096 74.5 33.944C74.18 32.792 73.348 32.056 72.004 31.736C70.724 31.352 68.612 31.032 65.668 30.776C65.54 29.816 65.54 28.792 65.668 27.704C67.204 27.704 68.484 27.736 69.508 27.8C70.596 27.8 71.716 27.8 72.868 27.8C74.02 27.8 75.46 27.832 77.188 27.896C78.98 27.896 81.348 27.896 84.292 27.896C87.94 27.896 91.652 27.896 95.428 27.896C99.204 27.832 102.692 27.8 105.892 27.8C109.156 27.8 111.78 27.8 113.764 27.8C115.812 27.736 116.9 27.704 117.028 27.704C117.348 30.136 117.7 32.664 118.084 35.288C118.468 37.912 118.884 40.696 119.332 43.64C118.82 43.704 118.276 43.736 117.7 43.736C117.188 43.736 116.676 43.704 116.164 43.64C114.5 39.352 112.548 36.344 110.308 34.616C108.004 32.76 104.388 31.832 99.46 31.832H85.54V59H91.876C94.948 59 97.284 58.808 98.884 58.424C100.484 57.976 101.668 57.048 102.436 55.64C103.204 54.168 103.812 51.864 104.26 48.728C105.412 48.536 106.5 48.536 107.524 48.728C107.46 51.416 107.396 53.56 107.332 55.16C107.332 56.696 107.332 57.912 107.332 58.808C107.332 59.704 107.332 60.536 107.332 61.304C107.332 62.008 107.332 62.808 107.332 63.704C107.332 64.6 107.332 65.848 107.332 67.448C107.396 69.048 107.46 71.224 107.524 73.976C106.564 74.168 105.476 74.168 104.26 73.976C103.876 70.584 103.3 68.152 102.532 66.68C101.764 65.144 100.612 64.184 99.076 63.8C97.604 63.416 95.492 63.224 92.74 63.224H85.54V83.096C85.54 85.08 85.604 86.616 85.732 87.704C85.86 88.792 86.244 89.656 86.884 90.296C87.524 90.872 88.484 91.256 89.764 91.448C91.108 91.64 93.028 91.832 95.524 92.024C95.716 93.048 95.716 94.072 95.524 95.096C94.18 95.096 92.548 95.064 90.628 95C88.708 95 86.788 95 84.868 95C83.012 94.936 81.444 94.904 80.164 94.904C78.948 94.904 77.444 94.936 75.652 95C73.86 95 72.036 95 70.18 95C68.388 95.064 66.788 95.096 65.38 95.096Z" fill="black"/>
        <rect x="11" y="51" width="105" height="20" fill="#F28911"/>
        <path d="M16.46 64.4844C16.46 64.252 16.4235 64.0469 16.3506 63.8691C16.2822 63.6868 16.1592 63.5228 15.9814 63.377C15.8083 63.2311 15.5667 63.0921 15.2568 62.96C14.9515 62.8278 14.5641 62.6934 14.0947 62.5566C13.6025 62.4108 13.1582 62.249 12.7617 62.0713C12.3652 61.889 12.0257 61.6816 11.7432 61.4492C11.4606 61.2168 11.2441 60.9502 11.0938 60.6494C10.9434 60.3486 10.8682 60.0046 10.8682 59.6172C10.8682 59.2298 10.9479 58.8721 11.1074 58.5439C11.2669 58.2158 11.4948 57.931 11.791 57.6895C12.0918 57.4434 12.4495 57.252 12.8643 57.1152C13.279 56.9785 13.7415 56.9102 14.252 56.9102C14.9993 56.9102 15.6328 57.0537 16.1523 57.3408C16.6764 57.6234 17.0752 57.9948 17.3486 58.4551C17.6221 58.9108 17.7588 59.3984 17.7588 59.918H16.4463C16.4463 59.5443 16.3665 59.2139 16.207 58.9268C16.0475 58.6351 15.806 58.4072 15.4824 58.2432C15.1589 58.0745 14.7487 57.9902 14.252 57.9902C13.7826 57.9902 13.3952 58.0609 13.0898 58.2021C12.7845 58.3434 12.5566 58.5348 12.4062 58.7764C12.2604 59.0179 12.1875 59.2936 12.1875 59.6035C12.1875 59.8132 12.2308 60.0046 12.3174 60.1777C12.4085 60.3464 12.5475 60.5036 12.7344 60.6494C12.9258 60.7952 13.1673 60.9297 13.459 61.0527C13.7552 61.1758 14.1084 61.2943 14.5186 61.4082C15.0837 61.5677 15.5713 61.7454 15.9814 61.9414C16.3916 62.1374 16.7288 62.3584 16.9932 62.6045C17.262 62.846 17.4603 63.1217 17.5879 63.4316C17.7201 63.737 17.7861 64.0833 17.7861 64.4707C17.7861 64.8763 17.7041 65.2432 17.54 65.5713C17.376 65.8994 17.1413 66.1797 16.8359 66.4121C16.5306 66.6445 16.1637 66.8245 15.7354 66.9521C15.3115 67.0752 14.8376 67.1367 14.3135 67.1367C13.8532 67.1367 13.3997 67.0729 12.9531 66.9453C12.5111 66.8177 12.1077 66.6263 11.7432 66.3711C11.3831 66.1159 11.0938 65.8014 10.875 65.4277C10.6608 65.0495 10.5537 64.612 10.5537 64.1152H11.8662C11.8662 64.457 11.9323 64.751 12.0645 64.9971C12.1966 65.2386 12.3766 65.4391 12.6045 65.5986C12.8369 65.7581 13.099 65.8766 13.3906 65.9541C13.6868 66.027 13.9945 66.0635 14.3135 66.0635C14.7738 66.0635 15.1634 65.9997 15.4824 65.8721C15.8014 65.7445 16.043 65.5622 16.207 65.3252C16.3757 65.0882 16.46 64.8079 16.46 64.4844ZM24.5455 57.0469V67H23.2467V57.0469H24.5455ZM27.7447 57.0469V58.127H20.0543V57.0469H27.7447ZM33.759 57.9287L30.4641 67H29.1174L32.9113 57.0469H33.7795L33.759 57.9287ZM36.5207 67L33.2189 57.9287L33.1984 57.0469H34.0666L37.8742 67H36.5207ZM36.3498 63.3154V64.3955H30.758V63.3154H36.3498ZM41.9266 57.0469V67H40.6072V57.0469H41.9266ZM46.0965 61.5244V62.6045H41.6395V61.5244H46.0965ZM46.7732 57.0469V58.127H41.6395V57.0469H46.7732ZM51.0648 57.0469V67H49.7455V57.0469H51.0648ZM55.2348 61.5244V62.6045H50.7777V61.5244H55.2348ZM55.9115 57.0469V58.127H50.7777V57.0469H55.9115ZM65.0758 57.0469V67H63.7564V57.0469H65.0758ZM69.2457 61.5244V62.6045H64.7887V61.5244H69.2457ZM69.9225 57.0469V58.127H64.7887V57.0469H69.9225ZM78.5891 57.0469H79.9016V63.7803C79.9016 64.5277 79.7352 65.1497 79.4025 65.6465C79.0699 66.1432 78.6278 66.5169 78.0764 66.7676C77.5295 67.0137 76.9348 67.1367 76.2922 67.1367C75.6177 67.1367 75.007 67.0137 74.4602 66.7676C73.9178 66.5169 73.4872 66.1432 73.1682 65.6465C72.8537 65.1497 72.6965 64.5277 72.6965 63.7803V57.0469H74.0021V63.7803C74.0021 64.2998 74.0979 64.7282 74.2893 65.0654C74.4807 65.4027 74.7473 65.6533 75.0891 65.8174C75.4354 65.9814 75.8365 66.0635 76.2922 66.0635C76.7525 66.0635 77.1535 65.9814 77.4953 65.8174C77.8417 65.6533 78.1105 65.4027 78.302 65.0654C78.4934 64.7282 78.5891 64.2998 78.5891 63.7803V57.0469ZM87.0506 57.0469V67H85.7518V57.0469H87.0506ZM90.2498 57.0469V58.127H82.5594V57.0469H90.2498ZM98.8207 57.0469H100.133V63.7803C100.133 64.5277 99.9669 65.1497 99.6342 65.6465C99.3015 66.1432 98.8594 66.5169 98.308 66.7676C97.7611 67.0137 97.1664 67.1367 96.5238 67.1367C95.8493 67.1367 95.2387 67.0137 94.6918 66.7676C94.1495 66.5169 93.7188 66.1432 93.3998 65.6465C93.0854 65.1497 92.9281 64.5277 92.9281 63.7803V57.0469H94.2338V63.7803C94.2338 64.2998 94.3295 64.7282 94.5209 65.0654C94.7123 65.4027 94.9789 65.6533 95.3207 65.8174C95.6671 65.9814 96.0681 66.0635 96.5238 66.0635C96.9841 66.0635 97.3852 65.9814 97.727 65.8174C98.0733 65.6533 98.3422 65.4027 98.5336 65.0654C98.725 64.7282 98.8207 64.2998 98.8207 63.7803V57.0469ZM103.604 57.0469H106.899C107.647 57.0469 108.278 57.1608 108.793 57.3887C109.312 57.6165 109.707 57.9538 109.976 58.4004C110.249 58.8424 110.386 59.387 110.386 60.0342C110.386 60.4899 110.292 60.9069 110.105 61.2852C109.923 61.6589 109.659 61.9779 109.312 62.2422C108.971 62.502 108.561 62.6956 108.082 62.8232L107.713 62.9668H104.616L104.603 61.8936H106.94C107.414 61.8936 107.809 61.8115 108.123 61.6475C108.438 61.4788 108.674 61.2533 108.834 60.9707C108.993 60.6882 109.073 60.376 109.073 60.0342C109.073 59.6514 108.998 59.3164 108.848 59.0293C108.697 58.7422 108.46 58.5212 108.137 58.3662C107.818 58.2067 107.405 58.127 106.899 58.127H104.924V67H103.604V57.0469ZM109.422 67L107.002 62.4883L108.376 62.4814L110.83 66.918V67H109.422ZM119.955 65.9268V67H114.684V65.9268H119.955ZM114.951 57.0469V67H113.631V57.0469H114.951ZM119.257 61.3262V62.3994H114.684V61.3262H119.257ZM119.886 57.0469V58.127H114.684V57.0469H119.886Z" fill="black"/>
    </g>
    <defs>
        <clipPath id="clip0_45_10">
            <rect width="130" height="130" rx="6" fill="none"/>
        </clipPath>
    </defs>
</svg>
