<svg width="1436" height="146" viewBox="0 0 1436 146" fill="none" xmlns="http://www.w3.org/2000/svg">
    <path d="M349.591 38.1818V108H330.909V53.1818H307.318V108H288.636V38.1818H349.591ZM435.082 108.955C429.491 108.955 424.673 107.886 420.628 105.75C416.605 103.591 413.503 100.5 411.321 96.4773C409.162 92.4318 408.082 87.5909 408.082 81.9545C408.082 76.5455 409.173 71.8182 411.355 67.7727C413.537 63.7273 416.616 60.5795 420.594 58.3295C424.571 56.0795 429.264 54.9545 434.673 54.9545C438.628 54.9545 442.207 55.5682 445.412 56.7955C448.616 58.0227 451.355 59.8068 453.628 62.1477C455.901 64.4659 457.651 67.2841 458.878 70.6023C460.105 73.9205 460.719 77.6591 460.719 81.8182V86.1818H413.946V75.8182H443.401C443.378 74.3182 442.991 73 442.241 71.8636C441.514 70.7045 440.526 69.8068 439.276 69.1705C438.048 68.5114 436.651 68.1818 435.082 68.1818C433.56 68.1818 432.162 68.5114 430.889 69.1705C429.616 69.8068 428.594 70.6932 427.821 71.8295C427.071 72.9659 426.673 74.2955 426.628 75.8182V87C426.628 88.6818 426.98 90.1818 427.685 91.5C428.389 92.8182 429.401 93.8523 430.719 94.6023C432.037 95.3523 433.628 95.7273 435.491 95.7273C436.787 95.7273 437.969 95.5455 439.037 95.1818C440.128 94.8182 441.06 94.2955 441.832 93.6136C442.605 92.9091 443.173 92.0682 443.537 91.0909H460.719C460.128 94.7273 458.73 97.8864 456.526 100.568C454.321 103.227 451.401 105.295 447.764 106.773C444.151 108.227 439.923 108.955 435.082 108.955ZM516.398 127.636V55.6364H535.08V64.7727H535.489C536.17 63 537.17 61.375 538.489 59.8977C539.807 58.3977 541.443 57.2045 543.398 56.3182C545.352 55.4091 547.625 54.9545 550.216 54.9545C553.67 54.9545 556.955 55.875 560.068 57.7159C563.205 59.5568 565.75 62.4545 567.705 66.4091C569.682 70.3636 570.67 75.5 570.67 81.8182C570.67 87.8636 569.727 92.875 567.841 96.8523C565.977 100.83 563.477 103.795 560.341 105.75C557.227 107.705 553.807 108.682 550.08 108.682C547.625 108.682 545.432 108.284 543.5 107.489C541.591 106.67 539.955 105.568 538.591 104.182C537.25 102.773 536.216 101.182 535.489 99.4091H535.216V127.636H516.398ZM534.807 81.8182C534.807 84.3636 535.136 86.5682 535.795 88.4318C536.477 90.2727 537.432 91.7045 538.659 92.7273C539.909 93.7273 541.398 94.2273 543.125 94.2273C544.852 94.2273 546.318 93.7386 547.523 92.7614C548.75 91.7614 549.682 90.3409 550.318 88.5C550.977 86.6364 551.307 84.4091 551.307 81.8182C551.307 79.2273 550.977 77.0114 550.318 75.1705C549.682 73.3068 548.75 71.8864 547.523 70.9091C546.318 69.9091 544.852 69.4091 543.125 69.4091C541.398 69.4091 539.909 69.9091 538.659 70.9091C537.432 71.8864 536.477 73.3068 535.795 75.1705C535.136 77.0114 534.807 79.2273 534.807 81.8182ZM651.781 108.955C646.099 108.955 641.236 107.83 637.19 105.58C633.145 103.307 630.043 100.148 627.884 96.1023C625.724 92.0341 624.645 87.3182 624.645 81.9545C624.645 76.5909 625.724 71.8864 627.884 67.8409C630.043 63.7727 633.145 60.6136 637.19 58.3636C641.236 56.0909 646.099 54.9545 651.781 54.9545C656.918 54.9545 661.361 55.8864 665.111 57.75C668.884 59.5909 671.804 62.2045 673.872 65.5909C675.94 68.9545 676.986 72.9091 677.009 77.4545H659.554C659.304 74.7045 658.509 72.6136 657.168 71.1818C655.849 69.7273 654.145 69 652.054 69C650.418 69 648.986 69.4773 647.759 70.4318C646.531 71.3636 645.577 72.7841 644.895 74.6932C644.213 76.5795 643.872 78.9545 643.872 81.8182C643.872 84.6818 644.213 87.0682 644.895 88.9773C645.577 90.8636 646.531 92.2841 647.759 93.2386C648.986 94.1705 650.418 94.6364 652.054 94.6364C653.44 94.6364 654.668 94.3182 655.736 93.6818C656.804 93.0227 657.668 92.0682 658.327 90.8182C659.009 89.5455 659.418 88 659.554 86.1818H677.009C676.94 90.7955 675.884 94.8182 673.838 98.25C671.793 101.659 668.895 104.295 665.145 106.159C661.418 108.023 656.963 108.955 651.781 108.955ZM786.909 66.4091V81.1364H755.955V66.4091H786.909ZM732.364 84.4091H751.045C750.955 87.8182 751.92 90.3295 753.943 91.9432C755.989 93.5568 758.795 94.3636 762.364 94.3636C765.682 94.3636 768.205 93.7159 769.932 92.4205C771.682 91.1023 772.875 89.0455 773.511 86.25C774.17 83.4318 774.5 79.7727 774.5 75.2727V71.0455C774.5 66.6364 774.125 63.0341 773.375 60.2386C772.625 57.4432 771.398 55.3864 769.693 54.0682C767.989 52.75 765.682 52.0909 762.773 52.0909C759.591 52.0909 757.148 52.5114 755.443 53.3523C753.739 54.1932 752.568 55.3977 751.932 56.9659C751.295 58.5341 750.955 60.4091 750.909 62.5909H732.227C732.682 57.9091 734.08 53.6477 736.42 49.8068C738.761 45.9659 742.114 42.9091 746.477 40.6364C750.841 38.3636 756.273 37.2273 762.773 37.2273C768.864 37.2273 774.159 38.6023 778.659 41.3523C783.182 44.0795 786.682 47.9886 789.159 53.0795C791.659 58.1477 792.909 64.1818 792.909 71.1818V75.2727C792.909 82.2727 791.705 88.2955 789.295 93.3409C786.886 98.3636 783.409 102.227 778.864 104.932C774.318 107.614 768.818 108.955 762.364 108.955C756.5 108.955 751.352 107.955 746.92 105.955C742.511 103.932 739.034 101.091 736.489 97.4318C733.966 93.75 732.591 89.4091 732.364 84.4091ZM849.866 108V55.6364H868.685V74.3182H871.957L883.139 55.6364H904.685L887.912 82.0909L904.821 108H883.003L872.912 91.7727H868.685V108H849.866ZM980.281 108.955C974.599 108.955 969.736 107.83 965.69 105.58C961.645 103.307 958.543 100.148 956.384 96.1023C954.224 92.0341 953.145 87.3182 953.145 81.9545C953.145 76.5909 954.224 71.8864 956.384 67.8409C958.543 63.7727 961.645 60.6136 965.69 58.3636C969.736 56.0909 974.599 54.9545 980.281 54.9545C985.418 54.9545 989.861 55.8864 993.611 57.75C997.384 59.5909 1000.3 62.2045 1002.37 65.5909C1004.44 68.9545 1005.49 72.9091 1005.51 77.4545H988.054C987.804 74.7045 987.009 72.6136 985.668 71.1818C984.349 69.7273 982.645 69 980.554 69C978.918 69 977.486 69.4773 976.259 70.4318C975.031 71.3636 974.077 72.7841 973.395 74.6932C972.713 76.5795 972.372 78.9545 972.372 81.8182C972.372 84.6818 972.713 87.0682 973.395 88.9773C974.077 90.8636 975.031 92.2841 976.259 93.2386C977.486 94.1705 978.918 94.6364 980.554 94.6364C981.94 94.6364 983.168 94.3182 984.236 93.6818C985.304 93.0227 986.168 92.0682 986.827 90.8182C987.509 89.5455 987.918 88 988.054 86.1818H1005.51C1005.44 90.7955 1004.38 94.8182 1002.34 98.25C1000.29 101.659 997.395 104.295 993.645 106.159C989.918 108.023 985.463 108.955 980.281 108.955ZM1061.27 108V55.6364H1110.09V108H1092.36V69.6818H1078.73V108H1061.27Z" fill="white"/>
    <path d="M349.591 38.1818H350.591V37.1818H349.591V38.1818ZM349.591 108V109H350.591V108H349.591ZM330.909 108H329.909V109H330.909V108ZM330.909 53.1818H331.909V52.1818H330.909V53.1818ZM307.318 53.1818V52.1818H306.318V53.1818H307.318ZM307.318 108V109H308.318V108H307.318ZM288.636 108H287.636V109H288.636V108ZM288.636 38.1818V37.1818H287.636V38.1818H288.636ZM348.591 38.1818V108H350.591V38.1818H348.591ZM349.591 107H330.909V109H349.591V107ZM331.909 108V53.1818H329.909V108H331.909ZM330.909 52.1818H307.318V54.1818H330.909V52.1818ZM306.318 53.1818V108H308.318V53.1818H306.318ZM307.318 107H288.636V109H307.318V107ZM289.636 108V38.1818H287.636V108H289.636ZM288.636 39.1818H349.591V37.1818H288.636V39.1818ZM420.628 105.75L420.155 106.631L420.161 106.634L420.628 105.75ZM411.321 96.4773L410.439 96.9481L410.442 96.954L411.321 96.4773ZM411.355 67.7727L412.235 68.2474L412.235 68.2474L411.355 67.7727ZM420.594 58.3295L421.086 59.1999L421.086 59.1999L420.594 58.3295ZM445.412 56.7955L445.77 55.8616L445.77 55.8616L445.412 56.7955ZM453.628 62.1477L452.91 62.8443L452.914 62.8478L453.628 62.1477ZM458.878 70.6023L457.94 70.9492L457.94 70.9492L458.878 70.6023ZM460.719 86.1818V87.1818H461.719V86.1818H460.719ZM413.946 86.1818H412.946V87.1818H413.946V86.1818ZM413.946 75.8182V74.8182H412.946V75.8182H413.946ZM443.401 75.8182V76.8182H444.416L444.4 75.803L443.401 75.8182ZM442.241 71.8636L441.394 72.3951L441.401 72.4049L441.407 72.4145L442.241 71.8636ZM439.276 69.1705L438.802 70.0514L438.812 70.0566L438.822 70.0616L439.276 69.1705ZM430.889 69.1705L431.336 70.0649L431.343 70.0617L431.349 70.0584L430.889 69.1705ZM427.821 71.8295L426.994 71.2672L426.986 71.2787L427.821 71.8295ZM426.628 75.8182L425.628 75.7883L425.628 75.8033V75.8182H426.628ZM427.685 91.5L426.803 91.9714L426.803 91.9714L427.685 91.5ZM430.719 94.6023L430.224 95.4714L430.224 95.4714L430.719 94.6023ZM439.037 95.1818L438.721 94.2331L438.715 94.2352L439.037 95.1818ZM441.832 93.6136L442.494 94.3635L442.5 94.3581L442.506 94.3526L441.832 93.6136ZM443.537 91.0909V90.0909H442.842L442.6 90.7422L443.537 91.0909ZM460.719 91.0909L461.706 91.2513L461.894 90.0909H460.719V91.0909ZM456.526 100.568L457.295 101.206L457.298 101.203L456.526 100.568ZM447.764 106.773L448.138 107.7L448.141 107.699L447.764 106.773ZM435.082 107.955C429.619 107.955 424.968 106.911 421.095 104.866L420.161 106.634C424.379 108.862 429.364 109.955 435.082 109.955V107.955ZM421.101 104.869C417.25 102.802 414.289 99.8522 412.2 96.0005L410.442 96.954C412.717 101.148 415.96 104.38 420.155 106.631L421.101 104.869ZM412.203 96.0064C410.137 92.1354 409.082 87.4638 409.082 81.9545H407.082C407.082 87.718 408.187 92.7282 410.439 96.9481L412.203 96.0064ZM409.082 81.9545C409.082 76.6818 410.145 72.1232 412.235 68.2474L410.475 67.298C408.202 71.5132 407.082 76.4091 407.082 81.9545H409.082ZM412.235 68.2474C414.328 64.3667 417.274 61.3566 421.086 59.1999L420.101 57.4592C415.959 59.8025 412.746 63.0878 410.475 67.298L412.235 68.2474ZM421.086 59.1999C424.888 57.0493 429.405 55.9545 434.673 55.9545V53.9545C429.123 53.9545 424.254 55.1098 420.101 57.4592L421.086 59.1999ZM434.673 55.9545C438.524 55.9545 441.98 56.5519 445.054 57.7293L445.77 55.8616C442.435 54.5845 438.732 53.9545 434.673 53.9545V55.9545ZM445.054 57.7293C448.13 58.9073 450.744 60.6131 452.91 62.8443L454.345 61.4511C451.966 59.0005 449.103 57.1381 445.77 55.8616L445.054 57.7293ZM452.914 62.8478C455.079 65.0566 456.757 67.7512 457.94 70.9492L459.816 70.2554C458.544 66.817 456.722 63.8752 454.342 61.4477L452.914 62.8478ZM457.94 70.9492C459.12 74.1387 459.719 77.7571 459.719 81.8182H461.719C461.719 77.5611 461.091 73.7022 459.816 70.2554L457.94 70.9492ZM459.719 81.8182V86.1818H461.719V81.8182H459.719ZM460.719 85.1818H413.946V87.1818H460.719V85.1818ZM414.946 86.1818V75.8182H412.946V86.1818H414.946ZM413.946 76.8182H443.401V74.8182H413.946V76.8182ZM444.4 75.803C444.375 74.1325 443.942 72.6243 443.076 71.3128L441.407 72.4145C442.041 73.3757 442.381 74.5039 442.401 75.8333L444.4 75.803ZM443.089 71.3321C442.263 70.0158 441.136 68.9956 439.729 68.2793L438.822 70.0616C439.915 70.6181 440.766 71.3933 441.394 72.3951L443.089 71.3321ZM439.749 68.2895C438.358 67.5429 436.795 67.1818 435.082 67.1818V69.1818C436.507 69.1818 437.738 69.4799 438.802 70.0514L439.749 68.2895ZM435.082 67.1818C433.41 67.1818 431.853 67.5452 430.429 68.2825L431.349 70.0584C432.471 69.4775 433.709 69.1818 435.082 69.1818V67.1818ZM430.442 68.276C429.022 68.986 427.866 69.9844 426.994 71.2672L428.648 72.3919C429.321 71.402 430.211 70.6276 431.336 70.0649L430.442 68.276ZM426.986 71.2787C426.122 72.588 425.679 74.1027 425.628 75.7883L427.627 75.848C427.668 74.4882 428.02 73.3438 428.656 72.3804L426.986 71.2787ZM425.628 75.8182V87H427.628V75.8182H425.628ZM425.628 87C425.628 88.8254 426.011 90.4908 426.803 91.9714L428.567 91.0286C427.949 89.8728 427.628 88.5383 427.628 87H425.628ZM426.803 91.9714C427.598 93.4586 428.744 94.6295 430.224 95.4714L431.213 93.7331C430.057 93.075 429.181 92.1777 428.567 91.0286L426.803 91.9714ZM430.224 95.4714C431.724 96.3248 433.494 96.7273 435.491 96.7273V94.7273C433.762 94.7273 432.35 94.3798 431.213 93.7331L430.224 95.4714ZM435.491 96.7273C436.881 96.7273 438.173 96.5322 439.359 96.1285L438.715 94.2352C437.764 94.5587 436.693 94.7273 435.491 94.7273V96.7273ZM439.353 96.1305C440.557 95.7294 441.61 95.1438 442.494 94.3635L441.171 92.8638C440.51 93.4471 439.699 93.907 438.721 94.2331L439.353 96.1305ZM442.506 94.3526C443.396 93.5411 444.055 92.5665 444.474 91.4396L442.6 90.7422C442.292 91.5698 441.814 92.2771 441.159 92.8747L442.506 94.3526ZM443.537 92.0909H460.719V90.0909H443.537V92.0909ZM459.732 90.9305C459.167 94.4036 457.839 97.3962 455.753 99.9332L457.298 101.203C459.622 98.3765 461.088 95.051 461.706 91.2513L459.732 90.9305ZM455.756 99.9299C453.67 102.446 450.892 104.423 447.388 105.846L448.141 107.699C451.909 106.168 454.972 104.009 457.295 101.206L455.756 99.9299ZM447.391 105.845C443.921 107.242 439.825 107.955 435.082 107.955V109.955C440.021 109.955 444.38 109.213 448.138 107.7L447.391 105.845ZM516.398 127.636H515.398V128.636H516.398V127.636ZM516.398 55.6364V54.6364H515.398V55.6364H516.398ZM535.08 55.6364H536.08V54.6364H535.08V55.6364ZM535.08 64.7727H534.08V65.7727H535.08V64.7727ZM535.489 64.7727V65.7727H536.175L536.422 65.1317L535.489 64.7727ZM538.489 59.8977L539.235 60.5635L539.24 60.5578L538.489 59.8977ZM543.398 56.3182L543.811 57.2289L543.819 57.2249L543.398 56.3182ZM560.068 57.7159L559.559 58.5767L559.562 58.5783L560.068 57.7159ZM567.705 66.4091L566.808 66.8522L566.81 66.8563L567.705 66.4091ZM567.841 96.8523L566.937 96.4237L566.935 96.428L567.841 96.8523ZM560.341 105.75L559.812 104.901L559.809 104.903L560.341 105.75ZM543.5 107.489L543.106 108.408L543.113 108.411L543.119 108.413L543.5 107.489ZM538.591 104.182L537.866 104.871L537.872 104.877L537.878 104.883L538.591 104.182ZM535.489 99.4091L536.414 99.0295L536.159 98.4091H535.489V99.4091ZM535.216 99.4091V98.4091H534.216V99.4091H535.216ZM535.216 127.636V128.636H536.216V127.636H535.216ZM535.795 88.4318L534.853 88.7652L534.855 88.7722L534.858 88.7791L535.795 88.4318ZM538.659 92.7273L538.019 93.4955L538.027 93.5019L538.034 93.5081L538.659 92.7273ZM547.523 92.7614L548.153 93.5379L548.154 93.5366L547.523 92.7614ZM550.318 88.5L549.375 88.1666L549.373 88.1733L550.318 88.5ZM550.318 75.1705L549.372 75.4936L549.374 75.5006L549.377 75.5075L550.318 75.1705ZM547.523 70.9091L546.884 71.6785L546.892 71.685L546.9 71.6914L547.523 70.9091ZM538.659 70.9091L539.282 71.6914L539.284 71.69L538.659 70.9091ZM535.795 75.1705L534.856 74.8269L534.854 74.8334L535.795 75.1705ZM517.398 127.636V55.6364H515.398V127.636H517.398ZM516.398 56.6364H535.08V54.6364H516.398V56.6364ZM534.08 55.6364V64.7727H536.08V55.6364H534.08ZM535.08 65.7727H535.489V63.7727H535.08V65.7727ZM536.422 65.1317C537.059 63.4765 537.994 61.9545 539.235 60.5635L537.742 59.2319C536.347 60.7955 535.282 62.5235 534.555 64.4137L536.422 65.1317ZM539.24 60.5578C540.457 59.1722 541.976 58.0611 543.811 57.2289L542.985 55.4074C540.911 56.348 539.156 57.6232 537.737 59.2376L539.24 60.5578ZM543.819 57.2249C545.618 56.3884 547.742 55.9545 550.216 55.9545V53.9545C547.508 53.9545 545.087 54.4298 542.976 55.4115L543.819 57.2249ZM550.216 55.9545C553.483 55.9545 556.592 56.8225 559.559 58.5767L560.577 56.8551C557.317 54.9275 553.858 53.9545 550.216 53.9545V55.9545ZM559.562 58.5783C562.497 60.3012 564.921 63.0349 566.808 66.8522L568.601 65.966C566.579 61.8742 563.912 58.8124 560.574 56.8535L559.562 58.5783ZM566.81 66.8563C568.695 70.6255 569.67 75.5931 569.67 81.8182H571.67C571.67 75.4069 570.669 70.1018 568.599 65.9619L566.81 66.8563ZM569.67 81.8182C569.67 87.7676 568.741 92.6207 566.937 96.4237L568.744 97.2808C570.713 93.1293 571.67 87.9597 571.67 81.8182H569.67ZM566.935 96.428C565.138 100.264 562.756 103.067 559.812 104.901L560.87 106.599C564.199 104.524 566.817 101.395 568.746 97.2766L566.935 96.428ZM559.809 104.903C556.857 106.756 553.621 107.682 550.08 107.682V109.682C553.992 109.682 557.597 108.653 560.873 106.597L559.809 104.903ZM550.08 107.682C547.733 107.682 545.673 107.302 543.881 106.564L543.119 108.413C545.191 109.266 547.517 109.682 550.08 109.682V107.682ZM543.894 106.569C542.096 105.799 540.57 104.768 539.304 103.481L537.878 104.883C539.339 106.368 541.086 107.542 543.106 108.408L543.894 106.569ZM539.315 103.492C538.059 102.172 537.093 100.686 536.414 99.0295L534.563 99.7886C535.339 101.678 536.441 103.374 537.866 104.871L539.315 103.492ZM535.489 98.4091H535.216V100.409H535.489V98.4091ZM534.216 99.4091V127.636H536.216V99.4091H534.216ZM535.216 126.636H516.398V128.636H535.216V126.636ZM533.807 81.8182C533.807 84.4462 534.147 86.7687 534.853 88.7652L536.738 88.0984C536.126 86.3676 535.807 84.2811 535.807 81.8182H533.807ZM534.858 88.7791C535.586 90.7467 536.63 92.3379 538.019 93.4955L539.299 91.9591C538.234 91.0712 537.368 89.7988 536.733 88.0845L534.858 88.7791ZM538.034 93.5081C539.476 94.6615 541.19 95.2273 543.125 95.2273V93.2273C541.606 93.2273 540.342 92.793 539.284 91.9464L538.034 93.5081ZM543.125 95.2273C545.054 95.2273 546.75 94.6763 548.153 93.5379L546.893 91.9848C545.887 92.801 544.651 93.2273 543.125 93.2273V95.2273ZM548.154 93.5366C549.556 92.3948 550.58 90.8029 551.263 88.8267L549.373 88.1733C548.783 89.8789 547.944 91.128 546.891 91.9861L548.154 93.5366ZM551.261 88.8334C551.968 86.8353 552.307 84.4894 552.307 81.8182H550.307C550.307 84.3288 549.987 86.4375 549.375 88.1666L551.261 88.8334ZM552.307 81.8182C552.307 79.1475 551.968 76.8112 551.26 74.8334L549.377 75.5075C549.987 77.2115 550.307 79.307 550.307 81.8182H552.307ZM551.265 74.8473C550.582 72.8488 549.556 71.2501 548.146 70.1268L546.9 71.6914C547.944 72.5226 548.782 73.7648 549.372 75.4936L551.265 74.8473ZM548.161 70.1397C546.759 68.975 545.06 68.4091 543.125 68.4091V70.4091C544.645 70.4091 545.878 70.8432 546.884 71.6785L548.161 70.1397ZM543.125 68.4091C541.19 68.4091 539.476 68.9748 538.034 70.1282L539.284 71.69C540.342 70.8434 541.606 70.4091 543.125 70.4091V68.4091ZM538.036 70.1268C536.632 71.2452 535.585 72.8359 534.856 74.8269L536.735 75.514C537.37 73.7777 538.232 72.5276 539.282 71.6914L538.036 70.1268ZM534.854 74.8334C534.146 76.8112 533.807 79.1475 533.807 81.8182H535.807C535.807 79.307 536.127 77.2115 536.737 75.5075L534.854 74.8334ZM637.19 105.58L636.701 106.451L636.704 106.453L637.19 105.58ZM627.884 96.1023L627 96.5711L627.001 96.5731L627.884 96.1023ZM627.884 67.8409L628.766 68.3118L628.767 68.3097L627.884 67.8409ZM637.19 58.3636L637.676 59.2376L637.68 59.2355L637.19 58.3636ZM665.111 57.75L664.666 58.6455L664.672 58.6487L665.111 57.75ZM673.872 65.5909L673.019 66.1121L673.02 66.1147L673.872 65.5909ZM677.009 77.4545V78.4545H678.014L678.009 77.4495L677.009 77.4545ZM659.554 77.4545L658.558 77.5451L658.641 78.4545H659.554V77.4545ZM657.168 71.1818L656.427 71.8533L656.432 71.8594L656.438 71.8654L657.168 71.1818ZM647.759 70.4318L648.363 71.2283L648.372 71.2212L647.759 70.4318ZM644.895 74.6932L645.835 75.0331L645.837 75.0295L644.895 74.6932ZM644.895 88.9773L643.953 89.3136L643.954 89.3172L644.895 88.9773ZM647.759 93.2386L647.145 94.028L647.154 94.0351L647.759 93.2386ZM655.736 93.6818L656.248 94.5409L656.254 94.5369L656.261 94.5329L655.736 93.6818ZM658.327 90.8182L657.445 90.3459L657.442 90.3518L658.327 90.8182ZM659.554 86.1818V85.1818H658.626L658.557 86.107L659.554 86.1818ZM677.009 86.1818L678.008 86.1966L678.023 85.1818H677.009V86.1818ZM673.838 98.25L674.696 98.7645L674.697 98.762L673.838 98.25ZM665.145 106.159L664.7 105.264L664.698 105.265L665.145 106.159ZM651.781 107.955C646.231 107.955 641.543 106.856 637.676 104.706L636.704 106.453C640.929 108.803 645.968 109.955 651.781 109.955V107.955ZM637.68 104.708C633.799 102.527 630.834 99.5064 628.766 95.6314L627.001 96.5731C629.251 100.789 632.491 104.086 636.701 106.451L637.68 104.708ZM628.767 95.6335C626.696 91.7318 625.645 87.1817 625.645 81.9545H623.645C623.645 87.4546 624.753 92.3364 627 96.5711L628.767 95.6335ZM625.645 81.9545C625.645 76.7272 626.696 72.1895 628.766 68.3118L627.001 67.3701C624.753 71.5832 623.645 76.4546 623.645 81.9545H625.645ZM628.767 68.3097C630.835 64.413 633.799 61.3942 637.676 59.2376L636.704 57.4897C632.491 59.8331 629.25 63.1324 627 67.3721L628.767 68.3097ZM637.68 59.2355C641.546 57.0637 646.233 55.9545 651.781 55.9545V53.9545C645.966 53.9545 640.926 55.1181 636.701 57.4918L637.68 59.2355ZM651.781 55.9545C656.798 55.9545 661.082 56.8644 664.666 58.6455L665.556 56.8545C661.64 54.9083 657.038 53.9545 651.781 53.9545V55.9545ZM664.672 58.6487C668.284 60.411 671.056 62.8982 673.019 66.1121L674.726 65.0697C672.552 61.5109 669.483 58.7708 665.549 56.8513L664.672 58.6487ZM673.02 66.1147C674.979 69.2998 675.987 73.0691 676.009 77.4595L678.009 77.4495C677.985 72.7491 676.902 68.6093 674.724 65.0671L673.02 66.1147ZM677.009 76.4545H659.554V78.4545H677.009V76.4545ZM660.55 77.364C660.288 74.4807 659.442 72.1473 657.898 70.4983L656.438 71.8654C657.575 73.0799 658.32 74.9284 658.558 77.5451L660.55 77.364ZM657.909 70.5103C656.387 68.8317 654.406 68 652.054 68V70C653.883 70 655.311 70.6228 656.427 71.8533L657.909 70.5103ZM652.054 68C650.208 68 648.557 68.5439 647.145 69.6425L648.372 71.2212C649.415 70.4106 650.627 70 652.054 70V68ZM647.154 69.6354C645.73 70.7163 644.68 72.3216 643.953 74.3568L645.837 75.0295C646.473 73.2466 647.332 72.0109 648.363 71.2283L647.154 69.6354ZM643.954 74.3533C643.22 76.3844 642.872 78.8841 642.872 81.8182H644.872C644.872 79.025 645.206 76.7747 645.835 75.0331L643.954 74.3533ZM642.872 81.8182C642.872 84.7529 643.22 87.2621 643.953 89.3136L645.837 88.6409C645.206 86.8743 644.872 84.6107 644.872 81.8182H642.872ZM643.954 89.3172C644.682 91.3304 645.731 92.9283 647.145 94.028L648.372 92.4493C647.332 91.6399 646.471 90.3969 645.835 88.6373L643.954 89.3172ZM647.154 94.0351C648.566 95.1074 650.214 95.6364 652.054 95.6364V93.6364C650.622 93.6364 649.405 93.2335 648.363 92.4422L647.154 94.0351ZM652.054 95.6364C653.599 95.6364 655.007 95.2798 656.248 94.5409L655.224 92.8227C654.328 93.3566 653.281 93.6364 652.054 93.6364V95.6364ZM656.261 94.5329C657.5 93.7686 658.48 92.6723 659.211 91.2846L657.442 90.3518C656.856 91.4641 656.108 92.2769 655.211 92.8308L656.261 94.5329ZM659.208 91.2904C659.971 89.8669 660.407 88.1786 660.551 86.2566L658.557 86.107C658.428 87.8214 658.046 89.224 657.445 90.346L659.208 91.2904ZM659.554 87.1818H677.009V85.1818H659.554V87.1818ZM676.009 86.167C675.943 90.6329 674.922 94.4787 672.979 97.738L674.697 98.762C676.845 95.1577 677.938 90.958 678.008 86.1966L676.009 86.167ZM672.981 97.7355C671.039 100.972 668.288 103.48 664.7 105.264L665.59 107.055C669.501 105.111 672.546 102.346 674.696 98.7645L672.981 97.7355ZM664.698 105.265C661.139 107.044 656.845 107.955 651.781 107.955V109.955C657.081 109.955 661.696 109.001 665.592 107.054L664.698 105.265ZM786.909 66.4091H787.909V65.4091H786.909V66.4091ZM786.909 81.1364V82.1364H787.909V81.1364H786.909ZM755.955 81.1364H754.955V82.1364H755.955V81.1364ZM755.955 66.4091V65.4091H754.955V66.4091H755.955ZM732.364 84.4091V83.4091H731.317L731.365 84.4545L732.364 84.4091ZM751.045 84.4091L752.045 84.4357L752.072 83.4091H751.045V84.4091ZM753.943 91.9432L753.32 92.7249L753.324 92.7283L753.943 91.9432ZM769.932 92.4205L770.532 93.2205L770.533 93.2192L769.932 92.4205ZM773.511 86.25L772.538 86.0223L772.536 86.028L773.511 86.25ZM769.693 54.0682L770.305 53.2771L770.305 53.2771L769.693 54.0682ZM755.443 53.3523L755.886 54.2491L755.886 54.2491L755.443 53.3523ZM751.932 56.9659L752.858 57.3419L752.858 57.3419L751.932 56.9659ZM750.909 62.5909V63.5909H751.888L751.909 62.6117L750.909 62.5909ZM732.227 62.5909L731.232 62.4943L731.125 63.5909H732.227V62.5909ZM746.477 40.6364L746.939 41.5233L746.939 41.5233L746.477 40.6364ZM778.659 41.3523L778.138 42.2056L778.143 42.2086L778.659 41.3523ZM789.159 53.0795L788.26 53.5171L788.262 53.5219L789.159 53.0795ZM789.295 93.3409L790.197 93.7734L790.198 93.7718L789.295 93.3409ZM778.864 104.932L779.372 105.793L779.375 105.791L778.864 104.932ZM746.92 105.955L746.503 106.863L746.509 106.866L746.92 105.955ZM736.489 97.4318L735.664 97.9971L735.668 98.0029L736.489 97.4318ZM785.909 66.4091V81.1364H787.909V66.4091H785.909ZM786.909 80.1364H755.955V82.1364H786.909V80.1364ZM756.955 81.1364V66.4091H754.955V81.1364H756.955ZM755.955 67.4091H786.909V65.4091H755.955V67.4091ZM732.364 85.4091H751.045V83.4091H732.364V85.4091ZM750.046 84.3824C749.949 87.9966 750.978 90.8567 753.32 92.7249L754.567 91.1615C752.863 89.8024 751.96 87.6398 752.045 84.4357L750.046 84.3824ZM753.324 92.7283C755.601 94.5247 758.653 95.3636 762.364 95.3636V93.3636C758.938 93.3636 756.376 92.589 754.563 91.1581L753.324 92.7283ZM762.364 95.3636C765.789 95.3636 768.561 94.6988 770.532 93.2205L769.332 91.6205C767.848 92.733 765.575 93.3636 762.364 93.3636V95.3636ZM770.533 93.2192C772.524 91.72 773.814 89.4256 774.486 86.472L772.536 86.028C771.936 88.6653 770.84 90.4846 769.33 91.6217L770.533 93.2192ZM774.485 86.4777C775.168 83.5557 775.5 79.8121 775.5 75.2727H773.5C773.5 79.7333 773.172 83.3079 772.538 86.0223L774.485 86.4777ZM775.5 75.2727V71.0455H773.5V75.2727H775.5ZM775.5 71.0455C775.5 66.5894 775.122 62.8913 774.341 59.9795L772.409 60.4978C773.128 63.1769 773.5 66.6833 773.5 71.0455H775.5ZM774.341 59.9795C773.553 57.0447 772.233 54.7685 770.305 53.2771L769.081 54.8592C770.562 56.0043 771.697 57.8416 772.409 60.4978L774.341 59.9795ZM770.305 53.2771C768.373 51.783 765.826 51.0909 762.773 51.0909V53.0909C765.537 53.0909 767.604 53.717 769.081 54.8592L770.305 53.2771ZM762.773 51.0909C759.528 51.0909 756.906 51.5156 755.001 52.4555L755.886 54.2491C757.39 53.5071 759.654 53.0909 762.773 53.0909V51.0909ZM755.001 52.4555C753.105 53.3905 751.745 54.7664 751.005 56.5899L752.858 57.3419C753.391 56.0291 754.372 54.9959 755.886 54.2491L755.001 52.4555ZM751.005 56.5899C750.312 58.2984 749.957 60.3 749.909 62.5701L751.909 62.6117C751.952 60.5182 752.279 58.7697 752.858 57.3419L751.005 56.5899ZM750.909 61.5909H732.227V63.5909H750.909V61.5909ZM733.223 62.6875C733.663 58.1488 735.016 54.0334 737.274 50.3272L735.567 49.2864C733.144 53.262 731.7 57.6694 731.232 62.4943L733.223 62.6875ZM737.274 50.3272C739.512 46.6563 742.722 43.72 746.939 41.5233L746.015 39.7494C741.506 42.0982 738.011 45.2755 735.567 49.2864L737.274 50.3272ZM746.939 41.5233C751.122 39.3448 756.384 38.2273 762.773 38.2273V36.2273C756.162 36.2273 750.56 37.3824 746.015 39.7494L746.939 41.5233ZM762.773 38.2273C768.709 38.2273 773.818 39.5656 778.138 42.2056L779.181 40.499C774.5 37.639 769.019 36.2273 762.773 36.2273V38.2273ZM778.143 42.2086C782.488 44.8289 785.861 48.5867 788.26 53.5171L790.058 52.642C787.503 47.3905 783.876 43.3302 779.175 40.4959L778.143 42.2086ZM788.262 53.5219C790.68 58.4236 791.909 64.2994 791.909 71.1818H793.909C793.909 64.0642 792.638 57.8718 790.056 52.6372L788.262 53.5219ZM791.909 71.1818V75.2727H793.909V71.1818H791.909ZM791.909 75.2727C791.909 82.1602 790.724 88.0286 788.393 92.91L790.198 93.7718C792.685 88.5623 793.909 82.3853 793.909 75.2727H791.909ZM788.394 92.9084C786.065 97.7635 782.719 101.474 778.352 104.072L779.375 105.791C784.099 102.98 787.708 98.9638 790.197 93.7734L788.394 92.9084ZM778.355 104.071C773.995 106.643 768.679 107.955 762.364 107.955V109.955C768.957 109.955 774.641 108.584 779.372 105.793L778.355 104.071ZM762.364 107.955C756.613 107.955 751.611 106.974 747.332 105.043L746.509 106.866C751.094 108.935 756.387 109.955 762.364 109.955V107.955ZM747.337 105.046C743.076 103.091 739.744 100.36 737.31 96.8608L735.668 98.0029C738.324 101.821 741.947 104.773 746.503 106.863L747.337 105.046ZM737.314 96.8666C734.909 93.3566 733.582 89.2008 733.363 84.3637L731.365 84.4545C731.599 89.6174 733.023 94.1434 735.664 97.997L737.314 96.8666ZM849.866 108H848.866V109H849.866V108ZM849.866 55.6364V54.6364H848.866V55.6364H849.866ZM868.685 55.6364H869.685V54.6364H868.685V55.6364ZM868.685 74.3182H867.685V75.3182H868.685V74.3182ZM871.957 74.3182V75.3182H872.524L872.815 74.8318L871.957 74.3182ZM883.139 55.6364V54.6364H882.572L882.281 55.1228L883.139 55.6364ZM904.685 55.6364L905.529 56.1718L906.503 54.6364H904.685V55.6364ZM887.912 82.0909L887.067 81.5554L886.723 82.0987L887.074 82.6374L887.912 82.0909ZM904.821 108V109H906.668L905.658 107.453L904.821 108ZM883.003 108L882.154 108.528L882.447 109H883.003V108ZM872.912 91.7727L873.761 91.2447L873.468 90.7727H872.912V91.7727ZM868.685 91.7727V90.7727H867.685V91.7727H868.685ZM868.685 108V109H869.685V108H868.685ZM850.866 108V55.6364H848.866V108H850.866ZM849.866 56.6364H868.685V54.6364H849.866V56.6364ZM867.685 55.6364V74.3182H869.685V55.6364H867.685ZM868.685 75.3182H871.957V73.3182H868.685V75.3182ZM872.815 74.8318L883.997 56.1499L882.281 55.1228L871.099 73.8046L872.815 74.8318ZM883.139 56.6364H904.685V54.6364H883.139V56.6364ZM903.84 55.1009L887.067 81.5554L888.756 82.6264L905.529 56.1718L903.84 55.1009ZM887.074 82.6374L903.984 108.547L905.658 107.453L888.749 81.5444L887.074 82.6374ZM904.821 107H883.003V109H904.821V107ZM883.852 107.472L873.761 91.2447L872.063 92.3008L882.154 108.528L883.852 107.472ZM872.912 90.7727H868.685V92.7727H872.912V90.7727ZM867.685 91.7727V108H869.685V91.7727H867.685ZM868.685 107H849.866V109H868.685V107ZM965.69 105.58L965.201 106.451L965.204 106.453L965.69 105.58ZM956.384 96.1023L955.5 96.5711L955.501 96.5731L956.384 96.1023ZM956.384 67.8409L957.266 68.3118L957.267 68.3097L956.384 67.8409ZM965.69 58.3636L966.176 59.2376L966.18 59.2355L965.69 58.3636ZM993.611 57.75L993.166 58.6455L993.172 58.6487L993.611 57.75ZM1002.37 65.5909L1001.52 66.1121L1001.52 66.1147L1002.37 65.5909ZM1005.51 77.4545V78.4545H1006.51L1006.51 77.4495L1005.51 77.4545ZM988.054 77.4545L987.058 77.5451L987.141 78.4545H988.054V77.4545ZM985.668 71.1818L984.927 71.8533L984.932 71.8594L984.938 71.8654L985.668 71.1818ZM976.259 70.4318L976.863 71.2283L976.872 71.2212L976.259 70.4318ZM973.395 74.6932L974.335 75.0331L974.337 75.0295L973.395 74.6932ZM973.395 88.9773L972.453 89.3136L972.454 89.3172L973.395 88.9773ZM976.259 93.2386L975.645 94.028L975.654 94.0351L976.259 93.2386ZM984.236 93.6818L984.748 94.5409L984.754 94.5369L984.761 94.5329L984.236 93.6818ZM986.827 90.8182L985.945 90.3459L985.942 90.3518L986.827 90.8182ZM988.054 86.1818V85.1818H987.126L987.057 86.107L988.054 86.1818ZM1005.51 86.1818L1006.51 86.1966L1006.52 85.1818H1005.51V86.1818ZM1002.34 98.25L1003.2 98.7645L1003.2 98.762L1002.34 98.25ZM993.645 106.159L993.2 105.264L993.198 105.265L993.645 106.159ZM980.281 107.955C974.731 107.955 970.043 106.856 966.176 104.706L965.204 106.453C969.429 108.803 974.468 109.955 980.281 109.955V107.955ZM966.18 104.708C962.299 102.527 959.334 99.5064 957.266 95.6314L955.501 96.5731C957.751 100.789 960.991 104.086 965.201 106.451L966.18 104.708ZM957.267 95.6335C955.196 91.7318 954.145 87.1817 954.145 81.9545H952.145C952.145 87.4546 953.253 92.3364 955.5 96.5711L957.267 95.6335ZM954.145 81.9545C954.145 76.7272 955.196 72.1895 957.266 68.3118L955.501 67.3701C953.253 71.5832 952.145 76.4546 952.145 81.9545H954.145ZM957.267 68.3097C959.335 64.413 962.299 61.3942 966.176 59.2376L965.204 57.4897C960.991 59.8331 957.75 63.1324 955.5 67.3721L957.267 68.3097ZM966.18 59.2355C970.046 57.0637 974.733 55.9545 980.281 55.9545V53.9545C974.466 53.9545 969.426 55.1181 965.201 57.4918L966.18 59.2355ZM980.281 55.9545C985.298 55.9545 989.582 56.8644 993.166 58.6455L994.056 56.8545C990.14 54.9083 985.538 53.9545 980.281 53.9545V55.9545ZM993.172 58.6487C996.784 60.411 999.556 62.8982 1001.52 66.1121L1003.23 65.0697C1001.05 61.5109 997.983 58.7708 994.049 56.8513L993.172 58.6487ZM1001.52 66.1147C1003.48 69.2998 1004.49 73.0691 1004.51 77.4595L1006.51 77.4495C1006.49 72.7491 1005.4 68.6093 1003.22 65.0671L1001.52 66.1147ZM1005.51 76.4545H988.054V78.4545H1005.51V76.4545ZM989.05 77.364C988.788 74.4807 987.942 72.1473 986.398 70.4983L984.938 71.8654C986.075 73.0799 986.82 74.9284 987.058 77.5451L989.05 77.364ZM986.409 70.5103C984.887 68.8317 982.906 68 980.554 68V70C982.383 70 983.811 70.6228 984.927 71.8533L986.409 70.5103ZM980.554 68C978.708 68 977.057 68.5439 975.645 69.6425L976.872 71.2212C977.915 70.4106 979.127 70 980.554 70V68ZM975.654 69.6354C974.23 70.7163 973.18 72.3216 972.453 74.3568L974.337 75.0295C974.973 73.2466 975.832 72.0109 976.863 71.2283L975.654 69.6354ZM972.454 74.3533C971.72 76.3844 971.372 78.8841 971.372 81.8182H973.372C973.372 79.025 973.706 76.7747 974.335 75.0331L972.454 74.3533ZM971.372 81.8182C971.372 84.7529 971.72 87.2621 972.453 89.3136L974.337 88.6409C973.706 86.8743 973.372 84.6107 973.372 81.8182H971.372ZM972.454 89.3172C973.182 91.3304 974.231 92.9283 975.645 94.028L976.872 92.4493C975.832 91.6399 974.971 90.3969 974.335 88.6373L972.454 89.3172ZM975.654 94.0351C977.066 95.1074 978.714 95.6364 980.554 95.6364V93.6364C979.122 93.6364 977.905 93.2335 976.863 92.4422L975.654 94.0351ZM980.554 95.6364C982.099 95.6364 983.507 95.2798 984.748 94.5409L983.724 92.8227C982.828 93.3566 981.781 93.6364 980.554 93.6364V95.6364ZM984.761 94.5329C986 93.7686 986.98 92.6723 987.711 91.2846L985.942 90.3518C985.356 91.4641 984.608 92.2769 983.711 92.8308L984.761 94.5329ZM987.708 91.2904C988.471 89.8669 988.907 88.1786 989.051 86.2566L987.057 86.107C986.928 87.8214 986.546 89.224 985.945 90.346L987.708 91.2904ZM988.054 87.1818H1005.51V85.1818H988.054V87.1818ZM1004.51 86.167C1004.44 90.6329 1003.42 94.4787 1001.48 97.738L1003.2 98.762C1005.35 95.1577 1006.44 90.958 1006.51 86.1966L1004.51 86.167ZM1001.48 97.7355C999.539 100.972 996.788 103.48 993.2 105.264L994.09 107.055C998.001 105.111 1001.05 102.346 1003.2 98.7645L1001.48 97.7355ZM993.198 105.265C989.639 107.044 985.345 107.955 980.281 107.955V109.955C985.581 109.955 990.196 109.001 994.092 107.054L993.198 105.265ZM1061.27 108H1060.27V109H1061.27V108ZM1061.27 55.6364V54.6364H1060.27V55.6364H1061.27ZM1110.09 55.6364H1111.09V54.6364H1110.09V55.6364ZM1110.09 108V109H1111.09V108H1110.09ZM1092.36 108H1091.36V109H1092.36V108ZM1092.36 69.6818H1093.36V68.6818H1092.36V69.6818ZM1078.73 69.6818V68.6818H1077.73V69.6818H1078.73ZM1078.73 108V109H1079.73V108H1078.73ZM1062.27 108V55.6364H1060.27V108H1062.27ZM1061.27 56.6364H1110.09V54.6364H1061.27V56.6364ZM1109.09 55.6364V108H1111.09V55.6364H1109.09ZM1110.09 107H1092.36V109H1110.09V107ZM1093.36 108V69.6818H1091.36V108H1093.36ZM1092.36 68.6818H1078.73V70.6818H1092.36V68.6818ZM1077.73 69.6818V108H1079.73V69.6818H1077.73ZM1078.73 107H1061.27V109H1078.73V107Z" fill="white"/>
    <line y1="70.5" x2="200" y2="70.5" stroke="white" stroke-width="5"/>
    <line x1="1236" y1="70.5" x2="1436" y2="70.5" stroke="white" stroke-width="5"/>
</svg>
