<svg viewBox="0 0 30 20" fill="none" xmlns="http://www.w3.org/2000/svg"><path d="M7.992 9.112c1.632 0 2.928.48 3.888 1.44.992.928 1.488 2.192 1.488 3.792 0 1.568-.528 2.88-1.584 3.936-1.056 1.024-2.576 1.536-4.56 1.536-2.048 0-3.616-.688-4.704-2.064C1.432 16.344.888 14.568.888 12.424c0-2.048.48-3.872 1.44-5.472a13.843 13.843 0 0 1 3.696-4.128C7.56 1.672 9.128.792 10.728.184l1.056 2.304a12.52 12.52 0 0 0-3.312 1.824 11.04 11.04 0 0 0-2.544 2.784c-.64 1.024-.976 2.08-1.008 3.168.128-.256.464-.512 1.008-.768.576-.256 1.264-.384 2.064-.384zm15.696 0c1.632 0 2.928.48 3.888 1.44.992.928 1.488 2.192 1.488 3.792 0 1.568-.528 2.88-1.584 3.936-1.056 1.024-2.576 1.536-4.56 1.536-2.048 0-3.616-.688-4.704-2.064-1.088-1.408-1.632-3.184-1.632-5.328 0-2.048.48-3.872 1.44-5.472a13.843 13.843 0 0 1 3.696-4.128c1.536-1.152 3.104-2.032 4.704-2.64l1.056 2.304a12.52 12.52 0 0 0-3.312 1.824 11.04 11.04 0 0 0-2.544 2.784c-.64 1.024-.976 2.08-1.008 3.168.128-.256.464-.512 1.008-.768.576-.256 1.264-.384 2.064-.384z" fill="#fff"/></svg>