<svg viewBox="0 0 650 650" fill="none" xmlns="http://www.w3.org/2000/svg"><path d="M114.318 38.636V155H83.182V63.636H43.864V155H12.727V38.636h101.591zm132.941 58.182c0 12.955-2.519 23.883-7.557 32.784-5.038 8.864-11.837 15.587-20.398 20.171-8.561 4.545-18.106 6.818-28.636 6.818-10.606 0-20.19-2.292-28.75-6.875-8.523-4.621-15.303-11.364-20.341-20.227-5-8.902-7.5-19.792-7.5-32.67 0-12.955 2.5-23.865 7.5-32.728 5.038-8.902 11.818-15.625 20.341-20.17 8.56-4.584 18.144-6.876 28.75-6.876 10.53 0 20.075 2.292 28.636 6.875 8.561 4.546 15.36 11.27 20.398 20.17 5.038 8.864 7.557 19.774 7.557 32.728zm-32.5 0c0-6.97-.929-12.84-2.785-17.614-1.818-4.81-4.526-8.446-8.125-10.908-3.56-2.5-7.954-3.75-13.181-3.75-5.228 0-9.641 1.25-13.239 3.75-3.561 2.462-6.269 6.098-8.125 10.908-1.818 4.773-2.727 10.645-2.727 17.614 0 6.97.909 12.86 2.727 17.671 1.856 4.772 4.564 8.409 8.125 10.909 3.598 2.462 8.011 3.693 13.239 3.693 5.227 0 9.621-1.231 13.181-3.693 3.599-2.5 6.307-6.137 8.125-10.909 1.856-4.811 2.785-10.701 2.785-17.67zM319.602 85v23.636h-54.545V85h54.545zM120.227 552.818c0 12.955-2.519 23.883-7.557 32.784-5.037 8.864-11.837 15.587-20.397 20.171-8.56 4.545-18.106 6.818-28.637 6.818-10.606 0-20.189-2.292-28.75-6.875-8.522-4.621-15.303-11.364-20.34-20.227-5-8.902-7.5-19.792-7.5-32.671 0-12.954 2.5-23.863 7.5-32.727 5.037-8.902 11.818-15.625 20.34-20.171 8.561-4.583 18.144-6.875 28.75-6.875 10.53 0 20.076 2.292 28.637 6.875 8.56 4.546 15.36 11.269 20.397 20.171 5.038 8.864 7.557 19.773 7.557 32.727zm-32.5 0c0-6.97-.928-12.841-2.784-17.613-1.818-4.811-4.526-8.447-8.125-10.91-3.56-2.5-7.954-3.75-13.182-3.75-5.227 0-9.64 1.25-13.238 3.75-3.56 2.463-6.27 6.099-8.125 10.91-1.819 4.772-2.728 10.643-2.728 17.613 0 6.97.91 12.86 2.728 17.671 1.856 4.772 4.564 8.409 8.125 10.909 3.598 2.462 8.011 3.693 13.238 3.693 5.228 0 9.622-1.231 13.182-3.693 3.599-2.5 6.307-6.137 8.125-10.909 1.856-4.811 2.784-10.701 2.784-17.671zM166.72 611V494.636h31.591v45.455h41.818v-45.455h31.591V611h-31.591v-45.455H198.31V611h-31.591zm150.227 0h-34.091l38.409-116.364h43.182L402.855 611h-34.091l-25.454-84.318h-.909L316.946 611zm-6.364-45.909h64.091v23.636h-64.091v-23.636zm206.648-26.818h-32.045c-.228-2.652-.834-5.057-1.819-7.216a16.273 16.273 0 0 0-3.977-5.568c-1.666-1.591-3.693-2.803-6.079-3.637-2.387-.871-5.095-1.307-8.125-1.307-5.303 0-9.792 1.288-13.466 3.864-3.637 2.576-6.402 6.269-8.296 11.08-1.856 4.81-2.784 10.587-2.784 17.329 0 7.121.947 13.087 2.841 17.898 1.932 4.773 4.716 8.371 8.352 10.795 3.637 2.387 8.012 3.58 13.125 3.58 2.917 0 5.531-.36 7.841-1.08 2.311-.757 4.318-1.837 6.023-3.238a16.778 16.778 0 0 0 4.148-5.057c1.098-2.008 1.837-4.261 2.216-6.761l32.045.227c-.379 4.924-1.761 9.943-4.148 15.057-2.386 5.075-5.776 9.772-10.17 14.091-4.356 4.28-9.754 7.727-16.193 10.34-6.44 2.614-13.921 3.921-22.443 3.921-10.682 0-20.266-2.292-28.75-6.875-8.447-4.583-15.133-11.326-20.057-20.227-4.887-8.902-7.33-19.792-7.33-32.671 0-12.954 2.5-23.863 7.5-32.727 5-8.902 11.743-15.625 20.227-20.171 8.485-4.583 17.955-6.875 28.41-6.875 7.348 0 14.109 1.004 20.284 3.012 6.174 2.007 11.591 4.943 16.25 8.807 4.659 3.825 8.409 8.541 11.25 14.147 2.841 5.606 4.564 12.027 5.17 19.262zM3.636 410.955v-52.273h8.182c2.728-1.667 5.19-4.015 7.386-7.046 2.235-3.03 4.13-7.367 5.682-13.011 1.591-5.644 2.765-13.201 3.523-22.67l3.864-49.319h82.272v92.046h12.273v52.273H96.364V383H34.09v27.955H3.636zm44.319-52.273H84.09v-66.591H60.68l-1.817 23.864c-.53 7.121-1.345 13.352-2.444 18.693-1.06 5.303-2.33 9.924-3.806 13.863-1.44 3.902-2.993 7.292-4.66 10.171zm106.363 25.909v-24.546H160c3.333 0 5.966-.265 7.898-.795 1.969-.568 3.485-1.553 4.545-2.955 1.099-1.439 2.027-3.447 2.784-6.022l1.137-3.409-43.637-80.228H165l24.318 47.273 18.637-47.273h31.818l-40 90.909a76.722 76.722 0 0 1-7.841 13.353c-3.03 4.091-6.799 7.405-11.307 9.943-4.508 2.5-10.095 3.75-16.761 3.75h-9.546zM250 266.636h39.318l27.046 65.909h1.363l27.046-65.909h39.318V383h-30.909v-67.273h-.909l-25.909 66.364h-18.637l-25.909-66.818h-.909V383H250V266.636zM429.29 383h-34.091l38.409-116.364h43.182L515.199 383h-34.091l-25.455-84.318h-.909L429.29 383zm-6.364-45.909h64.091v23.636h-64.091v-23.636zm103.48-70.455h31.591v60.909h.909l41.364-60.909h26.818V383h-31.591v-61.136h-.682L552.77 383h-26.364V266.636zm61.818-31.363h19.773c-.038 7.386-2.86 13.295-8.466 17.727-5.606 4.394-13.163 6.591-22.67 6.591-9.584 0-17.178-2.197-22.784-6.591-5.606-4.432-8.39-10.341-8.353-17.727h19.546c-.038 2.386.814 4.583 2.557 6.591 1.78 1.969 4.791 2.954 9.034 2.954 4.053 0 6.951-.966 8.693-2.898 1.742-1.931 2.633-4.147 2.67-6.647z" fill="#000"/></svg>