<svg viewBox="0 0 570 100" fill="none" xmlns="http://www.w3.org/2000/svg">
    <path d="M15.3352 80.7955V70.7955H18.4886C20.0606 70.7955 21.3295 70.6061 22.2955 70.2273C23.2614 69.8295 24.0284 69.2519 24.5966 68.4943C25.1837 67.7178 25.6761 66.7519 26.0739 65.5966L26.7841 63.6932L5.64773 21.8182H18.375L32.0682 50.4545L43.517 21.8182H56.0739L36.017 68.5795C35.0511 70.7386 33.9053 72.7462 32.5795 74.6023C31.2727 76.4583 29.5966 77.9545 27.5511 79.0909C25.5057 80.2273 22.892 80.7955 19.7102 80.7955H15.3352ZM83.8935 80.7955C79.651 80.7955 75.8726 80.0663 72.5582 78.608C69.2628 77.1307 66.6586 75.1042 64.7457 72.5284C62.8518 69.9337 61.8764 66.9413 61.8196 63.5511H74.206C74.2817 64.9716 74.7457 66.2216 75.598 67.3011C76.4692 68.3617 77.6245 69.1856 79.0639 69.7727C80.5033 70.3598 82.1226 70.6534 83.9219 70.6534C85.7969 70.6534 87.4541 70.322 88.8935 69.6591C90.3329 68.9962 91.4598 68.0777 92.2741 66.9034C93.0885 65.7292 93.4957 64.375 93.4957 62.8409C93.4957 61.2879 93.0601 59.9148 92.1889 58.7216C91.3366 57.5095 90.1056 56.5625 88.4957 55.8807C86.9048 55.1989 85.0109 54.858 82.8139 54.858H77.3878V45.8239H82.8139C84.67 45.8239 86.3082 45.5019 87.7287 44.858C89.1681 44.214 90.2855 43.3239 91.081 42.1875C91.8764 41.0322 92.2741 39.6875 92.2741 38.1534C92.2741 36.6951 91.9238 35.4167 91.223 34.3182C90.5412 33.2008 89.5753 32.3295 88.3253 31.7045C87.0942 31.0795 85.6548 30.767 84.0071 30.767C82.3404 30.767 80.8158 31.0701 79.4332 31.6761C78.0507 32.2633 76.9427 33.1061 76.1094 34.2045C75.276 35.303 74.831 36.5909 74.7741 38.0682H62.9844C63.0412 34.7159 63.9976 31.7614 65.8537 29.2045C67.7098 26.6477 70.2098 24.6496 73.3537 23.2102C76.5166 21.7519 80.0866 21.0227 84.0639 21.0227C88.0791 21.0227 91.5923 21.7519 94.6037 23.2102C97.6151 24.6686 99.9541 26.6383 101.621 29.1193C103.306 31.5814 104.14 34.3466 104.121 37.4148C104.14 40.6723 103.126 43.3902 101.081 45.5682C99.0545 47.7462 96.4124 49.1288 93.1548 49.7159V50.1705C97.4351 50.7197 100.693 52.2064 102.928 54.6307C105.181 57.036 106.299 60.0473 106.28 63.6648C106.299 66.9792 105.342 69.9242 103.411 72.5C101.498 75.0758 98.8556 77.1023 95.4844 78.5795C92.1132 80.0568 88.2495 80.7955 83.8935 80.7955ZM115.463 80V21.8182H127.764V45.8239H152.736V21.8182H165.009V80H152.736V55.9659H127.764V80H115.463ZM185.179 80H171.997L192.082 21.8182H207.935L227.991 80H214.81L200.236 35.1136H199.781L185.179 80ZM184.355 57.1307H215.491V66.733H184.355V57.1307ZM234.994 21.8182H247.267V58.4091H247.75L272.892 21.8182H283.659V80H271.358V43.3807H270.932L245.648 80H234.994V21.8182ZM264.994 6.59091H273.432C273.413 10.0379 272.134 12.8125 269.597 14.9148C267.078 17.017 263.669 18.0682 259.369 18.0682C255.051 18.0682 251.633 17.017 249.114 14.9148C246.595 12.8125 245.335 10.0379 245.335 6.59091H253.716C253.697 7.89773 254.114 9.07197 254.966 10.1136C255.837 11.1553 257.305 11.6761 259.369 11.6761C261.377 11.6761 262.816 11.1648 263.688 10.142C264.559 9.11932 264.994 7.9356 264.994 6.59091ZM365.804 50.9091C365.804 57.2538 364.601 62.6515 362.196 67.1023C359.81 71.553 356.552 74.9527 352.423 77.3011C348.313 79.6307 343.692 80.7955 338.56 80.7955C333.389 80.7955 328.749 79.6212 324.639 77.2727C320.529 74.9242 317.281 71.5246 314.895 67.0739C312.509 62.6231 311.315 57.2348 311.315 50.9091C311.315 44.5644 312.509 39.1667 314.895 34.7159C317.281 30.2652 320.529 26.875 324.639 24.5455C328.749 22.197 333.389 21.0227 338.56 21.0227C343.692 21.0227 348.313 22.197 352.423 24.5455C356.552 26.875 359.81 30.2652 362.196 34.7159C364.601 39.1667 365.804 44.5644 365.804 50.9091ZM353.332 50.9091C353.332 46.7992 352.717 43.3333 351.486 40.5114C350.274 37.6894 348.56 35.5492 346.344 34.0909C344.128 32.6326 341.533 31.9034 338.56 31.9034C335.586 31.9034 332.991 32.6326 330.776 34.0909C328.56 35.5492 326.836 37.6894 325.605 40.5114C324.393 43.3333 323.787 46.7992 323.787 50.9091C323.787 55.0189 324.393 58.4848 325.605 61.3068C326.836 64.1288 328.56 66.2689 330.776 67.7273C332.991 69.1856 335.586 69.9148 338.56 69.9148C341.533 69.9148 344.128 69.1856 346.344 67.7273C348.56 66.2689 350.274 64.1288 351.486 61.3068C352.717 58.4848 353.332 55.0189 353.332 50.9091ZM393.432 80V21.8182H405.733V45.8239H430.705V21.8182H442.977V80H430.705V55.9659H405.733V80H393.432ZM463.148 80H449.966L470.051 21.8182H485.903L505.96 80H492.778L478.205 35.1136H477.75L463.148 80ZM462.324 57.1307H493.46V66.733H462.324V57.1307ZM561.564 42.1875H549.121C548.893 40.5777 548.429 39.1477 547.729 37.8977C547.028 36.6288 546.128 35.5492 545.03 34.6591C543.931 33.7689 542.662 33.0871 541.223 32.6136C539.803 32.1402 538.259 31.9034 536.592 31.9034C533.581 31.9034 530.958 32.6515 528.723 34.1477C526.488 35.625 524.755 37.7841 523.524 40.625C522.293 43.447 521.678 46.875 521.678 50.9091C521.678 55.0568 522.293 58.5417 523.524 61.3636C524.774 64.1856 526.517 66.3163 528.751 67.7557C530.986 69.1951 533.571 69.9148 536.507 69.9148C538.155 69.9148 539.679 69.697 541.081 69.2614C542.501 68.8258 543.761 68.1913 544.859 67.358C545.958 66.5057 546.867 65.4735 547.587 64.2614C548.325 63.0492 548.837 61.6667 549.121 60.1136L561.564 60.1705C561.242 62.8409 560.437 65.4167 559.149 67.8977C557.88 70.3598 556.166 72.5663 554.007 74.517C551.867 76.4489 549.31 77.983 546.337 79.1193C543.382 80.2367 540.039 80.7955 536.308 80.7955C531.119 80.7955 526.479 79.6212 522.388 77.2727C518.316 74.9242 515.096 71.5246 512.729 67.0739C510.38 62.6231 509.206 57.2348 509.206 50.9091C509.206 44.5644 510.399 39.1667 512.786 34.7159C515.172 30.2652 518.411 26.875 522.501 24.5455C526.592 22.197 531.195 21.0227 536.308 21.0227C539.679 21.0227 542.804 21.4962 545.683 22.4432C548.581 23.3902 551.147 24.7727 553.382 26.5909C555.617 28.3901 557.435 30.5966 558.837 33.2102C560.257 35.8239 561.166 38.8163 561.564 42.1875Z" fill="black"/>
</svg>
