<svg viewBox="0 0 650 422" fill="none" xmlns="http://www.w3.org/2000/svg">
    <path d="M120.227 324.818C120.227 337.773 117.708 348.701 112.67 357.602C107.633 366.466 100.833 373.189 92.2727 377.773C83.7121 382.318 74.1667 384.591 63.6364 384.591C53.0303 384.591 43.447 382.299 34.8864 377.716C26.3636 373.095 19.5833 366.352 14.5455 357.489C9.54545 348.587 7.04545 337.697 7.04545 324.818C7.04545 311.864 9.54545 300.955 14.5455 292.091C19.5833 283.189 26.3636 276.466 34.8864 271.92C43.447 267.337 53.0303 265.045 63.6364 265.045C74.1667 265.045 83.7121 267.337 92.2727 271.92C100.833 276.466 107.633 283.189 112.67 292.091C117.708 300.955 120.227 311.864 120.227 324.818ZM87.7273 324.818C87.7273 317.848 86.7992 311.977 84.9432 307.205C83.125 302.394 80.4167 298.758 76.8182 296.295C73.2576 293.795 68.8636 292.545 63.6364 292.545C58.4091 292.545 53.9962 293.795 50.3977 296.295C46.8371 298.758 44.1288 302.394 42.2727 307.205C40.4545 311.977 39.5455 317.848 39.5455 324.818C39.5455 331.788 40.4545 337.678 42.2727 342.489C44.1288 347.261 46.8371 350.898 50.3977 353.398C53.9962 355.86 58.4091 357.091 63.6364 357.091C68.8636 357.091 73.2576 355.86 76.8182 353.398C80.4167 350.898 83.125 347.261 84.9432 342.489C86.7992 337.678 87.7273 331.788 87.7273 324.818ZM166.719 383V266.636H198.31V312.091H240.128V266.636H271.719V383H240.128V337.545H198.31V383H166.719ZM316.946 383H282.855L321.264 266.636H364.446L402.855 383H368.764L343.31 298.682H342.401L316.946 383ZM310.582 337.091H374.673V360.727H310.582V337.091ZM517.23 310.273H485.185C484.957 307.621 484.351 305.216 483.366 303.057C482.42 300.898 481.094 299.042 479.389 297.489C477.723 295.898 475.696 294.686 473.31 293.852C470.923 292.981 468.215 292.545 465.185 292.545C459.882 292.545 455.393 293.833 451.719 296.409C448.082 298.985 445.317 302.678 443.423 307.489C441.567 312.299 440.639 318.076 440.639 324.818C440.639 331.939 441.586 337.905 443.48 342.716C445.412 347.489 448.196 351.087 451.832 353.511C455.469 355.898 459.844 357.091 464.957 357.091C467.874 357.091 470.488 356.731 472.798 356.011C475.109 355.254 477.116 354.174 478.821 352.773C480.526 351.371 481.908 349.686 482.969 347.716C484.067 345.708 484.806 343.455 485.185 340.955L517.23 341.182C516.851 346.106 515.469 351.125 513.082 356.239C510.696 361.314 507.306 366.011 502.912 370.33C498.556 374.61 493.158 378.057 486.719 380.67C480.279 383.284 472.798 384.591 464.276 384.591C453.594 384.591 444.01 382.299 435.526 377.716C427.079 373.133 420.393 366.39 415.469 357.489C410.582 348.587 408.139 337.697 408.139 324.818C408.139 311.864 410.639 300.955 415.639 292.091C420.639 283.189 427.382 276.466 435.866 271.92C444.351 267.337 453.821 265.045 464.276 265.045C471.624 265.045 478.385 266.049 484.56 268.057C490.734 270.064 496.151 273 500.81 276.864C505.469 280.689 509.219 285.405 512.06 291.011C514.901 296.617 516.624 303.038 517.23 310.273Z" fill="black"/>
    <path d="M24.3182 156.591V132.045H30C33.3333 132.045 35.9659 131.78 37.8977 131.25C39.8674 130.682 41.3826 129.697 42.4432 128.295C43.5417 126.856 44.4697 124.848 45.2273 122.273L46.3636 118.864L2.72727 38.6364H35L59.3182 85.9091L77.9545 38.6364H109.773L69.7727 129.545C67.5758 134.318 64.9621 138.769 61.9318 142.898C58.9015 146.989 55.1326 150.303 50.625 152.841C46.1174 155.341 40.5303 156.591 33.8636 156.591H24.3182ZM165.682 156.591C156.515 156.591 148.371 155.019 141.25 151.875C134.167 148.693 128.598 144.318 124.545 138.75C120.492 133.182 118.447 126.78 118.409 119.545H150.227C150.265 121.78 150.947 123.788 152.273 125.568C153.636 127.311 155.492 128.674 157.841 129.659C160.189 130.644 162.879 131.136 165.909 131.136C168.826 131.136 171.402 130.625 173.636 129.602C175.871 128.542 177.614 127.083 178.864 125.227C180.114 123.371 180.72 121.25 180.682 118.864C180.72 116.515 180 114.432 178.523 112.614C177.083 110.795 175.057 109.375 172.443 108.352C169.83 107.33 166.818 106.818 163.409 106.818H151.591V85H163.409C166.553 85 169.318 84.4886 171.705 83.4659C174.129 82.4432 176.004 81.0227 177.33 79.2045C178.693 77.3864 179.356 75.303 179.318 72.9545C179.356 70.6818 178.807 68.6742 177.67 66.9318C176.534 65.1894 174.943 63.8258 172.898 62.8409C170.89 61.8561 168.561 61.3636 165.909 61.3636C163.03 61.3636 160.455 61.875 158.182 62.8977C155.947 63.9205 154.186 65.3409 152.898 67.1591C151.61 68.9773 150.947 71.0606 150.909 73.4091H120.682C120.72 66.2879 122.67 60 126.534 54.5455C130.436 49.0909 135.777 44.8106 142.557 41.7045C149.337 38.5985 157.121 37.0455 165.909 37.0455C174.508 37.0455 182.102 38.5038 188.693 41.4205C195.322 44.3371 200.492 48.3523 204.205 53.4659C207.955 58.5417 209.811 64.3561 209.773 70.9091C209.848 77.4242 207.614 82.7651 203.068 86.9318C198.561 91.0985 192.841 93.5606 185.909 94.3182V95.2273C195.303 96.25 202.367 99.1288 207.102 103.864C211.837 108.561 214.167 114.47 214.091 121.591C214.129 128.409 212.083 134.451 207.955 139.716C203.864 144.981 198.163 149.11 190.852 152.102C183.58 155.095 175.189 156.591 165.682 156.591ZM227.969 155V38.6364H259.56V84.0909H301.378V38.6364H332.969V155H301.378V109.545H259.56V155H227.969ZM378.196 155H344.105L382.514 38.6364H425.696L464.105 155H430.014L404.56 70.6818H403.651L378.196 155ZM371.832 109.091H435.923V132.727H371.832V109.091ZM475.312 38.6364H506.903V99.5455H507.812L549.176 38.6364H575.994V155H544.403V93.8636H543.722L501.676 155H475.312V38.6364ZM537.131 7.27272H556.903C556.866 14.6591 554.044 20.5682 548.438 25C542.831 29.3939 535.275 31.5909 525.767 31.5909C516.184 31.5909 508.589 29.3939 502.983 25C497.377 20.5682 494.593 14.6591 494.631 7.27272H514.176C514.138 9.65909 514.991 11.8561 516.733 13.8636C518.513 15.8333 521.525 16.8182 525.767 16.8182C529.82 16.8182 532.718 15.8523 534.46 13.9205C536.203 11.9886 537.093 9.77272 537.131 7.27272Z" fill="black"/>
</svg>
