<svg width="16" height="16" viewBox="0 0 16 16" fill="none" xmlns="http://www.w3.org/2000/svg">
    <path d="M6.00406 3.20527L4.24646 6.57934L2.48886 3.20527H0L3.14315 8.54221V12.1857H5.34977V8.52938L8.49292 3.20527H6.00406Z" fill="#1AAEC4"/>
    <path d="M10.4193 9.02972L8.90546 10.1202C9.11073 10.5478 9.39725 10.9413 9.76502 11.3005C10.1328 11.6597 10.5647 11.9462 11.0608 12.16C11.5654 12.3653 12.1085 12.4679 12.6901 12.4679C13.1092 12.4679 13.5154 12.4038 13.9088 12.2755C14.3108 12.1558 14.6658 11.9762 14.9737 11.7367C15.2901 11.4972 15.5382 11.2021 15.7178 10.8515C15.9059 10.4922 16 10.086 16 9.63269C16 9.25637 15.9401 8.92281 15.8204 8.63201C15.7007 8.34122 15.5339 8.08463 15.3201 7.86226C15.1148 7.63989 14.8753 7.45173 14.6016 7.29778C14.3279 7.13527 14.0329 6.99415 13.7164 6.87441C13.2973 6.72902 12.9381 6.59217 12.6388 6.46388C12.348 6.33559 12.1213 6.19447 11.9588 6.04052C11.8049 5.88657 11.7279 5.70696 11.7279 5.50169C11.7279 5.30498 11.8091 5.14247 11.9716 5.01418C12.1341 4.87734 12.3693 4.80891 12.6772 4.80891C12.9082 4.80891 13.122 4.85596 13.3187 4.95004C13.524 5.03556 13.7079 5.15958 13.8704 5.32208C14.0414 5.47603 14.1911 5.65992 14.3194 5.87374L15.9743 4.95004C15.8204 4.64214 15.598 4.33851 15.3072 4.03916C15.0164 3.73982 14.6487 3.49179 14.2039 3.29507C13.7677 3.09836 13.2503 3 12.6516 3C12.07 3 11.5397 3.10263 11.0608 3.3079C10.5904 3.50461 10.214 3.79541 9.9318 4.18029C9.65811 4.56516 9.52126 5.02273 9.52126 5.55301C9.52126 5.99775 9.60251 6.37835 9.76502 6.69481C9.92752 7.00271 10.1328 7.26784 10.3808 7.49021C10.6288 7.70403 10.8897 7.87937 11.1634 8.01621C11.4456 8.15306 11.6937 8.25997 11.9075 8.33694C12.3437 8.49944 12.6943 8.64484 12.9595 8.77313C13.2246 8.90143 13.4171 9.03827 13.5368 9.18367C13.6565 9.32051 13.7164 9.5044 13.7164 9.73532C13.7164 10.009 13.6138 10.2271 13.4085 10.3896C13.2032 10.5436 12.9424 10.6205 12.6259 10.6205C12.3266 10.6205 12.0401 10.5564 11.7664 10.4281C11.5012 10.2998 11.2532 10.1159 11.0223 9.87644C10.7999 9.63697 10.5989 9.35472 10.4193 9.02972Z" fill="#1AAEC4"/>
</svg>
