<svg width="16" height="16" viewBox="0 0 16 16" fill="none" xmlns="http://www.w3.org/2000/svg">
    <g filter="url(#filter0_i_35_6)">
        <g clip-path="url(#clip0_35_6)">
            <rect width="16" height="16" rx="8" fill="#82C906"/>
            <g filter="url(#filter1_b_35_6)">
                <path d="M11.2393 9.73682V11H4.42822V9.73682H11.2393ZM4.82178 9.73682V13.2725H3.29834L3.24121 9.73682H4.82178ZM12.4707 9.73682L12.3755 13.2661H10.8774V9.73682H12.4707ZM10.1221 1.75781V3.02734H5.85645V1.75781H10.1221ZM11.3408 1.75781V11H9.75391V1.75781H11.3408ZM5.53906 1.75781H7.13232L6.91016 5.50293C6.8763 6.09538 6.81494 6.62858 6.72607 7.10254C6.63721 7.5765 6.5293 8.00179 6.40234 8.37842C6.27962 8.75081 6.13997 9.08089 5.9834 9.36865C5.82682 9.65218 5.65967 9.89762 5.48193 10.105C5.3042 10.3123 5.12223 10.4901 4.93604 10.6382C4.75407 10.7821 4.57422 10.9027 4.39648 11H3.5459V9.73682H3.9585C4.07275 9.63102 4.19971 9.47868 4.33936 9.27979C4.479 9.07666 4.61442 8.81217 4.74561 8.48633C4.88102 8.15625 4.99951 7.74788 5.10107 7.26123C5.20264 6.77458 5.27246 6.18848 5.31055 5.50293L5.53906 1.75781Z" fill="white"/>
            </g>
        </g>
    </g>
    <defs>
        <filter id="filter0_i_35_6" x="0" y="0" width="18" height="18" filterUnits="userSpaceOnUse" color-interpolation-filters="sRGB">
            <feFlood flood-opacity="0" result="BackgroundImageFix"/>
            <feBlend mode="normal" in="SourceGraphic" in2="BackgroundImageFix" result="shape"/>
            <feColorMatrix in="SourceAlpha" type="matrix" values="0 0 0 0 0 0 0 0 0 0 0 0 0 0 0 0 0 0 127 0" result="hardAlpha"/>
            <feOffset dx="2" dy="2"/>
            <feGaussianBlur stdDeviation="2"/>
            <feComposite in2="hardAlpha" operator="arithmetic" k2="-1" k3="1"/>
            <feColorMatrix type="matrix" values="0 0 0 0 0 0 0 0 0 0 0 0 0 0 0 0 0 0 0.25 0"/>
            <feBlend mode="normal" in2="shape" result="effect1_innerShadow_35_6"/>
        </filter>
        <filter id="filter1_b_35_6" x="-0.758789" y="-2.24219" width="17.2295" height="19.5146" filterUnits="userSpaceOnUse" color-interpolation-filters="sRGB">
            <feFlood flood-opacity="0" result="BackgroundImageFix"/>
            <feGaussianBlur in="BackgroundImageFix" stdDeviation="2"/>
            <feComposite in2="SourceAlpha" operator="in" result="effect1_backgroundBlur_35_6"/>
            <feBlend mode="normal" in="SourceGraphic" in2="effect1_backgroundBlur_35_6" result="shape"/>
        </filter>
        <clipPath id="clip0_35_6">
            <rect width="16" height="16" rx="8" fill="white"/>
        </clipPath>
    </defs>
</svg>
