<svg width="16" height="16" viewBox="0 0 16 16" fill="none" xmlns="http://www.w3.org/2000/svg">
    <g clip-path="url(#clip0_47_17)">
        <path d="M3.328 12.182C3.31933 12.182 3.17633 12.1733 2.899 12.156C2.63033 12.1473 2.31833 12.1127 1.963 12.052C1.66833 12 1.39967 11.9653 1.157 11.948C0.923 11.922 0.78 11.909 0.728 11.909C0.719333 11.1897 0.680333 10.3187 0.611 9.296C0.680333 9.28733 0.749667 9.283 0.819 9.283C0.897 9.283 0.966333 9.283 1.027 9.283C1.19167 10.0457 1.46467 10.635 1.846 11.051C2.236 11.467 2.74733 11.675 3.38 11.675C3.94333 11.675 4.40267 11.5233 4.758 11.22C5.11333 10.908 5.291 10.5007 5.291 9.998C5.291 9.61667 5.19133 9.30467 4.992 9.062C4.80133 8.81933 4.54567 8.61567 4.225 8.451C3.913 8.27767 3.57933 8.11733 3.224 7.97C2.808 7.788 2.40933 7.59733 2.028 7.398C1.65533 7.19 1.34767 6.92567 1.105 6.605C0.862333 6.28433 0.741 5.86833 0.741 5.357C0.741 4.811 0.875333 4.343 1.144 3.953C1.42133 3.563 1.78967 3.26833 2.249 3.069C2.70833 2.861 3.21533 2.757 3.77 2.757C3.94333 2.757 4.121 2.76567 4.303 2.783C4.49367 2.80033 4.68867 2.82633 4.888 2.861C5.13933 2.89567 5.33 2.91733 5.46 2.926C5.59867 2.93467 5.68967 2.939 5.733 2.939C5.759 2.939 5.80667 2.939 5.876 2.939C5.94533 2.93033 6.00167 2.92167 6.045 2.913C6.06233 3.29433 6.07967 3.68867 6.097 4.096C6.11433 4.50333 6.14033 4.928 6.175 5.37C6.00167 5.396 5.85867 5.40467 5.746 5.396C5.54667 4.642 5.29967 4.10033 5.005 3.771C4.71033 3.433 4.29 3.264 3.744 3.264C3.26733 3.264 2.86 3.394 2.522 3.654C2.184 3.90533 2.015 4.28233 2.015 4.785C2.015 5.05367 2.07567 5.292 2.197 5.5C2.327 5.708 2.53933 5.90733 2.834 6.098C3.12867 6.28867 3.536 6.49233 4.056 6.709C4.342 6.83033 4.628 6.96467 4.914 7.112C5.20867 7.25933 5.47733 7.437 5.72 7.645C5.96267 7.84433 6.15767 8.09133 6.305 8.386C6.45233 8.672 6.526 9.01433 6.526 9.413C6.526 10.0023 6.37867 10.505 6.084 10.921C5.78933 11.3283 5.39933 11.6403 4.914 11.857C4.43733 12.0737 3.90867 12.182 3.328 12.182ZM7.49938 12.013C7.48204 11.883 7.48204 11.7443 7.49938 11.597C7.91538 11.5537 8.21438 11.5147 8.39638 11.48C8.57838 11.4367 8.69104 11.35 8.73438 11.22C8.77771 11.09 8.79938 10.869 8.79938 10.557V4.512C8.79938 4.148 8.77771 3.888 8.73438 3.732C8.69104 3.576 8.57838 3.47633 8.39638 3.433C8.22304 3.381 7.93704 3.33767 7.53837 3.303C7.52104 3.173 7.52104 3.03433 7.53837 2.887C7.74638 2.887 7.91971 2.89133 8.05838 2.9C8.20571 2.9 8.35738 2.9 8.51338 2.9C8.66938 2.9 8.86438 2.90433 9.09838 2.913C9.34104 2.913 9.66171 2.913 10.0604 2.913C10.5544 2.913 11.057 2.913 11.5684 2.913C12.0797 2.90433 12.552 2.9 12.9854 2.9C13.4274 2.9 13.7827 2.9 14.0514 2.9C14.3287 2.89133 14.476 2.887 14.4934 2.887C14.5367 3.21633 14.5844 3.55867 14.6364 3.914C14.6884 4.26933 14.7447 4.64633 14.8054 5.045C14.736 5.05367 14.6624 5.058 14.5844 5.058C14.515 5.058 14.4457 5.05367 14.3764 5.045C14.151 4.46433 13.8867 4.057 13.5834 3.823C13.2714 3.57167 12.7817 3.446 12.1144 3.446H10.2294V7.125H11.0874C11.5034 7.125 11.8197 7.099 12.0364 7.047C12.253 6.98633 12.4134 6.86067 12.5174 6.67C12.6214 6.47067 12.7037 6.15867 12.7644 5.734C12.9204 5.708 13.0677 5.708 13.2064 5.734C13.1977 6.098 13.189 6.38833 13.1804 6.605C13.1804 6.813 13.1804 6.97767 13.1804 7.099C13.1804 7.22033 13.1804 7.333 13.1804 7.437C13.1804 7.53233 13.1804 7.64067 13.1804 7.762C13.1804 7.88333 13.1804 8.05233 13.1804 8.269C13.189 8.48567 13.1977 8.78033 13.2064 9.153C13.0764 9.179 12.929 9.179 12.7644 9.153C12.7124 8.69367 12.6344 8.36433 12.5304 8.165C12.4264 7.957 12.2704 7.827 12.0624 7.775C11.863 7.723 11.577 7.697 11.2044 7.697H10.2294V10.388C10.2294 10.6567 10.238 10.8647 10.2554 11.012C10.2727 11.1593 10.3247 11.2763 10.4114 11.363C10.498 11.441 10.628 11.493 10.8014 11.519C10.9834 11.545 11.2434 11.571 11.5814 11.597C11.6074 11.7357 11.6074 11.8743 11.5814 12.013C11.3994 12.013 11.1784 12.0087 10.9184 12C10.6584 12 10.3984 12 10.1384 12C9.88704 11.9913 9.67471 11.987 9.50138 11.987C9.33671 11.987 9.13304 11.9913 8.89038 12C8.64771 12 8.40071 12 8.14938 12C7.90671 12.0087 7.69004 12.013 7.49938 12.013Z" fill="#F28911"/>
    </g>
    <defs>
        <clipPath id="clip0_47_17">
            <rect width="16" height="16" fill="white"/>
        </clipPath>
    </defs>
</svg>
