<svg width="64" height="64" viewBox="0 0 64 64" fill="none" xmlns="http://www.w3.org/2000/svg">
    <path d="M62.1547 20.825C62.5547 21.9125 62.2172 23.125 61.3547 23.9L57.4922 27.4125C56.5297 28.3 56.0672 29.6 56.1297 30.9C56.1422 31.2625 56.1547 31.625 56.1547 32C56.1547 32.375 56.1422 32.7375 56.1297 33.1C56.0672 34.4125 56.5172 35.7125 57.4922 36.5875L61.3547 40.1C62.2172 40.875 62.5547 42.0875 62.1547 43.175C61.6047 44.6625 60.9422 46.0875 60.1797 47.4625L59.5922 48.475C58.7672 49.85 57.8422 51.15 56.8297 52.375C56.0922 53.275 54.8672 53.575 53.7672 53.225L48.8047 51.65C47.5547 51.25 46.2047 51.5125 45.0922 52.225C44.4797 52.6125 43.8547 52.9875 43.2047 53.3125C42.0422 53.9125 41.1422 54.9625 40.8547 56.2375L39.7422 61.325C39.4922 62.4625 38.6172 63.3625 37.4672 63.55C35.7422 63.8375 33.9672 63.9875 32.1547 63.9875C30.3422 63.9875 28.5672 63.8375 26.8422 63.55C25.6922 63.3625 24.8172 62.4625 24.5672 61.325L23.4547 56.2375C23.1797 54.9625 22.2672 53.9125 21.1047 53.3125C20.4547 52.975 19.8297 52.6125 19.2172 52.225C18.1172 51.5125 16.7547 51.25 15.5047 51.65L10.5547 53.2375C9.45472 53.5875 8.22972 53.275 7.49222 52.3875C6.47972 51.1625 5.55472 49.8625 4.72972 48.4875L4.14222 47.475C3.37972 46.1 2.71722 44.675 2.16722 43.1875C1.76722 42.1 2.10472 40.8875 2.96722 40.1125L6.82972 36.6C7.79222 35.7125 8.25472 34.4125 8.19222 33.1125C8.17972 32.75 8.16722 32.3875 8.16722 32.0125C8.16722 31.6375 8.17972 31.275 8.19222 30.9125C8.25472 29.6 7.80472 28.3 6.82972 27.425L2.96722 23.9C2.10472 23.125 1.76722 21.9125 2.16722 20.825C2.71722 19.3375 3.37972 17.9125 4.14222 16.5375L4.72972 15.525C5.55472 14.15 6.47972 12.85 7.49222 11.625C8.22972 10.725 9.45472 10.425 10.5547 10.775L15.5172 12.35C16.7672 12.75 18.1172 12.4875 19.2297 11.775C19.8422 11.3875 20.4672 11.0125 21.1172 10.6875C22.2797 10.0875 23.1797 9.0375 23.4672 7.7625L24.5797 2.675C24.8297 1.5375 25.7047 0.6375 26.8547 0.45C28.5797 0.15 30.3547 0 32.1672 0C33.9797 0 35.7547 0.15 37.4797 0.4375C38.6297 0.625 39.5047 1.525 39.7547 2.6625L40.8672 7.75C41.1422 9.025 42.0422 10.075 43.2172 10.675C43.8672 11.0125 44.4922 11.375 45.1047 11.7625C46.2047 12.475 47.5672 12.725 48.8172 12.3375L53.7797 10.7625C54.8797 10.4125 56.1047 10.725 56.8422 11.6125C57.8547 12.8375 58.7797 14.1375 59.6047 15.5125L60.1922 16.525C60.9547 17.9 61.6172 19.325 62.1672 20.8125L62.1547 20.825ZM32.1672 42C34.8194 42 37.3629 40.9464 39.2383 39.0711C41.1137 37.1957 42.1672 34.6522 42.1672 32C42.1672 29.3478 41.1137 26.8043 39.2383 24.9289C37.3629 23.0536 34.8194 22 32.1672 22C29.5151 22 26.9715 23.0536 25.0962 24.9289C23.2208 26.8043 22.1672 29.3478 22.1672 32C22.1672 34.6522 23.2208 37.1957 25.0962 39.0711C26.9715 40.9464 29.5151 42 32.1672 42Z" fill="#ADB0AC"/>
</svg>
